<svg width="450" height="450" viewBox="0 0 450 450" fill="none" xmlns="http://www.w3.org/2000/svg">
<path d="M224.908 449.984C349.122 449.984 449.817 391.849 449.817 320.137C449.817 248.424 349.122 190.289 224.908 190.289C100.695 190.289 0 248.424 0 320.137C0 391.849 100.695 449.984 224.908 449.984Z" fill="#F5F5F5"/>
<path d="M263.404 391.531C286.243 391.531 304.758 380.842 304.758 367.656C304.758 354.47 286.243 343.781 263.404 343.781C240.565 343.781 222.05 354.47 222.05 367.656C222.05 380.842 240.565 391.531 263.404 391.531Z" fill="#E0E0E0"/>
<path d="M370.987 377.39C393.826 377.39 412.34 366.701 412.34 353.515C412.34 340.329 393.826 329.64 370.987 329.64C348.147 329.64 329.633 340.329 329.633 353.515C329.633 366.701 348.147 377.39 370.987 377.39Z" fill="#E0E0E0"/>
<path d="M144.789 427.328C167.628 427.328 186.143 416.639 186.143 403.454C186.143 390.268 167.628 379.579 144.789 379.579C121.95 379.579 103.435 390.268 103.435 403.454C103.435 416.639 121.95 427.328 144.789 427.328Z" fill="#E0E0E0"/>
<path d="M77.0116 324.944C77.0116 324.944 75.9323 299.7 65.3489 285.648C54.7656 271.597 41.7937 269.579 35.3678 273.536C30.6707 276.414 31.3003 284.969 39.4252 290.525C47.5501 296.082 63.2103 310.323 65.6587 319.607L77.0116 324.944Z" fill="#37474F"/>
<path d="M70.016 321.266C69.8446 321.253 69.6849 321.174 69.571 321.045C69.4572 320.916 69.3981 320.748 69.4064 320.576C70.4957 297.671 50.4183 283.39 44.9518 280.822C44.7949 280.748 44.6734 280.615 44.6135 280.452C44.5537 280.29 44.5603 280.11 44.632 279.952C44.7078 279.795 44.8422 279.673 45.0066 279.613C45.1709 279.553 45.3521 279.56 45.5114 279.632C51.1179 282.291 71.8349 297.011 70.7156 320.606C70.7052 320.78 70.6271 320.942 70.498 321.058C70.3689 321.174 70.1993 321.234 70.026 321.226L70.016 321.266Z" fill="#E7E7E7"/>
<path d="M72.0147 316.968C70.5718 316.949 69.1845 316.409 68.1072 315.449C66.8779 314.1 66.9779 312.032 66.4082 310.293C65.4788 307.434 62.6606 305.496 59.7224 304.886C56.7433 304.421 53.6981 304.626 50.8081 305.486C44.9118 306.935 39.2453 303.307 33.339 303.737C31.2079 303.805 29.1354 304.451 27.3428 305.606C26.4586 306.19 25.7343 306.987 25.2352 307.922C24.7361 308.857 24.4782 309.902 24.4846 310.962C24.6872 312.717 25.5611 314.325 26.9231 315.449C28.2888 316.571 29.7936 317.511 31.4003 318.248L36.587 320.896C37.4836 321.294 38.3104 321.834 39.0355 322.495C39.7207 323.229 40.2375 324.104 40.55 325.058C40.8624 326.013 40.9628 327.024 40.8443 328.021C40.4446 330.02 38.8456 331.539 38.3359 333.498C37.7063 336.066 39.2753 338.815 41.5339 340.204C43.8798 341.474 46.5577 341.997 49.2091 341.703C51.8574 341.553 54.4757 341.023 57.1241 340.973C58.9159 340.845 60.7066 341.237 62.2808 342.102C64.0586 343.39 65.3395 345.249 65.9086 347.369C66.2518 348.729 66.7976 350.029 67.5275 351.227C68.4276 352.364 69.6395 353.215 71.0153 353.675C73.6763 354.655 76.5992 354.655 79.2602 353.675C81.4488 352.836 82.5181 350.367 83.3376 348.229C84.1565 345.99 84.5463 343.616 84.4869 341.233C84.361 335.107 82.9765 329.072 80.4194 323.504C79.1902 320.946 77.4213 318.388 74.703 317.508C73.8227 317.257 72.9237 317.077 72.0147 316.968Z" fill="#455A64"/>
<path d="M77.6911 344.431C77.5703 344.431 77.4524 344.394 77.3539 344.324C77.2553 344.254 77.1811 344.155 77.1415 344.041C70.9754 326.362 41.8037 310.982 31.1704 309.213C31.0949 309.201 31.0227 309.174 30.9577 309.133C30.8928 309.093 30.8364 309.04 30.7919 308.978C30.7473 308.916 30.7155 308.845 30.6981 308.771C30.6808 308.696 30.6782 308.619 30.6907 308.544C30.7032 308.468 30.7304 308.396 30.7708 308.331C30.8112 308.266 30.864 308.21 30.9262 308.165C30.9883 308.121 31.0587 308.089 31.1332 308.071C31.2076 308.054 31.2848 308.052 31.3603 308.064C42.2334 309.863 71.9847 325.583 78.3307 343.651C78.3575 343.724 78.3694 343.802 78.3657 343.879C78.362 343.956 78.3428 344.032 78.3092 344.102C78.2757 344.172 78.2285 344.235 78.1704 344.286C78.1123 344.337 78.0445 344.376 77.971 344.401C77.8811 344.432 77.7855 344.442 77.6911 344.431Z" fill="#E7E7E7"/>
<path d="M51.4676 334.737C51.356 334.728 51.2494 334.687 51.1608 334.618C51.0722 334.55 51.0054 334.457 50.9684 334.351C50.9314 334.245 50.9258 334.131 50.9523 334.022C50.9789 333.914 51.0363 333.815 51.1178 333.738C55.8877 330.438 61.5285 328.627 67.3276 328.531C67.4695 328.55 67.5998 328.619 67.6942 328.727C67.7886 328.835 67.8407 328.973 67.8407 329.116C67.8407 329.259 67.7886 329.397 67.6942 329.505C67.5998 329.612 67.4695 329.682 67.3276 329.701C61.7806 329.835 56.3908 331.57 51.8074 334.697C51.7004 334.743 51.5824 334.757 51.4676 334.737Z" fill="#E7E7E7"/>
<path d="M78.0116 358.102C77.3831 357.675 76.8638 357.106 76.4958 356.441C76.1278 355.776 75.9212 355.034 75.8929 354.275V146.017C75.9364 145.234 76.1635 144.473 76.5559 143.794C76.9482 143.115 77.4948 142.538 78.1515 142.11L323.157 0.649535C323.808 0.239795 324.559 0.0154842 325.328 0.000773234C326.097 -0.0139378 326.856 0.181508 327.522 0.566051C328.188 0.950595 328.737 1.50966 329.109 2.183C329.481 2.85634 329.662 3.61843 329.633 4.38716V212.655C329.59 213.438 329.363 214.199 328.97 214.878C328.578 215.557 328.031 216.134 327.375 216.562L82.3688 358.022C81.6992 358.375 80.9563 358.566 80.1997 358.58C79.443 358.594 78.6937 358.43 78.0116 358.102Z" fill="#455A64"/>
<path d="M81.9384 358.212H81.8485C81.7801 358.253 81.706 358.283 81.6286 358.302H81.4587C81.3584 358.337 81.2545 358.361 81.1489 358.372C81.0819 358.399 81.0111 358.416 80.939 358.422L80.5992 358.472C79.7075 358.593 78.8002 358.436 78.0009 358.022C77.3733 357.597 76.8552 357.03 76.4887 356.366C76.1222 355.703 75.9178 354.962 75.8922 354.205V172.71L80.1295 175.158V356.713C80.1295 357.713 80.6392 358.332 81.3788 358.332C81.4781 358.347 81.5792 358.347 81.6786 358.332C81.7708 358.306 81.8584 358.265 81.9384 358.212Z" fill="#BA68C8"/>
<path opacity="0.81" d="M81.9384 358.212H81.8485C81.7801 358.253 81.706 358.283 81.6286 358.302H81.4587C81.3584 358.337 81.2545 358.361 81.1489 358.372C81.0819 358.399 81.0111 358.416 80.939 358.422L80.5992 358.472C79.7075 358.593 78.8002 358.436 78.0009 358.022C77.3733 357.597 76.8552 357.03 76.4887 356.366C76.1222 355.703 75.9178 354.962 75.8922 354.205V172.71L80.1295 175.158V356.713C80.1295 357.713 80.6392 358.332 81.3788 358.332C81.4781 358.347 81.5792 358.347 81.6786 358.332C81.7708 358.306 81.8584 358.265 81.9384 358.212Z" fill="#E0E0E0"/>
<path d="M80.1196 175.158L75.8823 172.71V213.034L80.1196 215.503V175.158Z" fill="#BA68C8"/>
<path opacity="0.15" d="M80.1196 175.158L75.8823 172.71V213.034L80.1196 215.503V175.158Z" fill="black"/>
<path d="M80.7692 146.237C80.3692 146.91 80.1458 147.673 80.1196 148.455V175.158L75.8823 172.71V146.017C75.8773 145.927 75.8773 145.837 75.8823 145.747C75.9016 145.559 75.9317 145.372 75.9722 145.187C76.0968 144.699 76.2849 144.228 76.5319 143.788L80.7692 146.237Z" fill="#263238"/>
<path d="M329.633 4.39719V16.4495L150.036 120.134C148.796 120.853 147.787 120.264 147.787 118.834V114.267C147.787 112.838 146.788 112.269 145.528 112.968L90.8328 144.558C90.1762 144.987 89.6296 145.564 89.2372 146.242C88.8449 146.921 88.6178 147.683 88.5742 148.466V153.023C88.5319 153.805 88.3063 154.566 87.9157 155.244C87.5251 155.923 86.9804 156.501 86.3257 156.93L80.1196 160.548V148.556C80.162 147.774 80.3875 147.013 80.7781 146.334C81.1687 145.655 81.7134 145.078 82.3682 144.648L327.384 3.09801C328.623 2.37847 329.633 2.9581 329.633 4.39719Z" fill="#37474F"/>
<path d="M329.643 212.665C329.597 213.446 329.37 214.205 328.977 214.882C328.585 215.559 328.039 216.135 327.384 216.562L82.3682 358.022C81.1289 358.732 80.1196 358.152 80.1196 356.713V160.548L86.3257 156.97C87.5649 156.251 89.5836 145.318 90.8328 144.598L144.609 113.548C145.858 112.828 148.796 120.903 150.036 120.183L329.633 16.4494V212.665H329.643Z" fill="#BA68C8"/>
<path opacity="0.9" d="M329.643 212.665C329.597 213.446 329.37 214.205 328.977 214.882C328.585 215.559 328.039 216.135 327.384 216.562L82.3682 358.022C81.1289 358.732 80.1196 358.152 80.1196 356.713V160.548L86.3257 156.97C87.5649 156.251 89.5836 145.318 90.8328 144.598L144.609 113.548C145.858 112.828 148.796 120.903 150.036 120.183L329.633 16.4494V212.665H329.643Z" fill="#E7E7E7"/>
<g opacity="0.4">
<path opacity="0.4" d="M328.633 18.1783V212.665C328.585 213.265 328.401 213.846 328.097 214.365C327.792 214.884 327.374 215.328 326.874 215.663L81.8685 357.153C81.7173 357.255 81.541 357.314 81.3588 357.323C81.1289 357.323 81.1189 356.823 81.1189 356.713V161.078L86.8253 157.78C87.7048 157.27 88.2644 155.521 89.5236 151.024C89.9809 149.086 90.6096 147.194 91.4025 145.368L144.739 114.577C145.377 115.447 145.952 116.362 146.458 117.315C147.907 119.854 148.706 121.173 149.866 121.173C150.099 121.172 150.329 121.114 150.535 121.003L328.633 18.1783ZM329.633 16.4494L150.036 120.134C149.98 120.148 149.921 120.148 149.866 120.134C148.606 120.134 146.048 113.408 144.779 113.408C144.723 113.393 144.665 113.393 144.609 113.408L90.8328 144.558C89.5836 145.278 87.5649 156.211 86.3257 156.93L80.1196 160.548V356.713C80.1196 357.713 80.6292 358.322 81.3588 358.322C81.7118 358.308 82.0554 358.205 82.3582 358.022L327.384 216.562C328.039 216.135 328.585 215.559 328.977 214.882C329.37 214.206 329.597 213.446 329.643 212.665V16.4494H329.633Z" fill="#BA68C8"/>
</g>
<path d="M80.1196 175.159V215.503L329.633 71.4645V31.1101L80.1196 175.159Z" fill="#BA68C8"/>
<path d="M329.633 16.4494V31.1101L80.1196 175.159V160.548L84.7467 157.87C85.9859 157.15 86.4056 156.051 86.9952 153.962L88.5742 148.506C89.0639 146.607 89.5736 145.318 90.8328 144.598L144.609 113.548C145.858 112.828 146.838 112.748 147.787 114.317L149.716 117.815C150.415 119.044 150.775 119.764 152.014 119.044L329.633 16.4494Z" fill="#F0F0F0"/>
<path d="M319.059 11.9523C320.628 11.0529 321.897 11.7824 321.897 13.5913C321.844 14.5762 321.559 15.5347 321.066 16.389C320.573 17.2433 319.885 17.9693 319.059 18.5082C317.5 19.4076 316.231 18.6781 316.231 16.8692C316.285 15.8855 316.569 14.9282 317.06 14.0742C317.551 13.2202 318.236 12.4935 319.059 11.9523Z" fill="#BA68C8"/>
<path d="M308.866 17.8385C310.425 16.9391 311.694 17.6686 311.694 19.4775C311.64 20.4612 311.356 21.4185 310.865 22.2725C310.374 23.1265 309.689 23.8532 308.866 24.3944C307.297 25.2938 306.027 24.5643 306.027 22.7554C306.081 21.7705 306.366 20.812 306.859 19.9577C307.352 19.1034 308.039 18.3774 308.866 17.8385Z" fill="#BA68C8"/>
<path d="M298.642 23.7247C300.201 22.8253 301.48 23.5548 301.48 25.3637C301.424 26.3481 301.139 27.3057 300.646 28.1596C300.153 29.0135 299.467 29.7399 298.642 30.2806C297.073 31.19 295.804 30.4504 295.804 28.6416C295.857 27.6566 296.142 26.6982 296.635 25.8439C297.128 24.9896 297.816 24.2636 298.642 23.7247Z" fill="#BA68C8"/>
<path opacity="0.5" d="M90.453 161.547L86.9153 163.546L88.2644 160.958C88.3178 160.859 88.3457 160.75 88.3457 160.638C88.3457 160.526 88.3178 160.416 88.2644 160.318C88.1645 160.198 87.9846 160.318 87.8647 160.508L85.9459 164.206C85.9417 164.252 85.9417 164.299 85.9459 164.345C85.9415 164.409 85.9415 164.472 85.9459 164.535C85.9398 164.592 85.9398 164.649 85.9459 164.705C85.941 164.732 85.941 164.759 85.9459 164.785L87.8647 166.264C87.8932 166.282 87.926 166.291 87.9596 166.291C87.9932 166.291 88.026 166.282 88.0545 166.264C88.1462 166.189 88.2182 166.093 88.2644 165.984C88.3643 165.745 88.3544 165.475 88.2644 165.385L86.9153 164.385L90.453 162.387C90.5456 162.315 90.6201 162.222 90.6704 162.116C90.7208 162.01 90.7456 161.894 90.7428 161.777C90.7428 161.547 90.6129 161.467 90.453 161.547Z" fill="#455A64"/>
<path opacity="0.5" d="M93.4112 159.848L96.949 157.85L95.5998 156.85C95.4799 156.76 95.4699 156.491 95.5998 156.251C95.7297 156.011 95.8796 155.881 95.9996 155.971L97.9184 157.45C97.9435 157.468 97.9641 157.492 97.9783 157.52C97.9888 157.573 97.9888 157.627 97.9783 157.68C97.9888 157.743 97.9888 157.807 97.9783 157.87C97.9783 157.87 97.9783 157.87 97.9783 157.92C97.9626 157.968 97.9425 158.015 97.9184 158.06L95.9996 161.717C95.958 161.807 95.8922 161.883 95.8097 161.937C95.7817 161.964 95.744 161.98 95.7048 161.98C95.6655 161.98 95.6278 161.964 95.5998 161.937C95.5437 161.84 95.5141 161.729 95.5141 161.617C95.5141 161.505 95.5437 161.395 95.5998 161.297L96.949 158.699L93.4112 160.748C93.2513 160.838 93.1314 160.748 93.1314 160.468C93.125 160.35 93.1472 160.232 93.1959 160.124C93.2445 160.016 93.3184 159.922 93.4112 159.848Z" fill="#455A64"/>
<path opacity="0.5" d="M104.994 149.655C104.994 149.445 104.784 149.475 104.694 149.705L104.204 150.894C103.375 150.804 102.376 151.603 101.696 153.043C100.827 154.891 100.827 157.04 101.696 157.929C101.909 158.129 102.186 158.248 102.478 158.267C102.769 158.285 103.058 158.201 103.295 158.029C104.002 157.555 104.554 156.885 104.884 156.101C104.939 156.007 104.969 155.9 104.969 155.791C104.969 155.682 104.939 155.575 104.884 155.481C104.764 155.371 104.584 155.481 104.474 155.711C103.825 157.09 102.755 157.71 102.106 157.08C101.456 156.45 101.446 154.811 102.106 153.422C102.565 152.423 103.235 151.853 103.825 151.823L103.455 152.713C103.365 152.943 103.455 153.162 103.595 153.063L105.044 152.123C105.099 152.073 105.142 152.011 105.17 151.942C105.198 151.873 105.209 151.798 105.204 151.723L104.994 149.655Z" fill="#455A64"/>
<path opacity="0.5" d="M143.06 120.194L144.349 117.455C144.425 117.327 144.465 117.18 144.465 117.031C144.465 116.881 144.425 116.735 144.349 116.606C144.199 116.466 143.949 116.606 143.8 116.926L142.51 119.654L141.211 118.415C141.061 118.265 140.811 118.415 140.662 118.734C140.586 118.863 140.546 119.01 140.546 119.159C140.546 119.309 140.586 119.455 140.662 119.584L141.951 120.823L140.662 123.571C140.586 123.7 140.546 123.847 140.546 123.996C140.546 124.145 140.586 124.292 140.662 124.421C140.701 124.453 140.75 124.471 140.801 124.471C140.852 124.471 140.902 124.453 140.941 124.421C141.065 124.344 141.16 124.228 141.211 124.091L142.51 121.353L143.8 122.602C143.837 122.634 143.885 122.651 143.934 122.651C143.984 122.651 144.032 122.634 144.069 122.602C144.194 122.523 144.291 122.408 144.349 122.272C144.425 122.143 144.465 121.997 144.465 121.847C144.465 121.698 144.425 121.552 144.349 121.423L143.06 120.194Z" fill="#455A64"/>
<path d="M109.721 153.012V148.455C109.767 147.673 109.996 146.913 110.39 146.236C110.785 145.559 111.332 144.984 111.989 144.558L314.712 27.6322C315.961 26.9127 316.97 27.4923 316.97 28.9314V33.4285C316.927 34.2114 316.7 34.973 316.307 35.6518C315.915 36.3306 315.369 36.9076 314.712 37.336L111.989 154.322C110.73 155.041 109.721 154.452 109.721 153.012Z" fill="#E7E7E7"/>
<path d="M311.624 37.6259C311.571 37.6364 311.517 37.6364 311.464 37.6259C311.358 37.573 311.273 37.4862 311.222 37.3793C311.172 37.2724 311.158 37.1517 311.184 37.0363L311.404 35.1475L310.485 34.4879C310.419 34.44 310.367 34.3766 310.332 34.3033C310.297 34.23 310.281 34.1493 310.285 34.0682C310.285 33.9307 310.316 33.795 310.375 33.6707C310.433 33.5464 310.519 33.4364 310.625 33.3487L311.944 32.3493C311.988 32.3094 312.019 32.2572 312.034 32.1994L312.623 30.2607C312.657 30.1193 312.73 29.9905 312.835 29.8895C312.939 29.7885 313.07 29.7197 313.213 29.6911C313.302 29.688 313.39 29.711 313.466 29.7571C313.543 29.8032 313.604 29.8706 313.643 29.9509L314.172 31.0901L315.372 30.6304C315.456 30.5944 315.549 30.5855 315.639 30.6053C315.729 30.625 315.81 30.6722 315.871 30.7404C315.95 30.8607 315.992 31.0013 315.992 31.1451C315.992 31.2889 315.95 31.4295 315.871 31.5498L314.872 33.3487C314.861 33.4015 314.861 33.4558 314.872 33.5086L315.102 35.1375C315.115 35.2708 315.099 35.4055 315.054 35.5317C315.009 35.6579 314.937 35.7725 314.842 35.867C314.789 35.9305 314.721 35.98 314.644 36.0113C314.568 36.0427 314.485 36.0549 314.402 36.0469L313.213 35.897L312.064 37.436C312.008 37.4972 311.94 37.5458 311.864 37.5785C311.788 37.6112 311.706 37.6274 311.624 37.6259ZM310.864 33.9583L311.784 34.6179C311.861 34.6824 311.919 34.7666 311.953 34.8616C311.986 34.9566 311.993 35.0588 311.974 35.1575L311.864 36.7165L312.863 35.4573C312.92 35.3761 312.997 35.3107 313.086 35.267C313.175 35.2234 313.274 35.2029 313.373 35.2075L314.562 35.3574C314.562 35.3574 314.612 35.1975 314.562 35.1175L314.332 33.4886C314.316 33.3083 314.355 33.1273 314.442 32.9689L315.441 31.1701L314.342 31.5898C314.29 31.6128 314.233 31.625 314.176 31.6259C314.119 31.6267 314.062 31.6161 314.009 31.5947C313.956 31.5733 313.908 31.5415 313.867 31.5012C313.827 31.4609 313.794 31.4129 313.773 31.36L313.283 30.3606L312.693 32.2994C312.644 32.4776 312.539 32.6353 312.393 32.7491L311.074 33.7484C310.981 33.7905 310.906 33.8651 310.864 33.9583Z" fill="#E0E0E0"/>
<g opacity="0.5">
<path opacity="0.5" d="M319.609 27.0127C319.436 27.0144 319.267 26.9586 319.129 26.8539C318.991 26.7492 318.892 26.6016 318.848 26.4344C318.803 26.2672 318.815 26.0899 318.883 25.9304C318.95 25.7709 319.068 25.6384 319.219 25.5536L325.555 21.896C325.644 21.8441 325.742 21.8102 325.843 21.7962C325.945 21.7822 326.048 21.7884 326.148 21.8144C326.247 21.8404 326.34 21.8857 326.422 21.9477C326.504 22.0097 326.573 22.0872 326.624 22.1758C326.676 22.2644 326.71 22.3623 326.724 22.464C326.738 22.5656 326.732 22.6691 326.706 22.7684C326.68 22.8677 326.635 22.9609 326.573 23.0427C326.511 23.1245 326.433 23.1932 326.345 23.2451L319.999 26.9127C319.88 26.9796 319.745 27.014 319.609 27.0127Z" fill="#455A64"/>
<path opacity="0.5" d="M319.609 30.6805C319.471 30.6802 319.337 30.6442 319.217 30.5758C319.098 30.5075 318.999 30.4092 318.929 30.2907C318.878 30.2016 318.844 30.1031 318.831 30.001C318.817 29.8988 318.824 29.795 318.851 29.6956C318.878 29.5962 318.925 29.5031 318.988 29.4217C319.051 29.3403 319.129 29.2722 319.219 29.2214L325.555 25.5537C325.734 25.4718 325.936 25.4592 326.123 25.5185C326.31 25.5778 326.469 25.7048 326.567 25.8746C326.666 26.0444 326.698 26.2448 326.657 26.4368C326.616 26.6288 326.504 26.7985 326.345 26.9129L319.999 30.5705C319.88 30.6404 319.746 30.6783 319.609 30.6805Z" fill="#455A64"/>
<path opacity="0.5" d="M319.609 34.3381C319.471 34.3379 319.336 34.3018 319.217 34.2335C319.098 34.1651 318.999 34.0668 318.929 33.9483C318.878 33.86 318.844 33.7623 318.831 33.6609C318.818 33.5595 318.825 33.4565 318.852 33.3579C318.879 33.2592 318.925 33.167 318.988 33.0865C319.051 33.006 319.13 32.9388 319.219 32.889L325.555 29.2213C325.644 29.1694 325.742 29.1355 325.843 29.1216C325.945 29.1076 326.048 29.1137 326.148 29.1397C326.247 29.1657 326.34 29.211 326.422 29.273C326.504 29.335 326.573 29.4125 326.624 29.5011C326.676 29.5897 326.71 29.6876 326.724 29.7893C326.738 29.891 326.732 29.9944 326.706 30.0937C326.68 30.193 326.635 30.2862 326.573 30.368C326.511 30.4498 326.433 30.5186 326.345 30.5704L319.999 34.2382C319.88 34.305 319.745 34.3395 319.609 34.3381Z" fill="#455A64"/>
</g>
<path d="M80.1196 160.498V175.159L75.8823 172.71V158.06L80.1196 160.498Z" fill="#E0E0E0"/>
<path d="M251.379 101.599C251.282 101.655 251.191 101.667 251.106 101.632C251.033 101.59 250.997 101.506 250.997 101.379L251.033 101.168L255.42 85.0059C255.505 84.6048 255.717 84.305 256.057 84.1064L258.041 82.9466C258.356 82.7622 258.568 82.8137 258.678 83.1012L263.064 94.1352C263.076 94.1703 263.082 94.23 263.082 94.3143C263.082 94.4408 263.046 94.5675 262.973 94.6944C262.9 94.8213 262.815 94.9131 262.718 94.9698L261.135 95.8955C260.977 95.9878 260.856 96.0165 260.771 95.9819C260.686 95.9472 260.631 95.8877 260.607 95.8035L259.751 93.7316L254.346 96.8917L253.49 99.9639C253.393 100.288 253.217 100.524 252.963 100.673L251.379 101.599ZM259.114 91.6795L257.04 86.378L254.983 94.0948L259.114 91.6795ZM269.805 91.0378C268.555 91.7684 267.584 91.8369 266.893 91.2434V92.0234C266.893 92.164 266.85 92.3083 266.765 92.4563C266.692 92.5973 266.589 92.7067 266.456 92.7848L265.018 93.6253C264.897 93.6963 264.793 93.7074 264.709 93.6587C264.624 93.6099 264.581 93.5153 264.581 93.3747V79.4181C264.581 79.2635 264.624 79.1192 264.709 78.9852C264.793 78.8371 264.897 78.7277 265.018 78.6567L266.565 77.7523C266.698 77.6743 266.802 77.6632 266.874 77.719C266.959 77.7537 267.002 77.8483 267.002 78.0029V82.6832C267.693 81.3513 268.628 80.3413 269.805 79.6532C271.03 78.9368 271.971 78.8508 272.626 79.3954C273.281 79.94 273.633 80.936 273.681 82.3834C273.694 82.545 273.7 82.7663 273.7 83.0474C273.7 83.3426 273.694 83.578 273.681 83.7538C273.633 85.3001 273.281 86.7216 272.626 88.0182C271.971 89.3148 271.03 90.3213 269.805 91.0378ZM269.131 89.1756C270.442 88.4095 271.139 87.067 271.224 85.148C271.236 85.0004 271.243 84.786 271.243 84.5049C271.243 84.2238 271.236 84.0165 271.224 83.8831C271.139 82.0634 270.442 81.5366 269.131 82.3027C268.452 82.7 267.93 83.258 267.566 83.9768C267.214 84.6744 267.026 85.3817 267.002 86.0986L266.984 86.9104L267.002 87.722C267.038 88.4597 267.226 88.9892 267.566 89.3106C267.906 89.6321 268.428 89.5871 269.131 89.1756ZM279.911 85.1295C278.491 85.9594 277.393 86.1797 276.617 85.7904C275.84 85.387 275.422 84.4652 275.361 83.0249L275.343 82.1079L275.361 81.1696C275.422 79.6724 275.846 78.2646 276.635 76.9462C277.424 75.6277 278.516 74.5606 279.911 73.7449C281.306 72.9291 282.399 72.7194 283.187 73.1157C283.976 73.5119 284.401 74.4232 284.461 75.8495C284.473 76.011 284.479 76.3167 284.479 76.7665C284.479 77.2162 284.473 77.529 284.461 77.7047C284.401 79.216 283.982 80.6273 283.205 81.9386C282.429 83.2359 281.331 84.2995 279.911 85.1295ZM279.911 83.0423C280.554 82.6663 281.052 82.1436 281.404 81.4741C281.755 80.7905 281.95 79.9813 281.986 79.0464C281.998 78.8987 282.004 78.6211 282.004 78.2135C282.004 77.8059 281.998 77.5354 281.986 77.402C281.95 76.5097 281.755 75.9345 281.404 75.6763C281.052 75.4042 280.554 75.4561 279.911 75.832C279.268 76.208 278.771 76.7378 278.419 77.4214C278.067 78.0909 277.873 78.8931 277.836 79.8279L277.818 80.6608L277.836 81.4724C277.873 82.3647 278.067 82.9469 278.419 83.2191C278.771 83.4772 279.268 83.4182 279.911 83.0423ZM290.009 79.2263C288.892 79.8789 288.013 79.9715 287.37 79.5042C286.727 79.0228 286.405 78.0512 286.405 76.5895V70.6653C286.405 70.5247 286.447 70.3804 286.532 70.2324C286.617 70.0843 286.72 69.9749 286.842 69.9039L288.443 68.9676C288.577 68.8895 288.68 68.8784 288.753 68.9343C288.838 68.9689 288.88 69.0636 288.88 69.2182V75.0159C288.88 76.7587 289.542 77.2435 290.864 76.4703C291.495 76.1015 291.993 75.5787 292.357 74.9021C292.733 74.2184 292.921 73.469 292.921 72.6538V66.8561C292.921 66.7155 292.963 66.5712 293.048 66.4232C293.133 66.2751 293.236 66.1656 293.358 66.0947L294.959 65.1584C295.093 65.0803 295.196 65.0692 295.269 65.1251C295.354 65.1597 295.396 65.2544 295.396 65.409V75.36C295.396 75.5005 295.354 75.6448 295.269 75.7928C295.196 75.9338 295.093 76.0433 294.959 76.1213L293.485 76.9832C293.364 77.0541 293.261 77.0652 293.176 77.0165C293.091 76.9677 293.048 76.8731 293.048 76.7325V75.8682C292.369 77.3195 291.356 78.4389 290.009 79.2263ZM302.077 71.96C300.973 72.6055 300.142 72.7611 299.584 72.4268C299.038 72.0714 298.765 71.2471 298.765 69.9541V65.1683L297.327 66.0089C297.206 66.0798 297.103 66.0909 297.018 66.0422C296.933 65.9794 296.89 65.8777 296.89 65.7372V64.5355C296.89 64.3949 296.933 64.2506 297.018 64.1026C297.103 63.9546 297.206 63.8451 297.327 63.7741L298.765 62.9336V59.4338C298.765 59.2792 298.807 59.1349 298.892 59.001C298.977 58.8529 299.08 58.7434 299.202 58.6725L300.676 57.8106C300.809 57.7326 300.913 57.7215 300.985 57.7773C301.07 57.812 301.113 57.9067 301.113 58.0613V61.561L303.388 60.2309C303.521 60.1529 303.624 60.1418 303.697 60.1976C303.782 60.2323 303.825 60.3269 303.825 60.4815V61.6833C303.825 61.8379 303.782 61.9892 303.697 62.1372C303.612 62.2853 303.509 62.3947 303.388 62.4657L301.113 63.7957V68.3706C301.113 68.975 301.204 69.3786 301.386 69.5814C301.568 69.7842 301.871 69.7615 302.296 69.5132L303.552 68.779C303.673 68.7081 303.776 68.697 303.861 68.7457C303.946 68.7944 303.988 68.8891 303.988 69.0296V70.3368C303.988 70.4773 303.946 70.6216 303.861 70.7696C303.788 70.9106 303.685 71.0201 303.552 71.0981L302.077 71.96ZM255.456 124.426C254.34 125.079 253.46 125.171 252.817 124.704C252.174 124.223 251.852 123.251 251.852 121.789V115.865C251.852 115.725 251.895 115.58 251.98 115.432C252.065 115.284 252.168 115.175 252.289 115.104L253.891 114.167C254.024 114.089 254.127 114.078 254.2 114.134C254.285 114.169 254.328 114.263 254.328 114.418V120.216C254.328 121.959 254.989 122.443 256.312 121.67C256.943 121.301 257.44 120.779 257.804 120.102C258.18 119.418 258.368 118.669 258.368 117.854V112.056C258.368 111.915 258.411 111.771 258.496 111.623C258.581 111.475 258.684 111.365 258.805 111.295L260.407 110.358C260.54 110.28 260.643 110.269 260.716 110.325C260.801 110.36 260.843 110.454 260.843 110.609V120.56C260.843 120.7 260.801 120.845 260.716 120.993C260.643 121.134 260.54 121.243 260.407 121.321L258.932 122.183C258.811 122.254 258.708 122.265 258.623 122.216C258.538 122.168 258.496 122.073 258.496 121.932V121.068C257.816 122.519 256.803 123.639 255.456 124.426ZM266.833 117.775C265.923 118.307 265.159 118.599 264.54 118.652C263.921 118.69 263.46 118.587 263.157 118.343C262.865 118.078 262.72 117.79 262.72 117.481C262.72 117.341 262.762 117.203 262.847 117.069C262.932 116.935 263.029 116.836 263.138 116.773L264.576 115.932C264.686 115.868 264.777 115.864 264.849 115.92C264.898 115.934 265.025 115.986 265.232 116.076C265.438 116.18 265.68 116.214 265.96 116.177C266.239 116.141 266.548 116.023 266.888 115.825C267.373 115.541 267.774 115.194 268.089 114.785C268.404 114.376 268.562 113.974 268.562 113.581C268.562 113.286 268.489 113.089 268.344 112.992C268.21 112.887 267.962 112.871 267.598 112.943C267.234 113.001 266.694 113.155 265.978 113.405C264.946 113.755 264.182 113.815 263.684 113.586C263.199 113.35 262.956 112.803 262.956 111.946C262.956 111.383 263.102 110.771 263.393 110.109C263.684 109.433 264.115 108.773 264.686 108.131C265.268 107.467 265.96 106.901 266.76 106.433C267.573 105.958 268.277 105.701 268.872 105.662C269.466 105.61 269.915 105.706 270.218 105.95C270.534 106.173 270.692 106.447 270.692 106.77C270.692 106.896 270.649 107.034 270.564 107.182C270.491 107.309 270.4 107.404 270.291 107.468L268.944 108.255C268.847 108.312 268.744 108.323 268.635 108.289C268.55 108.268 268.417 108.212 268.235 108.122C268.053 108.032 267.84 108.001 267.598 108.031C267.355 108.06 267.07 108.171 266.742 108.362C266.293 108.625 265.941 108.943 265.687 109.317C265.444 109.683 265.323 110.049 265.323 110.415C265.323 110.682 265.383 110.864 265.505 110.962C265.626 111.06 265.862 111.083 266.214 111.032C266.566 110.981 267.094 110.827 267.798 110.57C268.963 110.156 269.794 110.085 270.291 110.356C270.801 110.62 271.056 111.16 271.056 111.975C271.056 112.959 270.686 113.977 269.945 115.028C269.205 116.079 268.168 116.995 266.833 117.775Z" fill="#455A64"/>
<path opacity="0.1" d="M90.9429 225.017L159.949 185.172V297.671L90.743 337.405L90.9429 225.017Z" fill="#BA68C8"/>
<path opacity="0.15" d="M175.16 178.466L258.407 130.407C260.086 129.408 261.406 130.167 261.406 132.036C261.343 133.07 261.039 134.075 260.519 134.97C259.998 135.866 259.275 136.627 258.407 137.193L175.15 185.792C173.481 186.791 172.152 185.992 172.152 184.063V183.713C172.208 182.664 172.509 181.643 173.032 180.732C173.554 179.821 174.283 179.045 175.16 178.466Z" fill="#BA68C8"/>
<path opacity="0.1" d="M174.29 193.027L312.044 113.498C313.243 112.808 314.212 113.298 314.212 114.587C314.16 115.315 313.936 116.02 313.559 116.646C313.182 117.271 312.663 117.798 312.044 118.185L174.29 197.714C173.101 198.404 172.132 197.914 172.132 196.625C172.184 195.898 172.407 195.194 172.782 194.569C173.157 193.944 173.674 193.416 174.29 193.027Z" fill="#BA68C8"/>
<path opacity="0.1" d="M174.29 202.441L312.044 122.912C313.243 122.222 314.212 122.712 314.212 124.001C314.16 124.729 313.936 125.434 313.559 126.06C313.182 126.685 312.663 127.212 312.044 127.599L174.29 207.128C173.101 207.818 172.132 207.328 172.132 206.029C172.186 205.304 172.409 204.601 172.784 203.978C173.159 203.355 173.675 202.829 174.29 202.441Z" fill="#BA68C8"/>
<path opacity="0.1" d="M174.29 211.845L312.044 132.316C313.243 131.626 314.212 132.116 314.212 133.415C314.158 134.141 313.933 134.845 313.557 135.468C313.18 136.091 312.661 136.617 312.044 137.003L174.29 216.512C173.101 217.202 172.132 216.712 172.132 215.413C172.19 214.692 172.416 213.994 172.79 213.375C173.165 212.755 173.679 212.232 174.29 211.845Z" fill="#BA68C8"/>
<path opacity="0.1" d="M174.29 221.259L312.044 141.73C313.243 141.04 314.212 141.53 314.212 142.819C314.16 143.547 313.936 144.253 313.559 144.878C313.182 145.503 312.663 146.03 312.044 146.417L174.29 225.946C173.101 226.636 172.132 226.146 172.132 224.857C172.184 224.13 172.407 223.426 172.782 222.801C173.157 222.176 173.674 221.648 174.29 221.259Z" fill="#BA68C8"/>
<path opacity="0.1" d="M174.29 230.673L270.41 174.709C271.599 174.019 272.569 174.509 272.569 175.808C272.515 176.533 272.291 177.236 271.916 177.859C271.541 178.482 271.025 179.008 270.41 179.396L174.29 235.36C173.101 236.05 172.132 235.56 172.132 234.261C172.186 233.536 172.409 232.833 172.784 232.21C173.159 231.587 173.675 231.061 174.29 230.673Z" fill="#BA68C8"/>
<path opacity="0.1" d="M174.29 249.491L312.044 169.962C313.243 169.272 314.212 169.762 314.212 171.051C314.16 171.779 313.936 172.484 313.559 173.11C313.182 173.735 312.663 174.262 312.044 174.649L174.29 254.178C173.101 254.868 172.132 254.378 172.132 253.089C172.184 252.362 172.407 251.658 172.782 251.033C173.157 250.408 173.674 249.88 174.29 249.491Z" fill="#BA68C8"/>
<path opacity="0.1" d="M174.29 258.905L312.044 179.376C313.243 178.686 314.212 179.176 314.212 180.465C314.16 181.193 313.936 181.899 313.559 182.524C313.182 183.149 312.663 183.676 312.044 184.063L174.29 263.592C173.101 264.282 172.132 263.792 172.132 262.493C172.186 261.768 172.409 261.065 172.784 260.442C173.159 259.819 173.675 259.293 174.29 258.905Z" fill="#BA68C8"/>
<path opacity="0.1" d="M174.29 268.309L312.044 188.78C313.243 188.09 314.212 188.58 314.212 189.879C314.158 190.606 313.933 191.309 313.557 191.932C313.18 192.555 312.661 193.081 312.044 193.467L174.29 273.006C173.101 273.696 172.132 273.206 172.132 271.907C172.186 271.181 172.409 270.477 172.784 269.852C173.159 269.227 173.675 268.699 174.29 268.309Z" fill="#BA68C8"/>
<path opacity="0.1" d="M174.29 277.723L224.918 248.182C226.108 247.493 227.077 247.982 227.077 249.281C227.023 250.007 226.8 250.709 226.425 251.332C226.05 251.955 225.534 252.482 224.918 252.869L174.3 282.41C173.111 283.1 172.142 282.61 172.142 281.321C172.193 280.595 172.414 279.891 172.787 279.266C173.161 278.641 173.675 278.113 174.29 277.723Z" fill="#BA68C8"/>
<path d="M358.374 223.708C365.7 199.943 372.825 184.283 365.56 179.436C358.804 180.695 355.776 184.043 354.337 192.957C352.828 202.301 349.69 215.333 347.861 222.848C346.28 229.129 344.018 235.218 341.115 241.007C340.678 241.809 339.969 242.429 339.117 242.756C336.858 243.645 335.779 244.755 333.94 246.114C332.491 247.113 331.431 247.253 331.501 247.683C331.62 248.165 331.923 248.581 332.345 248.843C332.767 249.105 333.275 249.19 333.76 249.082C334.846 248.877 335.903 248.541 336.908 248.082C336.044 250.272 334.698 252.239 332.97 253.839C329.423 256.837 329.972 259.765 335.659 260.105C337.657 260.225 342.424 258.366 346.812 250.901C348.295 248.118 349.6 245.244 350.719 242.296C353.777 234.641 356.905 228.505 358.374 223.708Z" fill="#FFA8A7"/>
<path d="M366.829 179.156C366.829 179.156 361.193 178.866 357.775 182.634C354.357 186.402 350.38 208.907 350.38 208.907C350.38 208.907 354.117 214.044 363.971 211.905L366.829 179.156Z" fill="#BA68C8"/>
<path opacity="0.3" d="M366.829 179.156C366.829 179.156 361.193 178.866 357.775 182.634C354.357 186.402 350.38 208.907 350.38 208.907C350.38 208.907 354.117 214.044 363.971 211.905L366.829 179.156Z" fill="black"/>
<path d="M393.223 338.815H385.657V352.306H393.223V338.815Z" fill="#FFA8A7"/>
<path d="M366.989 338.095L359.424 338.375L359.044 324.094L366.989 323.824V338.095Z" fill="#FFA8A7"/>
<path d="M394.292 222.009C394.292 229.534 393.183 290.096 393.183 290.096C393.352 292.264 395.301 296.262 394.881 304.576C394.312 315.869 393.542 345.55 393.542 345.55C392.244 346.219 390.811 346.582 389.351 346.614C387.891 346.645 386.443 346.343 385.118 345.73C385.118 345.73 377.962 304.606 376.613 293.404C375.424 283.64 373.415 250.741 373.415 250.741L369.318 288.986C370.191 293.103 370.507 297.318 370.257 301.518C369.897 306.695 367.469 333.668 367.469 333.668C366.161 334.439 364.694 334.901 363.181 335.021C361.668 335.14 360.147 334.914 358.734 334.358C358.734 334.358 354.427 293.743 354.337 288.986C354.237 283.57 356.855 221.919 356.855 221.919L394.292 222.009Z" fill="#37474F"/>
<path d="M385.657 348.429V347.299C384.928 347.629 383.249 354.295 380.251 357.173C377.862 359.432 374.604 362.05 373.775 364.578C372.945 367.107 378.312 368.666 380.54 368.256C383.129 367.776 387.626 365.878 388.745 364.109C389.865 362.34 390.404 359.751 391.324 358.462C392.243 357.173 394.322 355.734 394.842 354.235C395.121 353.415 394.842 351.617 394.412 350.098C393.982 348.579 393.682 347.169 393.223 347.299V348.159C392.162 349.039 390.823 349.513 389.445 349.498C388.336 349.528 385.647 349.298 385.657 348.429Z" fill="#263238"/>
<path d="M359.344 335.937C358.954 335.937 358.634 336.526 357.765 337.506C356.481 338.86 354.977 339.989 353.318 340.843C350.479 342.322 344.973 344.591 342.474 345.76C340.925 346.49 340.995 348.449 342.604 349.568C344.213 350.687 348.101 351.487 352.768 350.397C355.306 349.808 358.624 347.399 360.713 347.489C362.802 347.579 366.709 347.599 368.278 346.49C369.847 345.38 369.208 343.012 368.768 340.973C368.288 338.755 367.699 335.287 366.989 335.437V336.206C366.08 337.635 361.383 338.205 359.384 337.206L359.344 335.937Z" fill="#263238"/>
<path d="M373.415 250.751C369.478 249.465 365.879 247.314 362.882 244.455C362.882 244.455 364.88 248.452 370.957 252.11L369.667 286.268L373.415 250.751Z" fill="#263238"/>
<path d="M390.354 180.955C390.354 180.955 396.271 181.505 395.851 192.777L394.542 210.766V237.749C388.975 244.055 364.311 243.585 355.866 237.239C355.866 237.239 356.815 205.329 357.385 193.047C357.795 184.323 359.804 179.926 368.378 178.966L378.922 179.426L390.354 180.955Z" fill="#BA68C8"/>
<path opacity="0.3" d="M373.535 186.871L372.176 196.345L369.018 196.285L372.586 196.855L373.535 186.871Z" fill="black"/>
<path d="M381.43 155.551C381.492 158.601 380.34 161.551 378.228 163.753C376.116 165.955 373.217 167.228 370.167 167.294C363.941 167.294 359.174 162.027 358.894 155.561C358.404 144.098 363.941 143.819 370.167 143.819C373.215 143.884 376.113 145.156 378.225 147.356C380.336 149.555 381.489 152.503 381.43 155.551Z" fill="#263238"/>
<path d="M387.816 161.357C387.816 161.357 386.087 169.812 385.397 171.201C384.951 172.049 384.191 172.687 383.279 172.98L383.399 167.034L387.816 161.357Z" fill="#263238"/>
<path d="M385.677 149.245C385.677 149.245 386.917 148.935 388.236 150.994C389.365 152.753 389.625 156.711 387.846 161.358L384.598 161.747L385.677 149.245Z" fill="#263238"/>
<path d="M383.619 161.747C384.268 162.157 385.198 160.848 386.007 159.968C386.817 159.089 389.435 157.9 390.754 160.768C392.073 163.636 389.595 167.574 387.526 168.253C383.958 169.422 383.429 167.034 383.429 167.034L383.149 180.425C378.422 187.751 367.699 187.481 371.556 180.076V175.998C369.968 176.262 368.356 176.349 366.749 176.258C364.131 175.828 362.482 173.68 361.682 170.722C360.403 165.975 359.923 162.147 361.003 152.803C362.202 142.559 373.635 142.47 379.821 146.557C386.007 150.644 383.619 161.747 383.619 161.747Z" fill="#FFA8A7"/>
<path d="M383.209 177.427C382.109 179.677 380.53 181.659 378.582 183.234C376.926 184.457 375.005 185.272 372.975 185.612C374.65 186.747 376.022 188.273 376.973 190.059C378.162 192.658 386.487 185.492 386.407 180.405C386.407 180.405 385.108 175.298 383.309 174.979L383.209 177.427Z" fill="#263238"/>
<path d="M372.975 185.612C372.975 185.612 370.407 184.343 371.556 180.076V175.998L370.427 176.148C369.111 177.43 368.177 179.053 367.729 180.835C367.469 182.004 366.829 187.921 367.958 189.09C369.088 190.259 370.667 185.932 372.975 185.612Z" fill="#263238"/>
<path d="M379.241 150.554C379.534 150.49 379.838 150.508 380.121 150.604C381.12 151.044 381.3 154.062 381.47 154.931C382.04 157.86 382.519 162.826 383.619 162.846C383.948 162.846 385.198 160.698 386.007 159.928C387.136 158.859 385.677 149.205 385.677 149.205C385.975 148.371 386.032 147.471 385.841 146.606C385.65 145.742 385.219 144.949 384.598 144.318C382.599 142 379.381 141.48 376.473 141.32C373.045 141.13 369.567 141.39 366.189 140.641C365.128 140.346 364.05 140.115 362.962 139.951C362.916 139.931 362.866 139.921 362.817 139.921C362.767 139.921 362.718 139.931 362.672 139.951C362.562 140.041 362.582 140.211 362.612 140.351C362.823 141.363 363.18 142.339 363.671 143.249C361.66 143.09 359.675 142.698 357.755 142.08C357.644 142.045 357.526 142.045 357.415 142.08C357.185 142.15 357.145 142.449 357.165 142.689C357.295 145.108 358.444 148.765 360.413 150.184C362.158 151.327 364.185 151.967 366.269 152.033C371.566 152.233 374.824 151.114 379.241 150.554Z" fill="#263238"/>
<path d="M385.677 149.755L389.625 147.546C389.504 147.274 389.328 147.031 389.108 146.831C388.888 146.631 388.628 146.479 388.346 146.385C388.064 146.291 387.765 146.257 387.469 146.285C387.173 146.313 386.886 146.402 386.627 146.547C386.101 146.871 385.714 147.378 385.539 147.97C385.364 148.561 385.413 149.197 385.677 149.755Z" fill="#263238"/>
<path d="M371.566 175.998C371.566 175.998 377.412 174.769 379.461 173.64C380.675 172.972 381.66 171.955 382.289 170.721C381.985 171.962 381.438 173.13 380.68 174.159C379.191 176.158 371.566 177.617 371.566 177.617V175.998Z" fill="#F28F8F"/>
<path d="M372.975 160.229C372.997 160.454 373.083 160.669 373.224 160.846C373.364 161.023 373.554 161.156 373.768 161.228C373.983 161.3 374.214 161.308 374.433 161.251C374.652 161.194 374.85 161.075 375.003 160.908C375.156 160.741 375.257 160.533 375.294 160.309C375.331 160.086 375.302 159.857 375.211 159.649C375.12 159.442 374.971 159.265 374.782 159.141C374.593 159.017 374.371 158.95 374.145 158.949C373.983 158.954 373.825 158.991 373.678 159.059C373.531 159.126 373.399 159.223 373.29 159.342C373.181 159.461 373.097 159.601 373.043 159.753C372.989 159.906 372.966 160.067 372.975 160.229Z" fill="#263238"/>
<path d="M374.824 155.171L377.333 156.61C377.514 156.264 377.562 155.864 377.468 155.484C377.374 155.105 377.145 154.773 376.823 154.552C376.655 154.444 376.466 154.375 376.268 154.348C376.071 154.322 375.87 154.338 375.68 154.397C375.489 154.456 375.314 154.556 375.166 154.69C375.019 154.823 374.902 154.988 374.824 155.171Z" fill="#263238"/>
<path d="M372.096 168.663L369.417 169.662C369.47 169.846 369.561 170.017 369.682 170.165C369.804 170.313 369.955 170.434 370.125 170.521C370.296 170.608 370.483 170.66 370.674 170.672C370.865 170.684 371.056 170.656 371.236 170.592C371.592 170.433 371.877 170.148 372.036 169.792C372.195 169.436 372.216 169.034 372.096 168.663Z" fill="#F28F8F"/>
<path d="M362.212 156.241L364.501 154.402C364.397 154.241 364.261 154.103 364.101 153.999C363.941 153.895 363.76 153.825 363.571 153.796C363.382 153.767 363.189 153.778 363.005 153.829C362.82 153.88 362.649 153.97 362.502 154.092C362.196 154.351 361.998 154.714 361.944 155.111C361.891 155.507 361.986 155.91 362.212 156.241Z" fill="#263238"/>
<path d="M363.221 159.878C363.215 160.038 363.24 160.197 363.295 160.347C363.35 160.497 363.435 160.635 363.543 160.752C363.652 160.869 363.783 160.963 363.928 161.03C364.074 161.096 364.231 161.132 364.391 161.138C364.727 161.138 365.05 161.004 365.288 160.766C365.526 160.528 365.66 160.205 365.66 159.868C365.66 159.532 365.526 159.209 365.288 158.971C365.05 158.733 364.727 158.599 364.391 158.599C364.067 158.617 363.764 158.761 363.545 159C363.327 159.24 363.21 159.555 363.221 159.878Z" fill="#263238"/>
<path d="M369.497 158.899L369.358 166.304L365.15 165.335L369.497 158.899Z" fill="#F28F8F"/>
<path d="M401.867 166.344C403.556 164.106 406.974 169.073 408.553 172.5C410.132 175.928 410.162 177.867 408.863 179.226C407.563 180.585 405.115 179.766 402.667 176.518C400.218 173.27 400.898 167.993 401.867 166.344Z" fill="#BA68C8"/>
<path opacity="0.5" d="M401.867 166.344C403.556 164.106 406.974 169.073 408.553 172.5C410.132 175.928 410.162 177.867 408.863 179.226C407.563 180.585 405.115 179.766 402.667 176.518C400.218 173.27 400.898 167.993 401.867 166.344Z" fill="black"/>
<path d="M413.8 167.004C407.803 180.995 399.459 188.88 395.711 197.884C390.804 197.554 386.976 185.692 390.634 180.625C390.634 180.625 405.005 165.065 406.304 158.949C407.464 153.522 409.013 144.568 408.883 139.961C408.831 139.211 408.516 138.503 407.993 137.962C406.484 136.333 406.484 135.034 405.515 133.245C404.765 131.846 403.936 131.327 404.176 131.007C404.486 130.674 404.911 130.471 405.365 130.438C405.818 130.404 406.268 130.543 406.624 130.827C407.318 131.334 407.939 131.932 408.473 132.606C408.658 130.809 408.365 128.996 407.623 127.349C405.954 123.571 406.364 121.653 411.451 122.992C414.649 123.841 416.648 126.5 417.127 134.165C417.35 137.355 417.37 140.556 417.187 143.749C416.628 149.655 416.278 155.811 415.548 160.738C415.234 162.892 414.646 164.998 413.8 167.004Z" fill="#FFA8A7"/>
<path d="M389.135 180.795L401.807 166.304C401.807 166.304 400.298 169.832 403.596 174.979C406.894 180.126 408.853 179.226 408.853 179.226C408.853 179.226 401.367 190.149 399.369 193.807C397.37 197.465 395.281 200.553 395.281 200.553C395.06 200.979 394.716 201.33 394.294 201.56C393.872 201.789 393.391 201.888 392.913 201.842C391.054 201.842 386.127 193.587 389.135 180.795Z" fill="#BA68C8"/>
<path opacity="0.3" d="M389.135 180.795L401.807 166.304C401.807 166.304 400.298 169.832 403.596 174.979C406.894 180.126 408.853 179.226 408.853 179.226C408.853 179.226 401.367 190.149 399.369 193.807C397.37 197.465 395.281 200.553 395.281 200.553C395.06 200.979 394.716 201.33 394.294 201.56C393.872 201.789 393.391 201.888 392.913 201.842C391.054 201.842 386.127 193.587 389.135 180.795Z" fill="black"/>
<path d="M286.3 213.364L292.266 221.309L285.85 228.654L277.585 218.991L286.3 213.364Z" fill="#F28F8F"/>
<path d="M266.762 195.296C271.969 195.536 274.447 196.295 277.176 199.553C279.904 202.811 293.535 222.508 293.535 222.508C293.535 222.508 291.127 229.264 285.85 228.685L276.266 218.801L266.762 195.296Z" fill="#455A64"/>
<path d="M241.218 360.311C240.848 362.383 240.647 364.482 240.619 366.587C240.549 370.384 239.849 371.744 239.759 374.862C239.649 378.429 240.269 379.768 241.758 381.767C243.247 383.766 247.005 385.595 248.614 382.207C250.223 378.819 250.013 376.6 249.493 373.093C248.973 369.585 248.893 367.476 248.594 364.718C248.314 362.28 247.994 360.431 247.994 360.431L241.218 360.311Z" fill="#263238"/>
<path d="M252.021 330.44L239.479 330.21C239.669 338.585 240.998 352.516 241.218 360.361C241.218 361.84 241.218 371.844 241.738 374.892C242.577 379.459 247.994 378.839 248.284 376.111C248.574 373.383 247.934 361.69 247.954 360.481C247.904 355.484 250.263 342.312 251.502 333.268C251.562 332.778 251.961 330.82 252.021 330.44Z" fill="#FFBDA7"/>
<path d="M270.44 353.805C270.44 353.805 269.8 353.805 269.69 354.365C269.58 354.924 269.54 355.984 269.281 357.023C268.854 358.652 268.706 360.341 268.841 362.02C269.051 363.189 271.719 364.928 273.548 365.238C275.377 365.548 277.945 367.346 279.374 368.696C281.669 370.59 284.508 371.703 287.479 371.874C290.477 371.874 292.646 370.874 293.645 369.235C294.645 367.596 292.736 367.406 289.258 365.148L286.55 363.389C281.043 359.791 279.024 357.863 277.465 354.265L270.44 353.805Z" fill="#263238"/>
<path d="M277.505 351.846C277.415 349.248 278.735 330.16 278.735 330.16L267.951 331.379C270.51 346.59 270.71 351.776 270.42 353.995C270.366 354.2 270.342 354.412 270.35 354.625C270.35 357.623 273.698 359.182 276.346 361.15C277.345 361.93 280.014 364.328 283.112 365.378C285.111 366.067 288.818 366.377 289.288 365.108C286.13 362.689 281.813 359.531 279.294 356.763C278.055 355.424 277.595 354.425 277.505 351.846Z" fill="#FFBDA7"/>
<path d="M242.387 243.855C236.511 256.707 242.607 301.958 242.607 301.958C242.427 304.047 240.039 308.144 239.159 317.328C238.11 328.161 241.088 357.193 241.088 357.193C242.139 357.83 243.338 358.179 244.566 358.205C245.794 358.232 247.007 357.934 248.084 357.343C248.084 357.343 255.669 314.69 257.078 303.917C258.267 294.503 260.546 273.816 260.546 273.816L267.022 303.857C266.072 306.89 265.384 310 264.963 313.151C264.354 319.487 270.53 351.317 270.53 351.317C271.643 351.776 272.838 352.001 274.042 351.977C275.246 351.953 276.432 351.68 277.525 351.177C277.525 351.177 280.254 310.063 280.833 302.428C281.833 289.596 278.385 249.571 276.036 241.976L242.387 243.855Z" fill="#BA68C8"/>
<path opacity="0.5" d="M242.387 243.855C236.511 256.707 242.607 301.958 242.607 301.958C242.427 304.047 240.039 308.144 239.159 317.328C238.11 328.161 241.088 357.193 241.088 357.193C242.139 357.83 243.338 358.179 244.566 358.205C245.794 358.232 247.007 357.934 248.084 357.343C248.084 357.343 255.669 314.69 257.078 303.917C258.267 294.503 260.546 273.816 260.546 273.816L267.022 303.857C266.072 306.89 265.384 310 264.963 313.151C264.354 319.487 270.53 351.317 270.53 351.317C271.643 351.776 272.838 352.001 274.042 351.977C275.246 351.953 276.432 351.68 277.525 351.177C277.525 351.177 280.254 310.063 280.833 302.428C281.833 289.596 278.385 249.571 276.036 241.976L242.387 243.855Z" fill="black"/>
<path opacity="0.2" d="M260.526 273.816L262.435 261.883C262.435 261.883 270.51 260.214 274.177 256.767C271.648 259.733 268.338 261.931 264.623 263.113L262.475 272.307L266.232 300.119L260.526 273.816Z" fill="black"/>
<path d="M245.406 203.95L253.401 206.029V189.11C248.983 187.96 245.406 190.509 245.406 194.806V203.95Z" fill="#BA68C8"/>
<path opacity="0.6" d="M245.406 203.95L253.401 206.029V189.11C248.983 187.96 245.406 190.509 245.406 194.806V203.95Z" fill="black"/>
<path d="M261.236 191.528L258.367 191.468C249.613 191.258 242.677 183.713 242.867 174.599C242.867 164.665 250.562 156.61 260.096 156.52C269.63 156.47 277.405 164.515 277.455 174.409V175.408C277.216 184.533 269.97 191.718 261.236 191.528Z" fill="#BA68C8"/>
<path opacity="0.6" d="M261.236 191.528L258.367 191.468C249.613 191.258 242.677 183.713 242.867 174.599C242.867 164.665 250.562 156.61 260.096 156.52C269.63 156.47 277.405 164.515 277.455 174.409V175.408C277.216 184.533 269.97 191.718 261.236 191.528Z" fill="black"/>
<path d="M247.834 160.668C247.764 160.378 247.636 160.105 247.456 159.868C247.276 159.63 247.049 159.431 246.79 159.285C246.53 159.139 246.243 159.048 245.946 159.017C245.649 158.987 245.35 159.018 245.066 159.109L245.835 162.107C245.676 161.905 245.479 161.735 245.256 161.607C244.996 161.461 244.709 161.37 244.413 161.341C244.116 161.313 243.817 161.346 243.534 161.441C243.252 161.535 242.992 161.687 242.772 161.888C242.552 162.089 242.377 162.334 242.258 162.607L246.155 164.895C246.358 164.504 246.448 164.065 246.415 163.626C246.973 163.392 247.425 162.962 247.687 162.417C247.949 161.871 248.001 161.249 247.834 160.668Z" fill="#BA68C8"/>
<path opacity="0.6" d="M247.834 160.668C247.764 160.378 247.636 160.105 247.456 159.868C247.276 159.63 247.049 159.431 246.79 159.285C246.53 159.139 246.243 159.048 245.946 159.017C245.649 158.987 245.35 159.018 245.066 159.109L245.835 162.107C245.676 161.905 245.479 161.735 245.256 161.607C244.996 161.461 244.709 161.37 244.413 161.341C244.116 161.313 243.817 161.346 243.534 161.441C243.252 161.535 242.992 161.687 242.772 161.888C242.552 162.089 242.377 162.334 242.258 162.607L246.155 164.895C246.358 164.504 246.448 164.065 246.415 163.626C246.973 163.392 247.425 162.962 247.687 162.417C247.949 161.871 248.001 161.249 247.834 160.668Z" fill="black"/>
<path d="M252.561 195.986C249.87 196.351 247.201 196.864 244.566 197.525C247.664 205.12 242.807 216.852 242.807 216.852L247.394 230.973C244.226 237.459 241.618 240.677 240.539 245.964C243.457 251.66 264.054 257.097 277.465 246.713C277.465 246.713 277.036 232.292 275.327 223.888C279.714 215.323 279.004 212.805 278.105 209.817C276.016 202.871 271.799 200.203 266.772 195.306L263.774 194.986L252.561 195.986Z" fill="#37474F"/>
<path d="M247.904 236.629C250.392 234.081 255.669 233.351 255.669 233.351L250.822 230.593L245.406 217.512C247.679 213.059 248.802 208.108 248.673 203.111L245.555 202.361C245.935 209.287 242.797 216.862 242.797 216.862L247.384 230.983C244.216 237.469 241.608 240.687 240.529 245.973C242.527 249.871 252.811 253.649 263.404 252.309C249.213 251.35 245.515 239.098 247.904 236.629Z" fill="#263238"/>
<path d="M262.245 252.419L262.825 252.36C262.63 252.363 262.436 252.383 262.245 252.419Z" fill="#E6E6E6"/>
<path d="M271.019 165.375C272.738 166.954 274.887 170.372 274.717 180.365C274.567 188.86 271.939 190.969 270.61 191.578C269.281 192.188 266.732 191.838 264.244 191.418V194.936C264.244 194.936 267.522 198.574 267.322 200.932C267.122 203.291 262.645 204.24 259.417 201.932C257.143 200.209 255.124 198.174 253.42 195.885V185.202C253.42 185.202 251.961 186.691 249.423 184.453C247.424 182.594 246.665 179.456 248.254 177.757C248.662 177.355 249.162 177.059 249.711 176.895C250.26 176.732 250.841 176.705 251.403 176.819C251.964 176.932 252.489 177.182 252.932 177.546C253.374 177.91 253.721 178.377 253.94 178.906C257.749 178.508 261.457 177.439 264.893 175.748C266.826 174.819 268.439 173.337 269.53 171.491C270.62 169.644 271.138 167.516 271.019 165.375Z" fill="#FFBDA7"/>
<path d="M264.234 178.457C264.234 178.651 264.177 178.841 264.07 179.003C263.963 179.165 263.812 179.293 263.633 179.37C263.455 179.448 263.259 179.472 263.067 179.439C262.876 179.407 262.698 179.319 262.555 179.187C262.413 179.055 262.312 178.885 262.265 178.696C262.218 178.508 262.226 178.31 262.29 178.127C262.354 177.943 262.469 177.782 262.623 177.663C262.776 177.544 262.961 177.473 263.155 177.457C263.429 177.452 263.695 177.553 263.896 177.739C264.098 177.926 264.219 178.183 264.234 178.457Z" fill="#263238"/>
<path d="M264.623 185.532L267.292 186.402C267.249 186.584 267.17 186.755 267.058 186.906C266.947 187.056 266.806 187.182 266.644 187.276C266.482 187.369 266.302 187.429 266.116 187.45C265.93 187.472 265.742 187.455 265.563 187.401C265.2 187.265 264.901 186.997 264.727 186.651C264.553 186.304 264.516 185.905 264.623 185.532Z" fill="#F79776"/>
<path d="M273.888 174.629L271.459 173.799C271.497 173.637 271.569 173.485 271.67 173.353C271.771 173.22 271.899 173.11 272.045 173.03C272.191 172.95 272.352 172.901 272.518 172.888C272.684 172.874 272.851 172.895 273.008 172.95C273.336 173.072 273.607 173.311 273.769 173.621C273.932 173.931 273.974 174.29 273.888 174.629Z" fill="#263238"/>
<path d="M253.95 177.957V181.544C254.18 181.554 254.41 181.516 254.625 181.434C254.84 181.352 255.036 181.226 255.201 181.065C255.366 180.904 255.496 180.711 255.583 180.498C255.67 180.285 255.713 180.056 255.709 179.826C255.712 179.348 255.531 178.887 255.204 178.539C254.876 178.191 254.427 177.982 253.95 177.957Z" fill="#BA68C8"/>
<path opacity="0.6" d="M253.95 177.957V181.544C254.18 181.554 254.41 181.516 254.625 181.434C254.84 181.352 255.036 181.226 255.201 181.065C255.366 180.904 255.496 180.711 255.583 180.498C255.67 180.285 255.713 180.056 255.709 179.826C255.712 179.348 255.531 178.887 255.204 178.539C254.876 178.191 254.427 177.982 253.95 177.957Z" fill="black"/>
<path d="M273.009 178.107C273.031 178.395 272.938 178.679 272.751 178.898C272.563 179.118 272.297 179.254 272.009 179.277C271.789 179.298 271.567 179.253 271.373 179.148C271.178 179.043 271.019 178.881 270.917 178.685C270.815 178.489 270.774 178.267 270.799 178.047C270.824 177.827 270.914 177.62 271.058 177.451C271.201 177.283 271.392 177.162 271.606 177.103C271.819 177.044 272.045 177.05 272.255 177.12C272.464 177.191 272.648 177.323 272.783 177.498C272.917 177.674 272.996 177.886 273.009 178.107Z" fill="#263238"/>
<path d="M267.312 176.658L267.292 183.613L270.53 182.544L267.312 176.658Z" fill="#F79776"/>
<path d="M264.244 191.458C261.615 191.118 256.249 189.529 255.359 187.311C255.697 188.424 256.362 189.409 257.268 190.139C258.887 191.568 264.264 193.137 264.264 193.137L264.244 191.458Z" fill="#F79776"/>
<path d="M232.264 231.503C232.264 231.503 238.68 240.617 239.779 241.806C240.878 242.995 241.638 242.596 242.827 242.066C244.278 241.48 245.767 240.996 247.284 240.617C249.283 240.127 249.663 241.936 247.724 243.225C246.325 244.165 244.726 244.564 245.386 245.334C246.753 246.572 248.339 247.545 250.063 248.202C254.8 250.071 254.43 251.01 253.56 252.539C252.801 253.878 250.562 256.757 242.128 253.359C238.63 251.95 233.713 247.962 231.394 245.364C228.047 241.656 222.82 235.011 222.82 235.011L232.264 231.503Z" fill="#FFBDA7"/>
<path d="M245.795 197.195C243.477 197.344 239.11 197.904 233.633 206.998C228.826 214.993 221.381 225.796 220.002 229.664C219.442 231.233 221.621 234.481 224.429 237.809C228.256 237.639 231.744 234.991 233.553 232.872C233.078 231.745 232.489 230.67 231.794 229.664L243.027 216.852C243.027 216.852 247.294 212.945 248.184 207.858C249.143 202.341 248.843 198.004 245.795 197.195Z" fill="#455A64"/>
<path d="M308.686 214.444L280.993 221.739L273.368 253.069L299.701 245.424L308.686 214.444Z" fill="#BA68C8"/>
<path opacity="0.25" d="M308.686 214.444L280.993 221.739L273.368 253.069L299.701 245.424L308.686 214.444Z" fill="black"/>
<g opacity="0.1">
<path opacity="0.1" d="M296.174 236.63C296.637 237.597 297.375 238.407 298.296 238.957C299.216 239.508 300.279 239.776 301.35 239.728L301.55 239.038L296.174 236.63Z" fill="black"/>
</g>
<g opacity="0.1">
<path opacity="0.1" d="M300.341 219.42L300.571 218.361C300.701 217.782 299.072 217.752 296.943 218.361L292.856 219.36C290.727 219.92 288.858 220.84 288.768 221.419L288.548 222.478L300.341 219.42Z" fill="black"/>
</g>
<path d="M302.47 215.453C302.55 215.083 301.89 214.983 301.001 215.233L299.382 215.683C299.382 215.683 299.861 213.394 296.284 214.194C295.323 214.335 294.415 214.722 293.649 215.318C292.882 215.913 292.282 216.696 291.906 217.592L290.187 218.081C289.188 218.351 288.369 218.861 288.259 219.221L288.049 219.88L302.32 216.123L302.47 215.453Z" fill="#37474F"/>
<path d="M300.501 216.572C299.202 216.892 298.652 217.062 298.502 217.961C298.352 218.861 298.182 219.74 298.182 219.74L291.876 221.409C291.876 221.409 292.186 220.11 292.286 219.61C292.386 219.111 292.166 218.791 291.157 219.061L291.077 218.661L300.971 216.133L300.501 216.572Z" fill="#37474F"/>
<path d="M300.721 219.51L300.951 218.451C301.08 217.871 299.452 217.841 297.323 218.451L293.235 219.45C291.107 220.01 289.238 220.929 289.148 221.509L288.928 222.568L300.721 219.51Z" fill="#37474F"/>
<path d="M305.768 224.507C305.768 224.507 304.768 228.055 304.498 228.894C304.229 229.734 301.15 231.263 299.122 231.823C297.093 232.382 294.854 233.042 295.824 235.89C296.703 238.518 300.061 239.118 301.76 239.038C303.459 238.958 305.808 237.339 306.757 234.711C307.926 231.353 307.297 227.775 307.756 225.816C308.216 223.858 306.787 223.338 305.768 224.507Z" fill="#FFBDA7"/>
<path d="M200.864 225.337C197.066 221.509 195.707 222.998 195.227 227.196C195.049 228.956 194.622 230.682 193.958 232.322C193.84 231.451 193.601 230.6 193.248 229.794C193.081 229.358 192.756 229.001 192.337 228.796C191.918 228.59 191.437 228.55 190.99 228.685C190.62 228.834 191.08 229.684 190.99 231.353C190.92 233.432 190.24 234.581 190.73 236.789C190.9 237.62 190.769 238.485 190.36 239.228C188.361 243.025 181.776 250.041 177.158 255.098L159.62 239.258C153.623 233.861 151.684 231.433 145.898 231.823C147.708 232.509 149.376 233.526 150.815 234.821C153.503 237.089 152.864 250.071 152.864 250.071C152.864 250.071 172.771 264.342 174.85 265.701C175.15 265.901 175.46 266.081 175.759 266.251C176.742 266.763 177.869 266.928 178.957 266.719C180.046 266.511 181.032 265.941 181.756 265.101C186.003 260.245 192.199 250.681 195.747 245.714C197.369 243.31 198.815 240.791 200.074 238.179C203.632 231.113 203.242 227.735 200.864 225.337Z" fill="#914F4E"/>
<path d="M146.518 231.503C147.916 231.249 149.352 231.295 150.731 231.64C152.109 231.985 153.399 232.619 154.513 233.502C157.931 236.1 172.501 249.492 172.501 249.492C172.501 249.492 172.901 256.577 165.506 260.794L147.647 248.202L146.518 231.503Z" fill="#BA68C8"/>
<path opacity="0.3" d="M146.518 231.503C147.916 231.249 149.352 231.295 150.731 231.64C152.109 231.985 153.399 232.619 154.513 233.502C157.931 236.1 172.501 249.492 172.501 249.492C172.501 249.492 172.901 256.577 165.506 260.794L147.647 248.202L146.518 231.503Z" fill="black"/>
<path d="M129.279 391.361H121.713V404.853H129.279V391.361Z" fill="#914F4E"/>
<path d="M147.947 390.642L155.512 390.912L155.892 376.631L147.947 376.361V390.642Z" fill="#914F4E"/>
<path d="M120.644 274.546C120.644 282.071 121.753 342.642 121.753 342.642C121.583 344.801 119.635 348.798 120.054 357.113C120.624 368.416 121.394 398.087 121.394 398.087C122.693 398.753 124.127 399.114 125.586 399.143C127.046 399.172 128.493 398.869 129.818 398.257C129.818 398.257 136.974 357.133 138.333 345.94C139.512 336.166 141.521 303.267 141.521 303.267L145.618 341.523C144.745 345.636 144.429 349.848 144.679 354.045C145.039 359.222 147.467 386.195 147.467 386.195C148.775 386.969 150.243 387.434 151.758 387.555C153.274 387.676 154.797 387.45 156.212 386.894C156.212 386.894 160.509 346.27 160.599 341.523C160.699 336.106 158.08 274.446 158.08 274.446L120.644 274.546Z" fill="#37474F"/>
<path d="M129.279 400.955V399.836C130.008 400.166 131.687 406.832 134.685 409.7C137.074 411.968 140.332 414.587 141.161 417.115C141.991 419.643 136.624 421.192 134.395 420.783C131.807 420.303 127.31 418.404 126.191 416.645C125.071 414.886 124.532 412.278 123.612 410.989C122.693 409.7 120.614 408.261 120.094 406.762C119.946 405.368 120.092 403.958 120.524 402.624C120.874 401.235 121.254 399.706 121.713 399.836V400.695C122.781 401.569 124.122 402.04 125.501 402.025C126.6 402.065 129.289 401.835 129.279 400.955Z" fill="#263238"/>
<path d="M155.592 388.483C155.982 388.483 156.302 389.073 157.171 390.052C158.456 391.404 159.959 392.529 161.618 393.38C164.456 394.859 169.963 397.138 172.461 398.307C174.02 399.036 173.94 400.995 172.331 402.104C170.722 403.214 166.835 404.023 162.168 402.944C159.629 402.344 156.312 399.946 154.173 400.036C152.034 400.126 148.177 400.136 146.608 399.036C145.039 397.937 145.678 395.549 146.118 393.52C146.598 391.291 147.197 387.824 147.897 387.974V388.743C148.806 390.182 153.503 390.742 155.502 389.742L155.592 388.483Z" fill="#263238"/>
<path d="M141.521 303.287C145.458 302.002 149.057 299.85 152.054 296.991C152.054 296.991 150.055 300.989 143.979 304.647L145.268 338.815L141.521 303.287Z" fill="#263238"/>
<path d="M124.582 233.502C124.582 233.502 118.665 234.041 119.085 245.324L120.394 263.313L120.274 290.296C125.831 296.602 150.505 296.142 158.95 289.786C158.95 289.786 158.08 257.876 157.511 245.594C157.101 236.869 155.092 232.472 146.518 231.513L135.964 231.973L124.582 233.502Z" fill="#BA68C8"/>
<path opacity="0.3" d="M141.401 239.418L142.76 248.892L145.928 248.832L142.35 249.392L141.401 239.418Z" fill="black"/>
<path d="M105.803 272.237C108.871 247.553 115.937 235.26 124.542 233.841L123.932 249.631C120.349 258.052 117.604 266.806 115.737 275.765C114.608 281.841 113.299 292.404 113.638 297.591C113.706 298.505 114.096 299.365 114.738 300.019C116.437 301.748 116.946 303.247 118.086 305.196C118.985 306.725 119.904 307.265 119.665 307.635C119.355 308.023 118.907 308.276 118.414 308.34C117.922 308.403 117.424 308.272 117.026 307.974C116.124 307.335 115.299 306.594 114.568 305.766C114.458 308.118 114.882 310.466 115.807 312.631C117.806 316.789 117.486 318.977 111.91 317.748C108.412 316.989 105.913 313.301 104.914 304.696C104.651 301.485 104.594 298.261 104.744 295.043C105.124 286.818 105.194 277.174 105.803 272.237Z" fill="#914F4E"/>
<path d="M125.031 233.432C120.564 233.432 116.487 234.201 113.239 240.427C110.131 246.423 107.742 259.105 106.533 263.253C106.533 263.253 113.059 267.11 119.065 267.01L123.292 252.34C123.292 252.34 126.151 245.494 125.031 233.432Z" fill="#BA68C8"/>
<path opacity="0.3" d="M125.031 233.432C120.564 233.432 116.487 234.201 113.239 240.427C110.131 246.423 107.742 259.105 106.533 263.253C106.533 263.253 113.059 267.11 119.065 267.01L123.292 252.34C123.292 252.34 126.151 245.494 125.031 233.432Z" fill="black"/>
<path d="M134.255 208.028C134.346 210.236 135.083 212.369 136.375 214.162C137.668 215.954 139.459 217.327 141.526 218.11C143.592 218.893 145.844 219.051 148 218.565C150.155 218.078 152.121 216.969 153.651 215.375C155.182 213.781 156.21 211.772 156.608 209.598C157.006 207.424 156.756 205.181 155.889 203.148C155.022 201.115 153.577 199.381 151.734 198.163C149.89 196.945 147.728 196.295 145.518 196.295C142.47 196.361 139.572 197.633 137.461 199.833C135.349 202.032 134.197 204.979 134.255 208.028Z" fill="#263238"/>
<path d="M127.09 213.894C127.09 213.894 128.819 222.349 129.508 223.738C129.958 224.588 130.722 225.23 131.637 225.527L131.507 219.531L127.09 213.894Z" fill="#263238"/>
<path d="M129.259 201.782C129.259 201.782 127.979 201.522 126.7 203.521C125.571 205.28 125.321 209.237 127.09 213.884L130.338 214.274L129.259 201.782Z" fill="#263238"/>
<path d="M131.317 214.284C130.668 214.694 129.738 213.385 128.929 212.515C128.119 211.646 125.501 210.436 124.192 213.315C122.883 216.193 125.341 220.12 127.41 220.79C130.978 221.959 131.507 219.571 131.507 219.571L131.787 232.972C136.514 240.287 147.237 240.028 143.38 232.612V228.505C144.968 228.769 146.58 228.856 148.187 228.765C150.805 228.345 152.454 226.186 153.253 223.228C154.533 218.481 155.012 214.654 153.933 205.32C152.744 195.086 141.321 194.976 135.145 199.024C128.969 203.071 131.317 214.284 131.317 214.284Z" fill="#914F4E"/>
<path d="M131.727 229.964C132.827 232.214 134.406 234.196 136.354 235.77C138.012 236.992 139.931 237.81 141.961 238.159C140.288 239.292 138.916 240.815 137.963 242.596C136.784 245.204 128.449 238.039 128.529 232.952C128.529 232.952 129.838 227.845 131.627 227.515L131.727 229.964Z" fill="#263238"/>
<path d="M141.971 238.159C141.971 238.159 144.539 236.88 143.39 232.612V228.505L144.519 228.655C145.835 229.937 146.769 231.56 147.217 233.342C147.477 234.511 148.117 240.427 146.987 241.597C145.858 242.766 144.269 238.499 141.971 238.159Z" fill="#263238"/>
<path d="M131.317 215.433C130.988 215.433 129.738 213.284 128.929 212.515C127.8 211.446 129.259 201.782 129.259 201.782C128.964 200.948 128.91 200.048 129.1 199.184C129.291 198.32 129.72 197.527 130.338 196.895C131.887 195.126 134.465 194.896 138.863 194.217C140.618 194.001 142.36 193.684 144.079 193.267C145.895 192.588 147.641 191.738 149.296 190.729C149.816 190.391 150.44 190.25 151.055 190.329C151.339 190.425 151.592 190.593 151.791 190.818C151.989 191.042 152.125 191.315 152.184 191.608C152.284 192.194 152.284 192.792 152.184 193.377C152.74 192.86 153.478 192.584 154.237 192.611C154.996 192.637 155.713 192.963 156.232 193.517C156.722 194.102 157.042 194.811 157.155 195.565C157.268 196.32 157.17 197.092 156.871 197.794C156.233 199.192 155.188 200.366 153.873 201.162C148.347 204.9 141.821 203.86 135.625 203.161C135.332 203.095 135.026 203.116 134.745 203.221C133.746 203.661 133.566 206.669 133.396 207.538C132.896 210.436 132.417 215.413 131.317 215.433Z" fill="#263238"/>
<path d="M129.259 202.291L125.321 200.083C125.44 199.81 125.616 199.565 125.836 199.364C126.056 199.164 126.315 199.011 126.598 198.917C126.881 198.823 127.18 198.789 127.476 198.818C127.773 198.846 128.06 198.937 128.319 199.084C128.843 199.409 129.228 199.917 129.401 200.508C129.574 201.1 129.524 201.735 129.259 202.291Z" fill="#263238"/>
<path d="M143.37 228.505C143.37 228.505 137.523 227.276 135.475 226.146C134.259 225.482 133.273 224.464 132.646 223.228C132.951 224.469 133.498 225.637 134.255 226.666C135.745 228.665 143.37 230.134 143.37 230.134V228.505Z" fill="#783736"/>
<path d="M141.252 212.415C141.259 212.576 141.234 212.736 141.179 212.886C141.123 213.037 141.039 213.175 140.93 213.293C140.822 213.411 140.691 213.506 140.545 213.573C140.4 213.641 140.242 213.679 140.082 213.685C139.759 213.667 139.455 213.523 139.237 213.284C139.018 213.045 138.902 212.729 138.913 212.405C138.913 212.095 139.036 211.798 139.255 211.578C139.475 211.359 139.772 211.236 140.082 211.236C140.392 211.236 140.69 211.359 140.909 211.578C141.129 211.798 141.252 212.095 141.252 212.405V212.415Z" fill="#263238"/>
<path d="M139.242 207.338L136.734 208.777C136.553 208.421 136.513 208.01 136.62 207.626C136.727 207.241 136.975 206.91 137.314 206.699C137.48 206.606 137.665 206.549 137.855 206.531C138.045 206.513 138.237 206.535 138.418 206.595C138.6 206.655 138.767 206.752 138.908 206.88C139.05 207.008 139.164 207.164 139.242 207.338Z" fill="#263238"/>
<path d="M142.84 221.199L145.518 222.249C145.466 222.433 145.375 222.604 145.254 222.751C145.132 222.899 144.98 223.02 144.81 223.106C144.639 223.192 144.452 223.242 144.261 223.253C144.07 223.264 143.879 223.235 143.7 223.168C143.334 223.009 143.043 222.718 142.883 222.353C142.724 221.987 142.709 221.576 142.84 221.199Z" fill="#783736"/>
<path d="M152.964 208.738L150.325 207.458C150.39 207.28 150.492 207.116 150.624 206.98C150.756 206.843 150.915 206.736 151.092 206.665C151.268 206.594 151.458 206.562 151.648 206.569C151.838 206.577 152.024 206.624 152.194 206.709C152.551 206.892 152.827 207.2 152.969 207.575C153.111 207.95 153.109 208.364 152.964 208.738Z" fill="#263238"/>
<path d="M151.235 212.415C151.25 212.578 151.231 212.743 151.179 212.899C151.126 213.054 151.042 213.197 150.932 213.318C150.821 213.439 150.687 213.536 150.537 213.602C150.387 213.669 150.224 213.703 150.06 213.703C149.896 213.703 149.734 213.669 149.584 213.602C149.434 213.536 149.3 213.439 149.189 213.318C149.079 213.197 148.995 213.054 148.942 212.899C148.89 212.743 148.871 212.578 148.886 212.415C148.88 212.256 148.905 212.096 148.96 211.946C149.015 211.796 149.1 211.659 149.208 211.542C149.317 211.425 149.448 211.33 149.593 211.264C149.739 211.198 149.896 211.161 150.055 211.156C150.378 211.169 150.682 211.308 150.903 211.544C151.124 211.78 151.243 212.092 151.235 212.415Z" fill="#263238"/>
<path d="M144.589 211.506L144.719 218.911L148.926 217.952L144.589 211.506Z" fill="#783736"/>
<path d="M139.442 209.357C138.666 209.357 137.921 209.665 137.372 210.215C136.823 210.764 136.514 211.509 136.514 212.285C136.514 213.062 136.823 213.806 137.372 214.356C137.921 214.905 138.666 215.213 139.442 215.213H139.972C140.748 215.213 141.493 214.905 142.042 214.356C142.592 213.806 142.9 213.062 142.9 212.285C142.9 211.509 142.592 210.764 142.042 210.215C141.493 209.665 140.748 209.357 139.972 209.357H139.442ZM135.974 212.285C135.966 211.359 136.326 210.468 136.974 209.806C137.622 209.145 138.506 208.768 139.432 208.757H139.972C140.821 208.869 141.6 209.285 142.165 209.929C142.729 210.572 143.041 211.399 143.041 212.255C143.041 213.111 142.729 213.938 142.165 214.582C141.6 215.225 140.821 215.642 139.972 215.753H139.442C138.524 215.748 137.645 215.381 136.996 214.731C136.347 214.082 135.98 213.203 135.974 212.285Z" fill="#263238"/>
<path d="M149.966 209.357C149.189 209.357 148.444 209.665 147.895 210.215C147.346 210.764 147.037 211.509 147.037 212.285C147.037 213.062 147.346 213.806 147.895 214.356C148.444 214.905 149.189 215.213 149.966 215.213H150.495C151.272 215.213 152.017 214.905 152.566 214.356C153.115 213.806 153.423 213.062 153.423 212.285C153.423 211.509 153.115 210.764 152.566 210.215C152.017 209.665 151.272 209.357 150.495 209.357H149.966ZM146.508 212.285C146.5 211.359 146.859 210.468 147.507 209.806C148.156 209.145 149.04 208.768 149.966 208.757H150.495C151.344 208.869 152.124 209.285 152.688 209.929C153.253 210.572 153.564 211.399 153.564 212.255C153.564 213.111 153.253 213.938 152.688 214.582C152.124 215.225 151.344 215.642 150.495 215.753H149.966C149.053 215.74 148.181 215.369 147.539 214.721C146.896 214.073 146.533 213.198 146.528 212.285H146.508Z" fill="#263238"/>
<path d="M143.39 211.586C143.599 211.296 143.874 211.058 144.191 210.894C144.509 210.729 144.861 210.641 145.219 210.636C145.514 210.604 145.812 210.644 146.089 210.752C146.365 210.86 146.612 211.033 146.808 211.256L147.277 210.896C147.028 210.591 146.706 210.354 146.341 210.206C145.976 210.057 145.58 210.003 145.189 210.047C144.735 210.051 144.289 210.166 143.889 210.38C143.488 210.594 143.146 210.901 142.89 211.276L143.39 211.586Z" fill="#263238"/>
<path d="M136.294 211.556H130.338V212.145H136.294V211.556Z" fill="#263238"/>
</svg>
