<svg width="1440" height="1024" viewBox="0 0 1440 1024" fill="none" xmlns="http://www.w3.org/2000/svg">
<path opacity="0.2" d="M460.18 925.281C169.879 946.262 35.4754 858.911 0 828.793V703.303H1440V942.571C1203.66 1138.89 895.435 887.316 663.04 908.549C522.637 921.377 529.632 920.261 460.18 925.281Z" fill="url(#paint0_linear)"/>
<path opacity="0.1" d="M0.999268 2.23071H1440V1024C1116.22 851.102 1062.26 1113.8 629.563 973.804C409.643 902.653 294.795 836.043 0.999268 907.433V2.23071Z" fill="url(#paint1_linear)"/>
<path opacity="0.2" d="M1440 2.23071H0.999268V825.446C423.706 785.29 398.223 1035.15 814.934 949.263C1040.1 902.853 1226.65 1028.46 1440 940.34V2.23071Z" fill="url(#paint2_linear)"/>
<path d="M0.999268 0H1440V942.571C1116.22 769.673 1062.26 1032.37 629.563 892.375C409.643 821.224 294.795 754.614 0.999268 826.004V0Z" fill="url(#paint3_linear)"/>
<defs>
<linearGradient id="paint0_linear" x1="42.4702" y1="616.855" x2="1701.71" y2="1019.32" gradientUnits="userSpaceOnUse">
<stop stop-color="#151515"/>
<stop offset="1" stop-color="#008288"/>
</linearGradient>
<linearGradient id="paint1_linear" x1="0.999248" y1="11.1545" x2="1969.03" y2="1124.88" gradientUnits="userSpaceOnUse">
<stop stop-color="#151515"/>
<stop offset="1" stop-color="#008288"/>
</linearGradient>
<linearGradient id="paint2_linear" x1="82.4428" y1="851.102" x2="1548.44" y2="-165.433" gradientUnits="userSpaceOnUse">
<stop stop-color="#151515"/>
<stop offset="1" stop-color="#008288"/>
</linearGradient>
<linearGradient id="paint3_linear" x1="0.999371" y1="-70.2747" x2="1969.03" y2="1043.45" gradientUnits="userSpaceOnUse">
<stop stop-color="#151515"/>
<stop offset="1" stop-color="#008288"/>
</linearGradient>
</defs>
</svg>
