<svg width="801" height="1024" viewBox="0 0 801 1024" fill="none" xmlns="http://www.w3.org/2000/svg">
<path opacity="0.2" d="M720.523 253.367C738.545 -36.8384 671.039 -171.622 647.703 -207.229L549.642 -207.778L541.576 1232.2L728.545 1233.25C883.28 997.774 688.419 688.449 706.312 456.15C717.123 315.806 716.212 322.796 720.523 253.367Z" fill="url(#paint0_linear)"/>
<path opacity="0.1" d="M1.80371 -209.847L-6.25676 1229.13L792.176 1233.6C658.883 909.077 864.46 856.265 757.491 422.959C703.124 202.731 651.717 87.5939 709.149 -205.885L1.80371 -209.847Z" fill="url(#paint1_linear)"/>
<path opacity="0.2" d="M-6.25677 1229.13L1.8037 -209.847L645.082 -206.244C611.335 216.28 806.728 191.892 737.276 608.22C699.749 833.178 796.858 1020.27 726.802 1233.24L-6.25677 1229.13Z" fill="url(#paint2_linear)"/>
<path d="M0.0604858 -209.857L-7.99999 1229.12L728.545 1233.25C595.253 908.72 800.829 855.908 693.861 422.603C639.494 202.375 588.087 87.2375 645.518 -206.241L0.0604858 -209.857Z" fill="url(#paint3_linear)"/>
<g clip-path="url(#clip0)">
<path d="M169.839 499.091C159.498 499.091 151.511 496.693 145.876 491.896C140.314 487.028 137.568 479.763 137.639 470.098H155.076C155.005 474.119 156.217 477.188 158.714 479.304C161.21 481.42 164.704 482.478 169.197 482.478C172.906 482.478 175.83 481.879 177.969 480.68C180.109 479.48 181.179 477.646 181.179 475.177C181.179 473.132 180.073 471.65 177.863 470.733C175.723 469.816 173.583 469.181 171.444 468.828C169.304 468.405 167.985 468.158 167.486 468.088C161.994 467.03 157.252 465.76 153.258 464.278C149.264 462.727 145.912 460.399 143.202 457.295C140.492 454.191 139.137 450.099 139.137 445.02C139.137 439.941 140.492 435.638 143.202 432.111C145.912 428.513 149.514 425.833 154.007 424.069C158.571 422.306 163.528 421.424 168.876 421.424C175.366 421.424 180.965 422.623 185.672 425.022C190.45 427.42 194.194 431.053 196.904 435.92C198.259 438.248 199.08 440.506 199.365 442.692C199.65 444.809 199.793 446.89 199.793 448.935H182.356C182.356 445.126 181.322 442.34 179.253 440.576C177.185 438.742 173.976 437.825 169.625 437.825C166.131 437.825 163.421 438.425 161.495 439.624C159.569 440.823 158.607 442.445 158.607 444.491C158.607 446.749 159.89 448.406 162.458 449.465C165.025 450.523 168.27 451.475 172.193 452.322C178.611 453.591 183.604 454.826 187.169 456.025C190.807 457.154 193.945 459.199 196.583 462.162C199.222 465.125 200.542 469.287 200.542 474.648C200.542 479.727 199.115 484.101 196.263 487.769C193.41 491.437 189.63 494.259 184.923 496.234C180.287 498.139 175.259 499.091 169.839 499.091ZM224.636 423.54V473.378L275.129 423.54H280.692L249.562 454.226L280.585 497.187H275.878L246.781 456.977L224.636 478.881V497.187H220.678V423.54H224.636ZM351.856 423.54V427.455H329.606V493.272H351.856V497.187H303.61V493.272H325.754V427.455H303.61V423.54H351.856ZM383.868 497.187V423.54H387.826V493.272H439.71V497.187H383.868ZM463.056 497.187V423.54H467.014V493.272H518.898V497.187H463.056ZM566.849 461.951C560.786 460.751 555.831 459.446 551.979 458.035C548.199 456.554 545.204 454.579 542.993 452.11C540.854 449.57 539.784 446.325 539.784 442.375C539.784 438.284 540.854 434.686 542.993 431.582C545.204 428.478 548.27 426.08 552.193 424.387C556.186 422.694 560.786 421.847 565.993 421.847C570.985 421.847 575.549 422.905 579.686 425.022C583.893 427.067 587.209 429.959 589.635 433.698C592.059 437.437 593.273 441.705 593.273 446.502H589.314C589.314 442.34 588.279 438.672 586.212 435.497C584.143 432.323 581.325 429.889 577.761 428.196C574.194 426.432 570.236 425.551 565.886 425.551C562.035 425.551 558.432 426.15 555.082 427.349C551.729 428.549 548.984 430.383 546.845 432.852C544.776 435.321 543.742 438.425 543.742 442.163C543.742 445.549 544.739 448.265 546.738 450.311C548.734 452.286 551.338 453.803 554.547 454.861C557.756 455.919 562.249 457.048 568.026 458.247C573.873 459.446 578.403 460.61 581.612 461.739C584.892 462.797 587.637 464.596 589.849 467.135C592.13 469.675 593.273 473.237 593.273 477.823C593.273 482.408 592.023 486.288 589.528 489.462C587.102 492.566 583.859 494.894 579.793 496.446C575.728 497.998 571.306 498.774 566.528 498.774C560.608 498.774 555.403 497.68 550.91 495.494C546.417 493.307 542.957 490.238 540.533 486.288C538.18 482.267 537.003 477.682 537.003 472.532H540.961C540.961 477.047 541.958 480.997 543.956 484.383C546.023 487.769 548.984 490.415 552.835 492.319C556.686 494.153 561.25 495.07 566.528 495.07C573.088 495.07 578.51 493.518 582.789 490.415C587.138 487.311 589.314 483.078 589.314 477.717C589.314 474.049 588.386 471.227 586.533 469.252C584.678 467.277 582.325 465.866 579.473 465.019C576.691 464.102 572.483 463.079 566.849 461.951ZM204.393 603.001H134.216L169.304 527.767L204.393 603.001ZM140.421 599.085H198.188L169.304 537.078L140.421 599.085ZM227.739 603.001H223.781V529.354H253.734C258.726 529.354 263.326 530.412 267.534 532.528C271.813 534.645 275.201 537.643 277.697 541.523C280.193 545.402 281.441 549.882 281.441 554.961C281.441 559.828 280.157 564.308 277.59 568.399C275.094 572.491 271.671 575.63 267.32 577.817C263.54 579.722 259.012 580.674 253.734 580.674H227.739V603.001ZM227.739 576.759H253.734C258.299 576.759 262.043 576.053 264.967 574.642C268.747 572.879 271.778 570.234 274.06 566.706C276.342 563.179 277.483 559.264 277.483 554.961C277.483 550.728 276.342 546.849 274.06 543.322C271.778 539.794 268.711 537.149 264.86 535.385C261.936 533.975 258.227 533.269 253.734 533.269H227.739V576.759ZM306.927 603.001H302.968V529.354H332.922C337.914 529.354 342.514 530.412 346.722 532.528C351 534.645 354.389 537.643 356.884 541.523C359.381 545.402 360.628 549.882 360.628 554.961C360.628 559.828 359.344 564.308 356.777 568.399C354.282 572.491 350.859 575.63 346.508 577.817C342.728 579.722 338.199 580.674 332.922 580.674H306.927V603.001ZM306.927 576.759H332.922C337.486 576.759 341.231 576.053 344.154 574.642C347.934 572.879 350.966 570.234 353.247 566.706C355.53 563.179 356.67 559.264 356.67 554.961C356.67 550.728 355.53 546.849 353.247 543.322C350.966 539.794 347.899 537.149 344.048 535.385C341.124 533.975 337.415 533.269 332.922 533.269H306.927V576.759ZM383.868 603.001V529.354H387.826V599.085H439.71V603.001H383.868ZM459.74 529.354L486.163 568.717L512.372 529.354H517.079L488.089 572.844V603.001H484.131V572.844L455.033 529.354H459.74Z" fill="white"/>
</g>
<defs>
<linearGradient id="paint0_linear" x1="481.852" y1="-165.687" x2="970.281" y2="1439.54" gradientUnits="userSpaceOnUse">
<stop stop-color="#151515"/>
<stop offset="1" stop-color="#008288"/>
</linearGradient>
<linearGradient id="paint1_linear" x1="8.77692" y1="-209.808" x2="1233.53" y2="1501.49" gradientUnits="userSpaceOnUse">
<stop stop-color="#151515"/>
<stop offset="1" stop-color="#008288"/>
</linearGradient>
<linearGradient id="paint2_linear" x1="664.674" y1="-124.689" x2="-419.841" y2="1083.79" gradientUnits="userSpaceOnUse">
<stop stop-color="#151515"/>
<stop offset="1" stop-color="#008288"/>
</linearGradient>
<linearGradient id="paint3_linear" x1="-54.8537" y1="-210.164" x2="1169.9" y2="1501.14" gradientUnits="userSpaceOnUse">
<stop stop-color="#151515"/>
<stop offset="1" stop-color="#008288"/>
</linearGradient>
<clipPath id="clip0">
<rect width="460" height="182" fill="white" transform="translate(134 421)"/>
</clipPath>
</defs>
</svg>
