<svg width="801" height="1024" viewBox="0 0 801 1024" fill="none" xmlns="http://www.w3.org/2000/svg">
<path opacity="0.2" d="M720.523 253.367C738.545 -36.8384 671.039 -171.622 647.703 -207.229L549.642 -207.778L541.576 1232.2L728.545 1233.25C883.28 997.774 688.419 688.449 706.312 456.15C717.123 315.806 716.212 322.796 720.523 253.367Z" fill="url(#paint0_linear)"/>
<path opacity="0.1" d="M1.80371 -209.847L-6.25676 1229.13L792.176 1233.6C658.884 909.077 864.46 856.265 757.491 422.959C703.124 202.731 651.717 87.5939 709.149 -205.885L1.80371 -209.847Z" fill="url(#paint1_linear)"/>
<path opacity="0.2" d="M-6.25684 1229.13L1.80364 -209.847L645.082 -206.244C611.335 216.28 806.728 191.892 737.276 608.22C699.749 833.178 796.858 1020.27 726.802 1233.24L-6.25684 1229.13Z" fill="url(#paint2_linear)"/>
<path d="M0.0605469 -209.857L-7.99993 1229.12L728.545 1233.25C595.253 908.72 800.829 855.908 693.861 422.603C639.494 202.375 588.087 87.2375 645.518 -206.241L0.0605469 -209.857Z" fill="url(#paint3_linear)"/>
<defs>
<linearGradient id="paint0_linear" x1="481.852" y1="-165.687" x2="970.281" y2="1439.54" gradientUnits="userSpaceOnUse">
<stop stop-color="#151515"/>
<stop offset="1" stop-color="#008288"/>
</linearGradient>
<linearGradient id="paint1_linear" x1="8.77692" y1="-209.808" x2="1233.53" y2="1501.49" gradientUnits="userSpaceOnUse">
<stop stop-color="#151515"/>
<stop offset="1" stop-color="#008288"/>
</linearGradient>
<linearGradient id="paint2_linear" x1="664.674" y1="-124.689" x2="-419.841" y2="1083.79" gradientUnits="userSpaceOnUse">
<stop stop-color="#151515"/>
<stop offset="1" stop-color="#008288"/>
</linearGradient>
<linearGradient id="paint3_linear" x1="-54.8537" y1="-210.164" x2="1169.9" y2="1501.14" gradientUnits="userSpaceOnUse">
<stop stop-color="#151515"/>
<stop offset="1" stop-color="#008288"/>
</linearGradient>
</defs>
</svg>
