<svg width="488" height="567" viewBox="0 0 488 567" fill="none" xmlns="http://www.w3.org/2000/svg">
<path d="M243.554 566.035C378.065 566.035 487.108 504.09 487.108 427.677C487.108 351.264 378.065 289.319 243.554 289.319C109.043 289.319 0 351.264 0 427.677C0 504.09 109.043 566.035 243.554 566.035Z" fill="#F5F5F5"/>
<path d="M344.906 514.914L163.102 409.94C161.503 409.019 160.175 407.692 159.251 406.094C158.328 404.496 157.841 402.683 157.841 400.837C157.841 398.991 158.328 397.178 159.251 395.58C160.175 393.982 161.503 392.655 163.102 391.734L181.037 380.424C184.133 378.641 187.643 377.703 191.215 377.703C194.788 377.703 198.298 378.641 201.394 380.424L383.222 485.41C384.821 486.332 386.15 487.658 387.073 489.256C387.997 490.854 388.483 492.668 388.483 494.513C388.483 496.359 387.997 498.172 387.073 499.771C386.15 501.369 384.821 502.695 383.222 503.617L365.287 514.914C362.19 516.706 358.675 517.65 355.097 517.65C351.518 517.65 348.003 516.706 344.906 514.914V514.914Z" fill="#E0E0E0"/>
<path d="M68.4746 419.21C90.264 419.21 107.928 409.067 107.928 396.554C107.928 384.042 90.264 373.898 68.4746 373.898C46.6853 373.898 29.0215 384.042 29.0215 396.554C29.0215 409.067 46.6853 419.21 68.4746 419.21Z" fill="#E6E6E6"/>
<path d="M409.376 424.401L426.68 434.351C426.68 434.351 417.843 406.578 422.552 378.583C424.332 368.003 428.151 362.75 429.486 359.919C430.821 357.089 441.166 339.599 431.958 331.59C422.75 323.581 401.33 339.686 402.492 382.785C403.02 396.892 405.333 410.876 409.376 424.401V424.401Z" fill="#151515"/>
<path opacity="0.5" d="M409.376 424.401L426.68 434.351C426.68 434.351 417.843 406.578 422.552 378.583C424.332 368.003 428.151 362.75 429.486 359.919C430.821 357.089 441.166 339.599 431.958 331.59C422.75 323.581 401.33 339.686 402.492 382.785C403.02 396.892 405.333 410.876 409.376 424.401V424.401Z" fill="black"/>
<path d="M417.422 429.642C417.296 429.645 417.173 429.608 417.068 429.537C416.964 429.466 416.885 429.365 416.841 429.246C416.779 429.061 410.167 410.991 410.377 381.945C410.587 352.899 425.852 337.127 426 336.979C426.057 336.921 426.126 336.875 426.201 336.844C426.276 336.812 426.357 336.796 426.439 336.796C426.52 336.796 426.601 336.812 426.676 336.844C426.752 336.875 426.82 336.921 426.878 336.979C426.936 337.036 426.981 337.105 427.013 337.18C427.044 337.255 427.06 337.336 427.06 337.418C427.06 337.499 427.044 337.58 427.013 337.655C426.981 337.731 426.936 337.799 426.878 337.857C426.729 338.005 411.823 353.307 411.613 381.957C411.403 410.608 417.929 428.653 418.003 428.826C418.059 428.98 418.051 429.15 417.981 429.299C417.912 429.447 417.786 429.562 417.632 429.617C417.564 429.638 417.493 429.647 417.422 429.642V429.642Z" fill="white"/>
<path d="M416.594 428.653L440.251 442.249C442.716 443.706 445.64 444.181 448.439 443.579C451.239 442.976 453.708 441.341 455.355 438.999C456.921 436.562 457.582 433.653 457.222 430.779C456.085 418.493 450.745 415.663 457.284 410.187C463.822 404.712 465.528 404.329 465.157 399.063C464.786 393.798 461.189 391.499 459.484 389.423C457.778 387.346 453.056 382.995 456.27 376.568C459.484 370.141 463.871 363.924 457.222 361.081C453.254 359.375 446.642 361.65 442.291 366.371C437.94 371.093 434.356 374.492 430.19 375.629C426.025 376.766 417.348 376.951 417.719 384.132C418.09 391.314 419.993 393.773 418.288 396.975C415.074 402.957 401.095 406.356 416.594 428.653Z" fill="#151515"/>
<path d="M428.286 435.97C428.132 435.965 427.985 435.905 427.872 435.801C427.758 435.697 427.686 435.555 427.668 435.402C427.668 434.982 424.035 392.562 453.204 364.332C453.325 364.232 453.478 364.182 453.634 364.191C453.789 364.201 453.936 364.268 454.044 364.381C454.152 364.493 454.213 364.643 454.216 364.799C454.218 364.955 454.161 365.106 454.057 365.222C425.308 393.044 428.867 434.87 428.904 435.291C428.918 435.453 428.868 435.614 428.763 435.739C428.659 435.863 428.51 435.942 428.348 435.958L428.286 435.97Z" fill="white"/>
<path d="M432.971 399.459C432.816 399.459 432.666 399.401 432.551 399.296C432.436 399.19 432.366 399.046 432.353 398.89C432.095 395.603 431.169 392.403 429.632 389.485C428.096 386.568 425.981 383.993 423.417 381.92C423.35 381.873 423.293 381.814 423.25 381.745C423.206 381.676 423.176 381.599 423.163 381.518C423.149 381.438 423.151 381.356 423.169 381.276C423.188 381.196 423.221 381.121 423.269 381.055C423.315 380.988 423.373 380.932 423.441 380.888C423.509 380.845 423.585 380.815 423.664 380.801C423.743 380.788 423.825 380.79 423.903 380.808C423.982 380.826 424.056 380.859 424.122 380.907C426.854 383.073 429.107 385.784 430.736 388.867C432.366 391.95 433.338 395.338 433.589 398.816C433.603 398.982 433.551 399.146 433.445 399.273C433.338 399.4 433.186 399.48 433.021 399.496L432.971 399.459Z" fill="white"/>
<path d="M430.956 406.739C430.807 406.74 430.662 406.688 430.548 406.591C430.426 406.481 430.351 406.328 430.339 406.164C430.327 406 430.38 405.839 430.486 405.713C430.783 405.367 438.088 397.308 455.206 399.447C455.369 399.468 455.516 399.553 455.615 399.683C455.715 399.813 455.759 399.977 455.738 400.139C455.716 400.302 455.632 400.45 455.503 400.551C455.373 400.653 455.209 400.7 455.046 400.683C438.607 398.618 431.475 406.455 431.401 406.529C431.345 406.592 431.276 406.643 431.2 406.679C431.124 406.715 431.041 406.736 430.956 406.739V406.739Z" fill="white"/>
<path d="M339.369 502.368L179.48 410.051C168.195 403.538 159.049 386.061 159.049 371.018V28.6461C159.049 13.604 168.195 6.69474 179.48 13.2085L339.369 105.525C350.654 112.039 359.8 129.516 359.8 144.558V486.931C359.8 501.96 350.654 508.882 339.369 502.368Z" fill="#455A64"/>
<path d="M357.785 94.7598L197.884 2.44291C193.063 -0.338094 188.638 -0.659456 185.14 1.04623C184.712 1.26068 184.299 1.50434 183.904 1.77547L165.982 12.195C169.592 10.032 174.313 10.1926 179.492 13.1838L339.381 105.501C350.666 112.014 359.812 129.491 359.812 144.534V486.906C359.812 494.866 357.254 500.502 353.175 503.172L370.862 492.876C375.373 490.478 378.278 484.607 378.278 476.19V133.817C378.278 118.751 369.07 101.274 357.785 94.7598Z" fill="#37474F"/>
<path d="M359.8 144.534V486.906C359.8 494.866 357.242 500.502 353.163 503.172L370.863 492.876C375.374 490.478 378.279 484.607 378.279 476.19V133.817L359.862 144.509L359.8 144.534Z" fill="#263238"/>
<path d="M378.216 160.379L359.8 171.009V179.315L378.216 168.673V160.379Z" fill="#37474F"/>
<path d="M370.145 215.616C368.501 216.568 367.167 215.554 367.167 213.366V195.506C367.183 194.39 367.461 193.293 367.979 192.303C368.496 191.314 369.238 190.459 370.145 189.808V189.808C371.789 188.857 373.124 189.808 373.124 192.058V209.918C373.107 211.035 372.829 212.132 372.312 213.121C371.795 214.111 371.053 214.965 370.145 215.616V215.616Z" fill="#37474F"/>
<path d="M367.154 213.416V195.506C367.171 194.39 367.449 193.293 367.966 192.303C368.484 191.314 369.226 190.459 370.133 189.808C370.404 189.619 370.72 189.503 371.05 189.473C371.379 189.442 371.711 189.498 372.012 189.635L369.775 188.486C369.469 188.339 369.129 188.275 368.791 188.301C368.452 188.327 368.126 188.442 367.846 188.634C366.938 189.285 366.195 190.139 365.676 191.129C365.156 192.118 364.875 193.215 364.855 194.332V212.18C364.809 212.631 364.878 213.086 365.055 213.503C365.232 213.92 365.512 214.286 365.869 214.565V214.565L368.205 215.801C367.833 215.534 367.54 215.171 367.355 214.752C367.17 214.332 367.101 213.871 367.154 213.416V213.416Z" fill="#455A64"/>
<path d="M370.145 258.839C368.501 259.791 367.167 258.839 367.167 256.589V238.729C367.184 237.613 367.463 236.516 367.98 235.527C368.497 234.538 369.239 233.683 370.145 233.031V233.031C371.789 232.08 373.124 233.031 373.124 235.293V253.141C373.109 254.258 372.832 255.356 372.314 256.345C371.797 257.335 371.054 258.189 370.145 258.839V258.839Z" fill="#37474F"/>
<path d="M367.154 256.589V238.729C367.172 237.613 367.45 236.516 367.967 235.527C368.485 234.538 369.226 233.683 370.133 233.031C370.405 232.845 370.721 232.731 371.05 232.701C371.378 232.671 371.709 232.725 372.011 232.858V232.858L369.774 231.696C369.47 231.543 369.129 231.475 368.79 231.501C368.45 231.527 368.123 231.646 367.846 231.845C366.936 232.494 366.191 233.347 365.671 234.337C365.152 235.327 364.872 236.425 364.855 237.543V255.44C364.807 255.891 364.876 256.347 365.053 256.764C365.23 257.181 365.511 257.547 365.869 257.825V257.825L368.205 259.061C367.818 258.787 367.514 258.411 367.329 257.974C367.143 257.538 367.083 257.058 367.154 256.589Z" fill="#455A64"/>
<path d="M333.782 115.129L176.662 24.3819C176.006 24.0047 175.263 23.8055 174.506 23.8041C173.75 23.8027 173.006 23.9991 172.349 24.3739C171.692 24.7487 171.144 25.2888 170.76 25.9407C170.376 26.5925 170.169 27.3335 170.16 28.0899V371.018C170.16 382.464 178.281 396.517 188.193 402.24L341.458 490.775C342.184 491.193 343.008 491.413 343.847 491.412C344.686 491.411 345.509 491.19 346.235 490.771C346.962 490.351 347.565 489.748 347.984 489.022C348.404 488.296 348.625 487.473 348.626 486.634V140.875C348.688 131.432 341.989 119.851 333.782 115.129Z" fill="#151515"/>
<path opacity="0.9" d="M333.782 115.129L176.662 24.3819C176.006 24.0047 175.263 23.8055 174.506 23.8041C173.75 23.8027 173.006 23.9991 172.349 24.3739C171.692 24.7487 171.144 25.2888 170.76 25.9407C170.376 26.5925 170.169 27.3335 170.16 28.0899V371.018C170.16 382.464 178.281 396.517 188.193 402.24L341.458 490.775C342.184 491.193 343.008 491.413 343.847 491.412C344.686 491.411 345.509 491.19 346.235 490.771C346.962 490.351 347.565 489.748 347.984 489.022C348.404 488.296 348.625 487.473 348.626 486.634V140.875C348.688 131.432 341.989 119.851 333.782 115.129Z" fill="white"/>
<path d="M223.654 48.0761L226.089 58.3225L278.174 88.3573L287.172 83.5617L223.654 48.0761Z" fill="#455A64"/>
<path d="M238.968 57.9764C238.968 59.6821 237.732 60.3619 236.299 59.5214C235.529 59.0104 234.89 58.326 234.433 57.5232C233.975 56.7204 233.713 55.8215 233.666 54.8988C233.666 53.2055 234.902 52.5133 236.336 53.3662C237.105 53.8745 237.744 54.5566 238.202 55.3575C238.659 56.1583 238.922 57.0554 238.968 57.9764V57.9764Z" fill="#263238"/>
<path d="M274.058 79.6683C273.773 79.666 273.493 79.5938 273.243 79.4581L246.644 64.6261C246.268 64.4056 245.994 64.0469 245.879 63.6268C245.765 63.2066 245.819 62.7583 246.03 62.3775C246.241 61.9967 246.593 61.7137 247.01 61.5888C247.428 61.4639 247.877 61.5071 248.263 61.7092L274.874 76.5412C275.198 76.721 275.452 77.0032 275.598 77.3435C275.743 77.6837 275.772 78.0628 275.678 78.4209C275.585 78.779 275.375 79.0959 275.082 79.3217C274.788 79.5475 274.428 79.6694 274.058 79.6683V79.6683Z" fill="#263238"/>
<path d="M203.112 95.7486C201.493 94.8093 200.318 95.625 200.318 97.6891C200.318 98.7214 200.573 99.7376 201.061 100.648C201.548 101.557 202.253 102.333 203.112 102.905C203.572 103.184 204.1 103.332 204.638 103.332C205.177 103.332 205.705 103.184 206.165 102.905L208.748 107.577C207.839 108.079 206.809 108.318 205.772 108.267C204.735 108.217 203.733 107.88 202.877 107.293C200.778 106.009 199.029 104.227 197.783 102.106C196.536 99.9847 195.832 97.5889 195.733 95.1306C195.733 90.5451 198.811 88.9506 203.05 91.4226C205.444 92.9643 207.405 95.0914 208.748 97.6026L206.165 99.6544C205.528 98.0953 204.471 96.7433 203.112 95.7486Z" fill="#151515"/>
<path d="M223.618 111.236C223.618 115.858 220.491 117.416 216.202 114.944C214.043 113.654 212.237 111.851 210.943 109.694C209.649 107.538 208.908 105.095 208.786 102.584C208.786 97.9611 211.913 96.4037 216.202 98.8757C218.365 100.16 220.176 101.962 221.47 104.119C222.765 106.277 223.503 108.722 223.618 111.236V111.236ZM213.371 105.34C213.393 106.401 213.666 107.442 214.169 108.377C214.672 109.312 215.39 110.114 216.263 110.717C217.796 111.607 219.032 110.717 219.032 108.615C219.028 107.578 218.774 106.557 218.292 105.638C217.81 104.72 217.115 103.931 216.263 103.338C214.706 102.435 213.371 103.202 213.371 105.34Z" fill="#151515"/>
<path d="M228.598 106.329L233.938 117.453V109.444L237.979 111.78V127.366L234.271 125.215L228.957 114.19V122.15L224.89 119.801V104.178L228.598 106.329Z" fill="#151515"/>
<path d="M251.192 119.369V123.447L247.336 121.223V132.742L242.874 130.159V118.639L239.042 116.427V112.36L251.192 119.369Z" fill="#151515"/>
<path d="M259.894 137.785L254.826 134.856L254.134 136.66L249.561 134.015L255.259 121.717L259.844 124.362L265.332 143.125L260.573 140.381L259.894 137.785ZM258.793 133.459L257.409 128.132L255.988 131.84L258.793 133.459Z" fill="#151515"/>
<path d="M272.415 135.758C270.795 134.831 269.621 135.634 269.621 137.711C269.623 138.743 269.879 139.758 270.366 140.668C270.854 141.577 271.557 142.353 272.415 142.927C272.878 143.203 273.408 143.349 273.947 143.349C274.487 143.349 275.016 143.203 275.48 142.927L278.063 147.599C277.15 148.095 276.119 148.33 275.082 148.28C274.044 148.23 273.04 147.896 272.18 147.315C270.079 146.029 268.329 144.246 267.082 142.122C265.836 139.999 265.133 137.6 265.036 135.14C265.036 130.554 268.126 128.96 272.353 131.432C274.744 132.981 276.707 135.106 278.063 137.612L275.48 139.651C274.829 138.1 273.769 136.755 272.415 135.758Z" fill="#151515"/>
<path d="M290.25 141.926V145.992L286.394 143.767V155.324L281.932 152.741V141.221L278.1 139.009V134.942L290.25 141.926Z" fill="#151515"/>
<path d="M303.439 161.059C304.539 161.689 305.379 161.195 305.379 159.65V150.664L309.853 153.235V162.221C309.853 166.361 307.381 167.597 303.426 165.336C301.521 164.277 299.919 162.748 298.774 160.893C297.629 159.038 296.98 156.921 296.888 154.743V145.757L301.362 148.34V157.326C301.379 158.07 301.577 158.799 301.939 159.449C302.301 160.099 302.816 160.652 303.439 161.059V161.059Z" fill="#151515"/>
<path d="M317.059 161.108C316.552 160.824 316.231 160.812 316.231 161.281C316.231 163.234 323.214 166.052 323.214 171.701C323.214 175.162 320.582 175.174 317.541 173.419C314.868 171.781 312.566 169.605 310.78 167.029L312.437 164.112C313.796 166.216 315.54 168.045 317.578 169.501C318.233 169.884 318.654 169.884 318.654 169.328C318.654 167.301 311.658 164.606 311.658 159.131C311.658 156.016 313.932 155.423 317.442 157.4C319.704 158.768 321.694 160.54 323.313 162.629L321.694 165.62C320.357 163.916 318.798 162.399 317.059 161.108V161.108Z" fill="#151515"/>
<path d="M180.629 172.554C185.644 166.394 188.169 158.579 187.704 150.65C187.24 142.72 183.821 135.253 178.122 129.721C172.422 124.189 164.856 120.993 156.917 120.766C148.977 120.538 141.24 123.294 135.233 128.49C129.226 133.686 125.384 140.945 124.466 148.835C123.548 156.725 125.62 164.672 130.273 171.109C134.927 177.546 141.824 182.005 149.604 183.606C157.384 185.208 165.481 183.835 172.299 179.76L187.773 186.483L180.629 172.554Z" fill="#151515"/>
<path opacity="0.4" d="M180.629 172.554C185.644 166.394 188.169 158.579 187.704 150.65C187.24 142.72 183.821 135.253 178.122 129.721C172.422 124.189 164.856 120.993 156.917 120.766C148.977 120.538 141.24 123.294 135.233 128.49C129.226 133.686 125.384 140.945 124.466 148.835C123.548 156.725 125.62 164.672 130.273 171.109C134.927 177.546 141.824 182.005 149.604 183.606C157.384 185.208 165.481 183.835 172.299 179.76L187.773 186.483L180.629 172.554Z" fill="black"/>
<path d="M144.242 150.8C144.242 150.318 143.896 150.046 143.265 150.046C141.803 150.238 140.438 150.882 139.36 151.888L137.604 148.476C139.452 147.086 141.684 146.301 143.995 146.227C146.961 146.227 149.211 147.784 149.211 150.108C149.211 151.764 147.975 153.359 146.392 154.953L144.18 157.141H149.408V160.775H138.173V157.796L143.179 152.617C143.718 152.14 144.09 151.504 144.242 150.8V150.8Z" fill="white"/>
<path d="M158.555 146.437L155.143 154.619H156.54V151.863H160.841V154.619H162.473V157.994H160.841V160.775H156.54V157.994H150.422V154.928L154.13 146.437H158.555Z" fill="white"/>
<path d="M175.748 153.643V160.775H171.15V154.965C171.176 154.776 171.162 154.584 171.107 154.401C171.053 154.217 170.96 154.048 170.835 153.904C170.709 153.76 170.555 153.644 170.381 153.565C170.207 153.486 170.018 153.445 169.827 153.445C168.925 153.445 168.356 154.15 168.356 155.237V160.775H163.758V145.621H168.356V151.196C168.716 150.627 169.217 150.162 169.811 149.846C170.405 149.529 171.07 149.373 171.743 149.391C172.294 149.377 172.842 149.479 173.351 149.691C173.86 149.903 174.318 150.22 174.696 150.622C175.074 151.023 175.363 151.499 175.544 152.02C175.725 152.541 175.795 153.094 175.748 153.643V153.643Z" fill="white"/>
<path d="M325.674 268.492V422.065C325.677 423.802 325.222 425.509 324.355 427.014C323.488 428.52 322.24 429.77 320.737 430.64C319.233 431.509 317.527 431.967 315.79 431.968C314.053 431.969 312.346 431.512 310.842 430.643L228.129 382.884L213.47 374.43C208.422 371.511 204.229 367.319 201.31 362.271C198.39 357.224 196.847 351.499 196.834 345.668V192.083C196.831 190.346 197.286 188.639 198.153 187.133C199.02 185.628 200.268 184.378 201.771 183.508C203.275 182.639 204.981 182.181 206.718 182.18C208.455 182.179 210.161 182.636 211.666 183.505L309.062 239.73C314.112 242.645 318.306 246.837 321.222 251.885C324.138 256.934 325.674 262.662 325.674 268.492V268.492Z" fill="#151515"/>
<path opacity="0.5" d="M325.674 268.492V422.065C325.677 423.802 325.222 425.509 324.355 427.014C323.488 428.52 322.24 429.77 320.737 430.64C319.233 431.509 317.527 431.967 315.79 431.968C314.053 431.969 312.346 431.512 310.842 430.643L228.129 382.884L213.47 374.43C208.422 371.511 204.229 367.319 201.31 362.271C198.39 357.224 196.847 351.499 196.834 345.668V192.083C196.831 190.346 197.286 188.639 198.153 187.133C199.02 185.628 200.268 184.378 201.771 183.508C203.275 182.639 204.981 182.181 206.718 182.18C208.455 182.179 210.161 182.636 211.666 183.505L309.062 239.73C314.112 242.645 318.306 246.837 321.222 251.885C324.138 256.934 325.674 262.662 325.674 268.492V268.492Z" fill="white"/>
<path d="M278.026 359.363C278.026 359.363 293.513 385.047 282.328 414.007L228.092 382.884L278.026 359.363Z" fill="#263238"/>
<path d="M302.725 243.967C303.897 234.448 297.131 225.781 287.612 224.609C278.093 223.436 269.426 230.203 268.254 239.722C267.082 249.241 273.848 257.908 283.367 259.08C292.886 260.252 301.553 253.486 302.725 243.967Z" fill="#263238"/>
<path d="M285.578 193.133C285.578 193.133 290.905 184.481 292.537 185.112C294.168 185.742 291.474 193.986 291.474 193.986C291.474 193.986 299.533 195.667 298.037 197.694C296.541 199.721 286.691 199.239 286.691 199.239L285.578 193.133Z" fill="#263238"/>
<path d="M289.287 215.431C285.579 243.29 262.095 243.29 262.095 243.29L212.902 221.635C212.902 221.635 209.194 218.385 208.057 210.919C207.62 207.861 207.62 204.757 208.057 201.699C208.057 201.699 208.057 201.637 208.057 201.612C209.626 189.895 218.39 177.3 237.474 173.431C241.656 172.587 245.913 172.173 250.18 172.195C252.244 172.188 254.307 172.291 256.36 172.504C271.192 173.963 281.586 180.884 286.543 191.65C287.658 194.08 288.487 196.631 289.015 199.251C290.021 204.59 290.113 210.061 289.287 215.431Z" fill="#263238"/>
<path d="M171.187 269.32C171.187 269.32 153.722 268.715 146.998 285.734C146.998 285.734 154.414 290.74 164.141 285.734C173.869 280.729 171.187 269.32 171.187 269.32Z" fill="#151515"/>
<path opacity="0.5" d="M171.187 269.32C171.187 269.32 153.722 268.715 146.998 285.734C146.998 285.734 154.414 290.74 164.141 285.734C173.869 280.729 171.187 269.32 171.187 269.32Z" fill="black"/>
<path d="M170.692 277.515C170.692 277.515 165.748 256.033 163.14 255.774C160.532 255.514 160.025 262.325 160.235 266.168L154.055 252.869C153.859 252.456 153.581 252.087 153.237 251.786C152.893 251.484 152.491 251.256 152.055 251.116C151.62 250.976 151.16 250.927 150.705 250.971C150.25 251.015 149.808 251.152 149.408 251.374C143.228 254.773 132.388 265.106 155.242 290.654L170.692 277.515Z" fill="#945959"/>
<path d="M233.975 262.658L230.267 262.176C226.53 261.681 222.729 262.189 219.253 263.649C215.778 265.108 212.754 267.467 210.491 270.482L188.429 299.85L171.125 269.32C171.125 269.32 169.048 290.085 146.936 285.734L170.68 325.694C172.182 328.224 174.274 330.353 176.776 331.901C179.278 333.449 182.118 334.369 185.052 334.584C187.987 334.799 190.93 334.302 193.631 333.135C196.332 331.968 198.711 330.166 200.566 327.882L220.886 302.902L233.975 262.658Z" fill="#151515"/>
<path d="M281.067 331.195C276.123 343.728 275.579 346.175 278.595 352.441C280.695 357.07 282.351 361.887 283.539 366.828C283.539 366.828 260.624 392.513 228.006 382.896L213.347 374.442C210.298 372.684 207.552 370.447 205.214 367.817L209.676 334.544C209.9 332.793 209.723 331.013 209.157 329.341L204.472 315.609C202.186 308.902 201.846 301.684 203.491 294.792C205.136 287.9 208.698 281.614 213.767 276.662L229.513 261.274L270.87 266.564L277.05 268.331C281.096 269.502 284.584 272.092 286.872 275.628C289.161 279.163 290.097 283.406 289.509 287.576C287.482 302.161 284.169 323.321 281.067 331.195Z" fill="#151515"/>
<path opacity="0.5" d="M281.067 331.195C276.123 343.728 275.579 346.175 278.595 352.441C280.695 357.07 282.351 361.887 283.539 366.828C283.539 366.828 260.624 392.513 228.006 382.896L213.347 374.442C210.298 372.684 207.552 370.447 205.214 367.817L209.676 334.544C209.9 332.793 209.723 331.013 209.157 329.341L204.472 315.609C202.186 308.902 201.846 301.684 203.491 294.792C205.136 287.9 208.698 281.614 213.767 276.662L229.513 261.274L270.87 266.564L277.05 268.331C281.096 269.502 284.584 272.092 286.872 275.628C289.161 279.163 290.097 283.406 289.509 287.576C287.482 302.161 284.169 323.321 281.067 331.195Z" fill="black"/>
<path d="M256.124 293.756L247.843 286.698C246.966 285.948 245.908 285.44 244.775 285.223C243.641 285.006 242.471 285.089 241.379 285.462L231.367 288.911L230.02 283.299C229.81 282.426 229.425 281.605 228.888 280.885C228.352 280.165 227.675 279.56 226.899 279.109C226.123 278.657 225.263 278.368 224.372 278.257C223.481 278.147 222.577 278.218 221.714 278.467L217.375 279.703L224.717 265.637C227.115 261.056 230.807 257.282 235.335 254.785L238.214 253.203L262.007 254.439C262.007 254.439 270.87 258.147 270.87 266.49L256.124 293.682" fill="#151515"/>
<path d="M262.107 264.982L238.252 283.571V224.379H262.107V264.982Z" fill="#945959"/>
<path d="M238.623 260.1L231.367 288.96L262.008 264.982L238.623 260.1Z" fill="#945959"/>
<path d="M238.252 255.811C243.557 253.841 248.405 250.814 252.504 246.913C256.603 243.012 259.866 238.319 262.095 233.118V224.379H238.24L238.252 255.811Z" fill="#703838"/>
<path d="M243.393 180.514C234.346 180.514 215.114 185.556 212.889 209.238C210.664 232.92 212.815 251.262 225.026 253.042C237.238 254.822 265.617 245.96 269.423 215.307C273.23 184.654 252.206 180.514 243.393 180.514Z" fill="#945959"/>
<path d="M229.155 219.262V233.217L220.973 230.708L229.155 219.262Z" fill="#703838"/>
<path d="M238.251 224.515C239.822 224.515 241.094 223.242 241.094 221.672C241.094 220.102 239.822 218.83 238.251 218.83C236.681 218.83 235.409 220.102 235.409 221.672C235.409 223.242 236.681 224.515 238.251 224.515Z" fill="#263238"/>
<path d="M222.381 219.695C222.379 220.257 222.21 220.805 221.896 221.271C221.582 221.737 221.138 222.099 220.618 222.312C220.098 222.526 219.527 222.58 218.976 222.469C218.426 222.358 217.92 222.086 217.524 221.688C217.128 221.29 216.858 220.784 216.75 220.233C216.641 219.681 216.698 219.111 216.913 218.592C217.129 218.073 217.493 217.63 217.96 217.318C218.428 217.006 218.977 216.84 219.539 216.84C219.913 216.84 220.284 216.914 220.629 217.057C220.975 217.201 221.289 217.411 221.553 217.677C221.817 217.942 222.026 218.257 222.169 218.603C222.311 218.95 222.383 219.321 222.381 219.695V219.695Z" fill="#263238"/>
<path d="M216.066 213.762L221.628 210.462C221.628 210.462 219.502 208.249 217.376 209.572C215.25 210.895 216.066 213.762 216.066 213.762Z" fill="#263238"/>
<path d="M225.311 238.878C228.02 239.075 230.716 238.352 232.962 236.826C232.962 236.826 233.493 240.868 230.107 241.634C226.72 242.4 225.311 238.878 225.311 238.878Z" fill="#703838"/>
<path d="M220.454 188.572C220.454 188.572 223.853 221.265 268.312 222.29C268.312 222.29 281.747 189.796 255.198 179.241C228.648 168.685 220.454 188.572 220.454 188.572Z" fill="#263238"/>
<path d="M281.401 217.396L275.938 214.232C273.861 212.996 270.994 213.169 267.817 214.998C261.514 218.632 256.396 227.494 256.396 234.774C256.396 238.42 257.632 240.954 259.758 242.19L265.123 245.28L265.432 245.453L265.617 245.564C267.644 246.553 270.351 246.318 273.33 244.6C279.633 240.892 284.75 232.104 284.75 224.824C284.713 221.141 283.44 218.595 281.401 217.396Z" fill="#151515"/>
<path d="M281.357 236.013C285.815 228.292 285.815 219.947 281.358 217.373C276.9 214.8 269.673 218.972 265.216 226.693C260.758 234.414 260.758 242.759 265.215 245.332C269.673 247.906 276.9 243.733 281.357 236.013Z" fill="#151515"/>
<path opacity="0.5" d="M281.357 236.013C285.815 228.292 285.815 219.947 281.358 217.373C276.9 214.8 269.673 218.972 265.216 226.693C260.758 234.414 260.758 242.759 265.215 245.332C269.673 247.906 276.9 243.733 281.357 236.013Z" fill="black"/>
<path d="M283.588 224.256L279.88 222.093C278.471 221.252 276.506 221.363 274.331 222.612C272.058 224.097 270.167 226.096 268.81 228.447C267.453 230.798 266.668 233.435 266.519 236.146C266.519 238.618 267.397 240.385 268.818 241.201L272.526 243.315C272.592 243.363 272.662 243.404 272.736 243.438L272.86 243.513C273.729 243.842 274.666 243.954 275.588 243.837C276.51 243.721 277.39 243.38 278.15 242.845C280.421 241.361 282.311 239.364 283.668 237.016C285.025 234.667 285.81 232.032 285.961 229.323C285.862 226.814 284.997 225.071 283.588 224.256Z" fill="#151515"/>
<path d="M285.862 229.299C285.711 232.007 284.926 234.642 283.569 236.991C282.212 239.34 280.322 241.337 278.051 242.82C273.725 245.292 270.227 243.29 270.227 238.309C270.374 235.598 271.159 232.96 272.518 230.61C273.878 228.261 275.774 226.265 278.051 224.787C282.365 222.29 285.862 224.305 285.862 229.299Z" fill="#151515"/>
<path opacity="0.3" d="M285.862 229.299C285.711 232.007 284.926 234.642 283.569 236.991C282.212 239.34 280.322 241.337 278.051 242.82C273.725 245.292 270.227 243.29 270.227 238.309C270.374 235.598 271.159 232.96 272.518 230.61C273.878 228.261 275.774 226.265 278.051 224.787C282.365 222.29 285.862 224.305 285.862 229.299Z" fill="black"/>
<path d="M264.431 174.136C260.888 171.399 256.548 169.893 252.071 169.847H250.971C246.437 169.798 241.911 170.212 237.461 171.083C238.277 171.083 239.093 171.083 239.933 171.083H237.461V173.382H239.76C247.683 173.651 255.191 176.991 260.697 182.695C266.203 188.399 269.275 196.02 269.264 203.948V213.676C269.263 214.06 269.344 214.44 269.5 214.792C269.656 215.143 269.884 215.458 270.17 215.715C270.455 215.973 270.792 216.168 271.157 216.287C271.523 216.406 271.909 216.447 272.292 216.407H272.576L275.048 215.641C274.884 215.693 274.714 215.726 274.541 215.74C275.278 215.64 275.953 215.272 276.436 214.707C276.919 214.141 277.178 213.418 277.162 212.674V203.652C277.137 187.324 270.08 178.548 264.431 174.136Z" fill="#151515"/>
<path d="M248.869 252.362C247.85 252.362 246.842 252.143 245.915 251.72L238.19 248.148C238.069 248.104 237.959 248.037 237.866 247.948C237.772 247.86 237.698 247.754 237.648 247.636C237.598 247.517 237.573 247.39 237.575 247.262C237.577 247.133 237.605 247.007 237.659 246.89C237.712 246.773 237.789 246.669 237.885 246.583C237.98 246.498 238.093 246.433 238.215 246.393C238.337 246.354 238.466 246.34 238.593 246.352C238.721 246.365 238.845 246.404 238.956 246.467L246.681 250.039C247.667 250.497 248.77 250.636 249.838 250.437C250.906 250.237 251.886 249.709 252.639 248.926L260.055 241.263C260.229 241.089 260.464 240.992 260.71 240.992C260.956 240.992 261.191 241.089 261.365 241.263C261.536 241.438 261.631 241.673 261.631 241.918C261.631 242.163 261.536 242.398 261.365 242.573L253.949 250.236C253.289 250.914 252.499 251.452 251.626 251.817C250.753 252.183 249.815 252.368 248.869 252.362V252.362Z" fill="#151515"/>
<path opacity="0.5" d="M248.869 252.362C247.85 252.362 246.842 252.143 245.915 251.72L238.19 248.148C238.069 248.104 237.959 248.037 237.866 247.948C237.772 247.86 237.698 247.754 237.648 247.636C237.598 247.517 237.573 247.39 237.575 247.262C237.577 247.133 237.605 247.007 237.659 246.89C237.712 246.773 237.789 246.669 237.885 246.583C237.98 246.498 238.093 246.433 238.215 246.393C238.337 246.354 238.466 246.34 238.593 246.352C238.721 246.365 238.845 246.404 238.956 246.467L246.681 250.039C247.667 250.497 248.77 250.636 249.838 250.437C250.906 250.237 251.886 249.709 252.639 248.926L260.055 241.263C260.229 241.089 260.464 240.992 260.71 240.992C260.956 240.992 261.191 241.089 261.365 241.263C261.536 241.438 261.631 241.673 261.631 241.918C261.631 242.163 261.536 242.398 261.365 242.573L253.949 250.236C253.289 250.914 252.499 251.452 251.626 251.817C250.753 252.183 249.815 252.368 248.869 252.362V252.362Z" fill="black"/>
<path d="M240.217 245.552C240.217 246.266 240.006 246.964 239.609 247.557C239.212 248.151 238.649 248.613 237.989 248.886C237.33 249.16 236.604 249.231 235.904 249.092C235.204 248.952 234.561 248.609 234.056 248.104C233.551 247.599 233.208 246.956 233.068 246.256C232.929 245.556 233.001 244.83 233.274 244.171C233.547 243.511 234.01 242.948 234.603 242.551C235.197 242.155 235.894 241.943 236.608 241.943C237.565 241.943 238.483 242.323 239.16 243C239.837 243.677 240.217 244.595 240.217 245.552V245.552Z" fill="#151515"/>
<path opacity="0.5" d="M240.217 245.552C240.217 246.266 240.006 246.964 239.609 247.557C239.212 248.151 238.649 248.613 237.989 248.886C237.33 249.16 236.604 249.231 235.904 249.092C235.204 248.952 234.561 248.609 234.056 248.104C233.551 247.599 233.208 246.956 233.068 246.256C232.929 245.556 233.001 244.83 233.274 244.171C233.547 243.511 234.01 242.948 234.603 242.551C235.197 242.155 235.894 241.943 236.608 241.943C237.565 241.943 238.483 242.323 239.16 243C239.837 243.677 240.217 244.595 240.217 245.552V245.552Z" fill="black"/>
<path d="M277.137 203.652V212.674C277.153 213.418 276.894 214.141 276.411 214.707C275.928 215.272 275.254 215.64 274.517 215.74C274.109 215.783 273.698 215.74 273.308 215.614C272.919 215.488 272.56 215.281 272.256 215.007C271.951 214.733 271.708 214.398 271.542 214.024C271.376 213.65 271.29 213.244 271.291 212.835V203.652C271.298 199.269 270.418 194.93 268.704 190.896C266.991 186.861 264.479 183.216 261.319 180.178C258.16 177.14 254.419 174.772 250.321 173.218C246.223 171.663 241.853 170.954 237.474 171.132C241.923 170.262 246.45 169.848 250.983 169.896H252.058C256.535 169.943 260.875 171.448 264.418 174.185C270.079 178.548 277.137 187.324 277.137 203.652Z" fill="#151515"/>
<path opacity="0.5" d="M277.137 203.652V212.674C277.153 213.418 276.894 214.141 276.411 214.707C275.928 215.272 275.254 215.64 274.517 215.74C274.109 215.783 273.698 215.74 273.308 215.614C272.919 215.488 272.56 215.281 272.256 215.007C271.951 214.733 271.708 214.398 271.542 214.024C271.376 213.65 271.29 213.244 271.291 212.835V203.652C271.298 199.269 270.418 194.93 268.704 190.896C266.991 186.861 264.479 183.216 261.319 180.178C258.16 177.14 254.419 174.772 250.321 173.218C246.223 171.663 241.853 170.954 237.474 171.132C241.923 170.262 246.45 169.848 250.983 169.896H252.058C256.535 169.943 260.875 171.448 264.418 174.185C270.079 178.548 277.137 187.324 277.137 203.652Z" fill="black"/>
<path d="M263.243 373.688C263.243 373.688 257.261 390.164 278.644 397.58C278.644 397.58 285.627 387.321 278.644 378.929C271.66 370.536 263.243 373.688 263.243 373.688Z" fill="#151515"/>
<path opacity="0.7" d="M263.243 373.688C263.243 373.688 257.261 390.164 278.644 397.58C278.644 397.58 285.627 387.321 278.644 378.929C271.66 370.536 263.243 373.688 263.243 373.688Z" fill="black"/>
<path d="M270.746 374.442C270.746 374.442 249.858 382.093 249.969 385.059C250.08 388.026 258.844 385.999 258.844 385.999L255.642 388.1C252.271 390.3 249.66 393.485 248.165 397.222V397.222C247.839 398.046 247.827 398.961 248.133 399.793C248.438 400.625 249.039 401.316 249.821 401.733L257.756 405.936C258.204 406.173 258.695 406.319 259.201 406.363C259.706 406.408 260.215 406.351 260.698 406.195C261.181 406.04 261.627 405.789 262.012 405.458C262.396 405.126 262.71 404.722 262.935 404.267V404.267C263.377 403.393 263.988 402.615 264.733 401.979C265.478 401.342 266.341 400.86 267.273 400.559C271.587 399.125 279.633 394.997 282.859 383.7L270.746 374.442Z" fill="#945959"/>
<path d="M277.013 268.307C277.013 268.307 265.889 274.487 271.797 293.249C277.705 312.012 288.792 341.12 288.792 341.12L263.244 373.688C265.973 374.017 268.602 374.919 270.96 376.333C273.318 377.747 275.351 379.642 276.926 381.895C278.435 384.186 279.378 386.803 279.677 389.53C279.976 392.258 279.622 395.017 278.644 397.58L310.36 356.792C313.293 353.023 315.24 348.582 316.026 343.871C316.811 339.16 316.41 334.327 314.859 329.81L301.263 290.11C299.601 285.26 296.839 280.861 293.194 277.257C289.549 273.652 285.119 270.94 280.251 269.333L277.013 268.307Z" fill="#151515"/>
<path d="M89.2387 157.475L40.083 129.047C39.5173 128.654 38.8628 128.41 38.1787 128.334C37.4946 128.258 36.8024 128.355 36.1648 128.614V128.614C36.0305 128.676 35.9022 128.75 35.7817 128.836L25.0903 135.103H25.1644C23.8172 135.869 22.9644 137.649 22.9644 140.195V194.876C22.9644 199.499 25.7701 204.875 29.2432 206.877L78.399 235.306C79.0227 235.757 79.7651 236.015 80.5342 236.048C81.3032 236.081 82.065 235.887 82.725 235.491C82.6916 235.504 82.6619 235.525 82.6385 235.553L93.2557 229.373C94.6401 228.631 95.5176 226.827 95.5176 224.243V169.476C95.5176 164.853 92.7613 159.477 89.2387 157.475Z" fill="#151515"/>
<path d="M93.7626 162.653C92.7681 160.538 91.2009 158.744 89.2388 157.475L40.083 129.047C39.5173 128.654 38.8629 128.41 38.1787 128.334C37.4946 128.258 36.8025 128.355 36.1649 128.614V128.614C36.0305 128.676 35.9022 128.75 35.7817 128.836L25.0903 135.103C25.7443 134.769 26.4777 134.621 27.2101 134.675C27.9426 134.73 28.646 134.985 29.2433 135.412L78.3991 163.84C80.428 165.166 82.036 167.045 83.0341 169.254L93.7626 162.653Z" fill="#151515"/>
<path d="M84.6781 230.497C84.6781 232.969 83.887 234.688 82.6387 235.441L93.2559 229.261C94.6402 228.52 95.5178 226.715 95.5178 224.132V169.476C95.4655 167.097 94.8649 164.762 93.7627 162.653L83.0342 169.254C84.0643 171.3 84.6258 173.551 84.6781 175.842V230.497Z" fill="#151515"/>
<path opacity="0.3" d="M93.7626 162.653C92.7681 160.538 91.2009 158.744 89.2388 157.475L40.083 129.047C39.5173 128.654 38.8629 128.41 38.1787 128.334C37.4946 128.258 36.8025 128.355 36.1649 128.614V128.614C36.0305 128.676 35.9022 128.75 35.7817 128.836L25.0903 135.103C25.7443 134.769 26.4777 134.621 27.2101 134.675C27.9426 134.73 28.646 134.985 29.2433 135.412L78.3991 163.84C80.428 165.166 82.036 167.045 83.0341 169.254L93.7626 162.653Z" fill="black"/>
<path opacity="0.6" d="M84.6781 230.497C84.6781 232.969 83.887 234.688 82.6387 235.441L93.2559 229.261C94.6402 228.52 95.5178 226.715 95.5178 224.132V169.476C95.4655 167.097 94.8649 164.762 93.7627 162.653L83.0342 169.254C84.0643 171.3 84.6258 173.551 84.6781 175.842V230.497Z" fill="black"/>
<path d="M70.2662 191.502C70.2662 198.584 67.4605 200.994 63.2581 198.559C62.0988 197.899 61.0851 197.011 60.2779 195.949C59.4708 194.887 58.8868 193.673 58.5613 192.379C57.3253 193.899 55.4095 193.998 52.715 192.441C48.2901 189.882 44.8046 183.789 44.8046 177.869C44.8046 171.948 48.2531 169.909 52.715 172.48C54.9792 173.814 56.8081 175.776 57.9804 178.128V175.792L62.6401 178.487V191.292C62.5707 191.965 62.6873 192.645 62.9771 193.258C63.2669 193.87 63.7189 194.391 64.284 194.765C65.8537 195.679 66.8178 194.134 66.8178 189.549C66.8178 181.527 61.676 173.023 54.0746 168.636C46.4732 164.248 41.3438 167.301 41.3438 175.557C41.4434 179.938 42.6506 184.223 44.8529 188.012C47.0552 191.8 50.1809 194.97 53.9387 197.224C55.979 198.481 58.2959 199.22 60.6872 199.375L61.7873 203.639C59.0029 203.414 56.3122 202.529 53.9387 201.056C44.0506 195.333 37.5122 183.814 37.5122 173.382C37.5122 162.95 44.1124 159.168 54.0746 164.928C63.7031 170.477 70.2662 181.589 70.2662 191.502ZM58.0545 185.556C58.0786 183.989 57.6961 182.442 56.9445 181.067C56.1928 179.691 55.0976 178.534 53.7656 177.708C51.2936 176.262 49.5261 177.275 49.5261 180.637C49.4943 182.207 49.8678 183.759 50.6104 185.142C51.353 186.526 52.4397 187.694 53.7656 188.535C56.2376 189.932 58.0545 189.03 58.0545 185.556Z" fill="#151515"/>
<g opacity="0.9">
<path opacity="0.9" d="M70.2662 191.502C70.2662 198.584 67.4605 200.994 63.2581 198.559C62.0988 197.899 61.0851 197.011 60.2779 195.949C59.4708 194.887 58.8868 193.673 58.5613 192.379C57.3253 193.899 55.4095 193.998 52.715 192.441C48.2901 189.882 44.8046 183.789 44.8046 177.869C44.8046 171.948 48.2531 169.909 52.715 172.48C54.9792 173.814 56.8081 175.776 57.9804 178.128V175.792L62.6401 178.487V191.292C62.5707 191.965 62.6873 192.645 62.9771 193.258C63.2669 193.87 63.7189 194.391 64.284 194.765C65.8537 195.679 66.8178 194.134 66.8178 189.549C66.8178 181.527 61.676 173.023 54.0746 168.636C46.4732 164.248 41.3438 167.301 41.3438 175.557C41.4434 179.938 42.6506 184.223 44.8529 188.012C47.0552 191.8 50.1809 194.97 53.9387 197.224C55.979 198.481 58.2959 199.22 60.6872 199.375L61.7873 203.639C59.0029 203.414 56.3122 202.529 53.9387 201.056C44.0506 195.333 37.5122 183.814 37.5122 173.382C37.5122 162.95 44.1124 159.168 54.0746 164.928C63.7031 170.477 70.2662 181.589 70.2662 191.502ZM58.0545 185.556C58.0786 183.989 57.6961 182.442 56.9445 181.067C56.1928 179.691 55.0976 178.534 53.7656 177.708C51.2936 176.262 49.5261 177.275 49.5261 180.637C49.4943 182.207 49.8678 183.759 50.6104 185.142C51.353 186.526 52.4397 187.694 53.7656 188.535C56.2376 189.932 58.0545 189.03 58.0545 185.556Z" fill="white"/>
</g>
<path d="M89.2387 254.847L40.083 226.419C39.5181 226.024 38.8628 225.779 38.1778 225.706C37.4929 225.632 36.8005 225.733 36.1648 225.998V225.998C36.0305 226.06 35.9022 226.135 35.7817 226.221L25.0903 232.487H25.1644C23.8172 233.254 22.9644 235.034 22.9644 237.567V292.223C22.9644 296.858 25.7701 302.223 29.2432 304.225L78.399 332.653C79.0214 333.107 79.7642 333.367 80.534 333.4C81.3037 333.433 82.066 333.238 82.725 332.838L82.6385 332.913L93.2557 326.671C94.6401 325.941 95.5176 324.199 95.5176 321.541V266.836C95.5176 262.213 92.7613 256.849 89.2387 254.847Z" fill="#151515"/>
<path d="M93.7626 260.026C92.7714 257.908 91.2036 256.113 89.2388 254.847L40.083 226.419C39.5181 226.024 38.8628 225.779 38.1779 225.706C37.493 225.632 36.8006 225.733 36.1649 225.998V225.998C36.0305 226.06 35.9022 226.135 35.7817 226.221L25.0903 232.487C25.7428 232.15 26.4758 231.999 27.2085 232.051C27.9413 232.104 28.6454 232.357 29.2433 232.784L78.3991 261.212C80.4311 262.54 82.0397 264.423 83.0341 266.638V266.638L93.7626 260.026Z" fill="#151515"/>
<path d="M84.6781 327.857C84.6781 330.329 83.887 332.047 82.6387 332.863L93.2559 326.621C94.6402 325.892 95.5178 324.149 95.5178 321.492V266.836C95.4654 264.461 94.8648 262.13 93.7627 260.026L83.0342 266.626C84.0641 268.668 84.6256 270.915 84.6781 273.201V327.857Z" fill="#151515"/>
<path opacity="0.3" d="M93.7626 260.026C92.7714 257.908 91.2036 256.113 89.2388 254.847L40.083 226.419C39.5181 226.024 38.8628 225.779 38.1779 225.706C37.493 225.632 36.8006 225.733 36.1649 225.998V225.998C36.0305 226.06 35.9022 226.135 35.7817 226.221L25.0903 232.487C25.7428 232.15 26.4758 231.999 27.2085 232.051C27.9413 232.104 28.6454 232.357 29.2433 232.784L78.3991 261.212C80.4311 262.54 82.0397 264.423 83.0341 266.638V266.638L93.7626 260.026Z" fill="black"/>
<path opacity="0.6" d="M84.6781 327.857C84.6781 330.329 83.887 332.047 82.6387 332.863L93.2559 326.621C94.6402 325.892 95.5178 324.149 95.5178 321.492V266.836C95.4654 264.461 94.8648 262.13 93.7627 260.026L83.0342 266.626C84.0641 268.668 84.6256 270.915 84.6781 273.201V327.857Z" fill="black"/>
<path d="M48.3274 279.282L36.4741 260.026V286.118L48.3274 279.282Z" fill="#151515"/>
<path d="M59.3398 284.832L71.1684 305.313V279.258L59.3398 284.832Z" fill="#151515"/>
<path d="M38.2661 259.148L50.4407 278.924C50.4923 278.967 50.538 279.017 50.5767 279.072C50.5874 279.121 50.5874 279.172 50.5767 279.221L54.1982 285.104L57.2634 283.658C57.3112 283.606 57.3652 283.56 57.4241 283.522C57.545 283.451 57.6802 283.409 57.8197 283.398L70.1797 277.601L38.2661 259.148Z" fill="#151515"/>
<path d="M57.5474 285.673L54.2349 287.23C54.1073 287.289 53.9678 287.319 53.8271 287.317C53.6565 287.318 53.4883 287.276 53.3388 287.194C53.1894 287.112 53.0638 286.992 52.9742 286.847L49.3527 280.963L37.4624 287.836L69.4625 306.301L57.5474 285.673Z" fill="#151515"/>
<g opacity="0.9">
<path opacity="0.9" d="M48.3274 279.282L36.4741 260.026V286.118L48.3274 279.282Z" fill="white"/>
<path opacity="0.9" d="M59.3398 284.832L71.1684 305.313V279.258L59.3398 284.832Z" fill="white"/>
<path opacity="0.9" d="M38.2666 259.148L50.4412 278.924C50.4928 278.967 50.5385 279.017 50.5772 279.072C50.5879 279.121 50.5879 279.172 50.5772 279.221L54.1987 285.104L57.2639 283.658C57.3117 283.606 57.3657 283.56 57.4246 283.522C57.5454 283.451 57.6807 283.409 57.8201 283.398L70.1802 277.601L38.2666 259.148Z" fill="white"/>
<path opacity="0.9" d="M57.5474 285.673L54.2349 287.23C54.1073 287.289 53.9678 287.319 53.8271 287.316C53.6565 287.318 53.4883 287.276 53.3388 287.194C53.1894 287.112 53.0638 286.992 52.9742 286.847L49.3527 280.963L37.4624 287.836L69.4625 306.301L57.5474 285.673Z" fill="white"/>
</g>
<path d="M89.2402 60.1518L40.0844 31.7238C39.5195 31.3295 38.8642 31.0843 38.1793 31.0108C37.4944 30.9374 36.802 31.038 36.1663 31.3035V31.3035C36.0319 31.3656 35.9037 31.44 35.7832 31.526L25.0917 37.7925H25.1659C23.8187 38.5465 22.9658 40.3387 22.9658 42.8725V97.5285C22.9658 102.151 25.7715 107.528 29.2447 109.53L78.4005 137.958C79.0229 138.412 79.7657 138.672 80.5354 138.705C81.3052 138.738 82.0675 138.543 82.7265 138.143L82.64 138.205L93.2572 132.025C94.6415 131.296 95.5191 129.553 95.5191 126.896V72.1039C95.5191 67.4813 92.7628 62.1047 89.2402 60.1518Z" fill="#151515"/>
<path d="M93.7626 65.2936C92.7717 63.1729 91.204 61.3739 89.2388 60.1024L40.083 31.7238C39.5181 31.3295 38.8628 31.0843 38.1779 31.0108C37.493 30.9374 36.8006 31.038 36.1649 31.3035V31.3035C36.0305 31.3656 35.9022 31.4401 35.7817 31.526L25.0903 37.7925C25.7428 37.4551 26.4758 37.3043 27.2085 37.3566C27.9413 37.4089 28.6454 37.6624 29.2433 38.0892L78.3991 66.5172C80.4311 67.8455 82.0397 69.7286 83.0341 71.9432V71.9432L93.7626 65.2936Z" fill="#151515"/>
<path d="M84.6781 133.076C84.6781 135.548 83.887 137.266 82.6387 138.02L93.2559 131.84C94.6402 131.111 95.5178 129.368 95.5178 126.71V72.1039C95.4654 69.7289 94.8648 67.3981 93.7627 65.2936L83.0342 71.8938C84.0641 73.9362 84.6256 76.1825 84.6781 78.4693V133.076Z" fill="#151515"/>
<path opacity="0.3" d="M93.7626 65.2936C92.7717 63.1729 91.204 61.3739 89.2388 60.1024L40.083 31.7238C39.5181 31.3295 38.8628 31.0843 38.1779 31.0108C37.493 30.9374 36.8006 31.038 36.1649 31.3035V31.3035C36.0305 31.3656 35.9022 31.4401 35.7817 31.526L25.0903 37.7925C25.7428 37.4551 26.4758 37.3043 27.2085 37.3566C27.9413 37.4089 28.6454 37.6624 29.2433 38.0892L78.3991 66.5172C80.4311 67.8455 82.0397 69.7286 83.0341 71.9432V71.9432L93.7626 65.2936Z" fill="black"/>
<path opacity="0.6" d="M84.6781 133.076C84.6781 135.548 83.887 137.266 82.6387 138.02L93.2559 131.84C94.6402 131.111 95.5178 129.368 95.5178 126.71V72.1039C95.4654 69.7289 94.8648 67.3981 93.7627 65.2936L83.0342 71.8938C84.0641 73.9362 84.6256 76.1825 84.6781 78.4693V133.076Z" fill="black"/>
<path d="M68.5973 109.592C66.7063 106.477 64.8028 103.412 62.9117 100.272C62.6118 99.6777 62.1925 99.1513 61.68 98.726C61.1674 98.3007 60.5727 97.9856 59.933 97.8004C59.0183 97.615 58.1037 97.4049 57.1643 97.1329C56.8298 96.9935 56.5484 96.751 56.3609 96.4408C53.2665 91.1447 50.8064 85.5026 49.0315 79.6312C48.9937 79.5057 48.983 79.3736 49 79.2436C49.0171 79.1136 49.0615 78.9888 49.1303 78.8772C49.7112 78.2963 50.3663 77.7648 50.9596 77.2457C51.5529 76.7266 51.8619 75.5277 51.4293 73.9703C50.5146 70.6702 49.6371 67.37 48.7225 64.0823C48.5455 63.1481 48.1256 62.277 47.505 61.5567C46.8845 60.8363 46.0852 60.2921 45.1875 59.9788C43.1943 59.4246 41.0783 59.5023 39.1311 60.2012C38.3771 60.4855 37.9816 61.1653 37.9692 62.3395C38.2906 64.6014 38.5007 66.8386 38.9333 69.1375C41.9821 85.7164 49.3157 100.96 60.9341 114.87C61.2375 115.331 61.645 115.714 62.1237 115.989C62.6025 116.264 63.1392 116.422 63.6904 116.452C65.6139 116.406 67.4619 115.694 68.9187 114.437C70.0187 113.448 69.9075 111.693 68.5973 109.592Z" fill="#151515"/>
<path d="M68.4497 92.7452C68.1911 89.19 67.2112 85.7247 65.5698 82.5605C64.3442 80.0887 62.7846 77.7971 60.9348 75.7501C60.4527 75.2063 60.0449 75.0333 59.7977 75.4411C59.5505 75.849 59.7977 76.4299 60.2673 76.9614L60.7494 77.5176C64.1657 81.4611 66.3187 86.3399 66.9294 91.5215C66.9233 91.8994 66.9607 92.2768 67.0406 92.6463C67.1959 93.0713 67.4451 93.4558 67.7699 93.771C68.0294 93.9564 68.3261 93.771 68.5362 93.771C68.462 93.2643 68.4744 93.0047 68.4497 92.7452Z" fill="#151515"/>
<path d="M57.2512 82.5976C58.8033 84.3048 59.7465 86.4779 59.9333 88.7776C60.0147 89.1272 60.1437 89.4641 60.3165 89.7787C61.0705 90.3967 61.4413 90.1866 61.4413 89.4079C61.177 86.4593 59.9575 83.6775 57.9681 81.4852C57.4984 81.0031 57.1153 80.8548 56.8928 81.2627C56.8127 81.4956 56.8041 81.7471 56.868 81.9849C56.9318 82.2227 57.0653 82.4361 57.2512 82.5976Z" fill="#151515"/>
<g opacity="0.9">
<path opacity="0.9" d="M68.5973 109.592C66.7063 106.477 64.8028 103.412 62.9117 100.272C62.6118 99.6777 62.1925 99.1513 61.68 98.726C61.1674 98.3007 60.5727 97.9856 59.933 97.8004C59.0183 97.615 58.1037 97.4049 57.1643 97.1329C56.8298 96.9935 56.5484 96.751 56.3609 96.4408C53.2665 91.1447 50.8064 85.5026 49.0315 79.6312C48.9937 79.5057 48.983 79.3736 49 79.2436C49.0171 79.1136 49.0615 78.9888 49.1303 78.8772C49.7112 78.2963 50.3663 77.7648 50.9596 77.2457C51.5529 76.7266 51.8619 75.5277 51.4293 73.9703C50.5146 70.6702 49.6371 67.37 48.7225 64.0823C48.5455 63.1481 48.1256 62.277 47.505 61.5567C46.8845 60.8363 46.0852 60.2921 45.1875 59.9788C43.1943 59.4246 41.0783 59.5023 39.1311 60.2012C38.3771 60.4855 37.9816 61.1653 37.9692 62.3395C38.2906 64.6014 38.5007 66.8386 38.9333 69.1375C41.9821 85.7164 49.3157 100.96 60.9341 114.87C61.2375 115.331 61.645 115.714 62.1237 115.989C62.6025 116.264 63.1392 116.422 63.6904 116.452C65.6139 116.406 67.4619 115.694 68.9187 114.437C70.0187 113.448 69.9075 111.693 68.5973 109.592Z" fill="white"/>
<path opacity="0.9" d="M68.4497 92.7451C68.1911 89.1899 67.2112 85.7246 65.5698 82.5605C64.3442 80.0886 62.7846 77.7971 60.9348 75.7501C60.4527 75.2063 60.0449 75.0332 59.7977 75.4411C59.5505 75.849 59.7977 76.4299 60.2673 76.9614L60.7494 77.5176C64.1657 81.4611 66.3187 86.3398 66.9294 91.5215C66.9233 91.8994 66.9607 92.2768 67.0406 92.6463C67.1959 93.0713 67.4451 93.4558 67.7699 93.771C68.0294 93.9564 68.3261 93.771 68.5362 93.771C68.462 93.2642 68.4744 93.0047 68.4497 92.7451Z" fill="white"/>
<path opacity="0.9" d="M57.2512 82.5976C58.8033 84.3048 59.7465 86.4779 59.9333 88.7776C60.0147 89.1272 60.1437 89.4641 60.3165 89.7787C61.0705 90.3967 61.4413 90.1866 61.4413 89.4079C61.177 86.4593 59.9575 83.6775 57.9681 81.4852C57.4984 81.0031 57.1153 80.8548 56.8928 81.2627C56.8127 81.4956 56.8041 81.7471 56.868 81.9849C56.9318 82.2227 57.0653 82.4361 57.2512 82.5976Z" fill="white"/>
</g>
<path d="M341.445 27.3731L353.027 33.9609V29.8574C353.027 29.5731 353.027 29.2765 353.027 28.9922C353.027 28.7079 353.027 28.436 353.027 28.1641V28.0158C353.447 22.5897 357.563 20.5009 362.581 23.4055C364.853 24.8028 366.8 26.6697 368.291 28.881C369.416 21.465 375.435 18.8447 382.715 23.0347C390.799 27.7068 397.35 39.1027 397.35 48.3974V57.173C397.338 57.875 397.511 58.5677 397.852 59.1816C398.192 59.7956 398.688 60.3092 399.29 60.6709L406.113 64.6632C407.585 65.5362 408.806 66.7766 409.655 68.2628C410.505 69.7491 410.953 71.4304 410.958 73.1422C410.958 73.8524 410.771 74.5501 410.416 75.165C410.061 75.78 409.55 76.2905 408.935 76.6451C408.319 76.9998 407.621 77.186 406.911 77.1851C406.201 77.1842 405.504 76.9962 404.889 76.6401L341.618 40.0668C339.94 39.092 338.546 37.695 337.574 36.0146C336.603 34.3341 336.088 32.4288 336.081 30.4878C336.08 29.8595 336.245 29.2421 336.558 28.6975C336.871 28.1528 337.322 27.7001 337.866 27.3846C338.409 27.0691 339.026 26.902 339.654 26.9C340.282 26.8979 340.9 27.0611 341.445 27.3731V27.3731Z" fill="#E6E6E6"/>
<path d="M429.732 25.655L438.149 30.4878V27.4719C438.149 27.2618 438.149 27.0517 438.149 26.8416C438.149 26.6315 438.149 26.4337 438.149 26.2359V26.1618C438.458 22.2189 441.45 20.6986 445.096 22.8122C446.747 23.8239 448.163 25.1766 449.249 26.7798C450.077 21.4155 454.452 19.475 459.742 22.5279C465.626 25.9269 470.384 34.1834 470.384 40.9691V47.3592C470.389 47.8601 470.523 48.3513 470.775 48.7846C471.026 49.218 471.385 49.5786 471.818 49.8312L476.762 52.7358C477.838 53.3685 478.729 54.2719 479.347 55.3562C479.965 56.4405 480.289 57.6678 480.285 58.9158C480.284 59.427 480.15 59.9291 479.896 60.3727C479.642 60.8163 479.277 61.1861 478.836 61.4456C478.396 61.7051 477.896 61.8454 477.384 61.8526C476.873 61.8598 476.369 61.7337 475.922 61.4867L429.856 34.8879C428.635 34.1818 427.622 33.1672 426.917 31.9459C426.212 30.7246 425.84 29.3394 425.839 27.9293C425.838 27.4728 425.957 27.0242 426.184 26.6281C426.411 26.2321 426.737 25.9025 427.131 25.6722C427.526 25.442 427.973 25.3193 428.43 25.3163C428.886 25.3132 429.335 25.43 429.732 25.655V25.655Z" fill="#E6E6E6"/>
</svg>
