<svg width="504" height="547" viewBox="0 0 504 547" fill="none" xmlns="http://www.w3.org/2000/svg">
<path d="M424.421 296.216L336.098 262.82C334.647 262.271 333.318 261.442 332.188 260.38C331.058 259.317 330.148 258.042 329.511 256.628C328.874 255.214 328.521 253.688 328.474 252.137C328.427 250.586 328.686 249.042 329.237 247.591L375.457 125.35C376.565 122.419 378.792 120.049 381.648 118.76C384.503 117.471 387.754 117.369 390.685 118.477L446.705 139.656L473.155 200.74L439.65 289.391C438.532 292.313 436.301 294.672 433.446 295.951C430.592 297.231 427.346 297.326 424.421 296.216V296.216Z" fill="#F5F5F5"/>
<path d="M446.705 139.656L433.687 174.06C433.176 175.41 432.935 176.847 432.98 178.29C433.024 179.733 433.352 181.153 433.945 182.469C434.538 183.785 435.385 184.971 436.437 185.96C437.488 186.949 438.725 187.721 440.075 188.232L473.155 200.74L446.705 139.656Z" fill="#EBEBEB"/>
<path d="M432.995 177.253C432.995 177.253 429.412 185.438 437.852 191.826C438.171 192.064 438.504 192.283 438.848 192.482C442.88 194.911 469.403 210.698 469.645 210.054L473.143 200.801L440.063 188.292C440.063 188.292 431.926 184.831 432.995 177.253Z" fill="#E0E0E0"/>
<path d="M426.814 169.858C426.644 170.307 417.366 167.198 406.084 162.935C394.802 158.673 385.791 154.848 385.961 154.435C386.131 154.022 395.409 157.094 406.691 161.357C417.973 165.619 426.984 169.384 426.814 169.858Z" fill="#E0E0E0"/>
<path d="M445.843 199.295C445.673 199.732 430.493 194.437 411.925 187.382C393.357 180.326 378.432 174.303 378.602 173.853C378.772 173.404 393.952 178.711 412.532 185.779C431.113 192.846 445.977 198.846 445.843 199.295Z" fill="#E0E0E0"/>
<path d="M445.758 217.826C445.588 218.264 429.048 212.422 408.804 204.759C388.56 197.097 372.287 190.539 372.457 190.102C372.627 189.664 389.167 195.506 409.411 203.169C429.655 210.831 445.977 217.377 445.758 217.826Z" fill="#E0E0E0"/>
<path d="M439.966 233.152C439.796 233.589 423.255 227.748 403.011 220.085C382.767 212.422 366.494 205.816 366.664 205.427C366.834 205.039 383.375 210.831 403.619 218.482C423.863 226.133 440.136 232.703 439.966 233.152Z" fill="#E0E0E0"/>
<path d="M434.173 248.478C434.003 248.915 417.451 243.074 397.219 235.411C376.987 227.748 360.702 221.191 360.86 220.753C361.018 220.316 377.57 226.158 397.826 233.808C418.082 241.459 434.331 248.029 434.173 248.478Z" fill="#E0E0E0"/>
<path d="M428.368 263.803C428.21 264.241 411.658 258.387 391.426 250.736C371.194 243.086 354.897 236.516 355.067 236.079C355.237 235.642 371.777 241.483 392.021 249.133C412.265 256.784 428.538 263.354 428.368 263.803Z" fill="#E0E0E0"/>
<path d="M129.949 169.308L13.512 210.083C9.48609 211.493 7.36536 215.9 8.77521 219.926L67.1955 386.748C68.6054 390.774 73.0119 392.895 77.0378 391.485L193.475 350.709C197.501 349.299 199.622 344.893 198.212 340.867L139.792 174.044C138.382 170.019 133.975 167.898 129.949 169.308Z" fill="#EBEBEB"/>
<path d="M131.442 179.677L18.8101 219.12L76.7126 384.464L189.345 345.021L131.442 179.677Z" fill="#E0E0E0"/>
<path d="M129.427 178.899L16.7944 218.342L73.5932 380.534L186.225 341.091L129.427 178.899Z" fill="#FAFAFA"/>
<path d="M186.205 341.088L129.262 178.954L129.468 179.051L16.8569 218.507L16.9662 218.288C38.1939 279.202 57.9521 335.465 73.7272 380.483L73.545 380.398L186.217 341.088L73.63 380.69H73.4964V380.556C57.7092 335.538 38.0117 279.275 16.6626 218.373V218.203H16.8204L129.444 178.784H129.602V178.929L186.205 341.088Z" fill="#E0E0E0"/>
<path d="M146.263 355.078C146.263 355.078 171.341 333.923 175.688 311.894C173.172 315.386 169.974 318.332 166.288 320.555C162.602 322.777 158.505 324.231 154.242 324.827C154.242 324.827 153.744 347.9 146.263 355.078Z" fill="#E0E0E0"/>
<path d="M55.2858 254.482L49.3602 256.557C47.1953 257.316 46.0549 259.685 46.8131 261.85L48.8882 267.776C49.6463 269.94 52.0159 271.081 54.1807 270.323L60.1063 268.248C62.2712 267.49 63.4116 265.12 62.6534 262.955L60.5783 257.029C59.8202 254.865 57.4507 253.724 55.2858 254.482Z" fill="#EBEBEB"/>
<path d="M54.5639 264.69C54.5226 264.712 54.4768 264.723 54.4304 264.723C54.3839 264.723 54.3381 264.712 54.2968 264.69L51.5765 263.112C51.5106 263.061 51.4654 262.989 51.4493 262.907C51.4332 262.826 51.4474 262.742 51.4892 262.67C51.5309 262.598 51.5974 262.545 51.6761 262.519C51.7548 262.492 51.8403 262.496 51.9166 262.529L54.3454 263.913L57.2113 257.841C57.2531 257.76 57.3236 257.698 57.4091 257.667C57.4945 257.635 57.5885 257.637 57.6728 257.671C57.7139 257.691 57.7507 257.718 57.781 257.752C57.8113 257.786 57.8345 257.825 57.8493 257.868C57.864 257.912 57.8699 257.957 57.8667 258.002C57.8635 258.048 57.8513 258.092 57.8307 258.133L54.8068 264.593C54.7756 264.626 54.7378 264.651 54.6959 264.668C54.654 264.685 54.609 264.692 54.5639 264.69V264.69Z" fill="white"/>
<path d="M132.334 229.376C132.334 229.473 117.761 234.682 99.6788 241.01C81.5964 247.337 66.8901 252.388 66.8901 252.303C66.8901 252.218 81.4629 246.997 99.5574 240.669C117.652 234.342 132.31 229.291 132.334 229.376Z" fill="#E0E0E0"/>
<path d="M97.9908 252.716C97.9908 252.716 97.6144 252.886 96.9343 253.153L93.9955 254.246C91.5667 255.145 88.0692 256.371 84.2803 257.707C80.4914 259.043 76.9939 260.233 74.5651 261.071L71.5898 262.055C71.2297 262.187 70.8603 262.292 70.4847 262.37C70.8243 262.193 71.1776 262.042 71.5412 261.921L74.4801 260.84C76.9089 259.929 80.4063 258.703 84.1953 257.367C87.9842 256.031 91.4817 254.853 93.9105 254.003L96.8857 253.019C97.2447 252.887 97.6144 252.785 97.9908 252.716V252.716Z" fill="#E0E0E0"/>
<path d="M133.876 233.844C133.876 233.929 119.304 239.139 101.209 245.466C83.1145 251.793 68.4202 256.857 68.4202 256.76C68.4202 256.663 82.993 251.465 101.1 245.138C119.206 238.811 133.876 233.747 133.876 233.844Z" fill="#E0E0E0"/>
<path d="M63.7447 278.647L57.8191 280.722C55.6542 281.48 54.5139 283.85 55.272 286.015L57.3471 291.94C58.1052 294.105 60.4748 295.245 62.6396 294.487L68.5652 292.412C70.7301 291.654 71.8705 289.284 71.1124 287.12L69.0373 281.194C68.2791 279.029 65.9096 277.889 63.7447 278.647Z" fill="#EBEBEB"/>
<path d="M63.0283 288.857C62.9849 288.878 62.9371 288.889 62.8887 288.889C62.8402 288.889 62.7924 288.878 62.749 288.857L60.0409 287.278C60.0016 287.257 59.9672 287.227 59.9396 287.192C59.9121 287.157 59.892 287.117 59.8806 287.073C59.8692 287.03 59.8668 286.985 59.8735 286.941C59.8802 286.897 59.8958 286.854 59.9195 286.817C59.9408 286.777 59.97 286.743 60.0052 286.715C60.0403 286.688 60.0808 286.668 60.124 286.656C60.1672 286.645 60.2123 286.642 60.2565 286.649C60.3007 286.656 60.343 286.671 60.3809 286.695L62.8097 288.08L65.6757 281.947C65.7152 281.867 65.7835 281.805 65.8669 281.773C65.9503 281.742 66.0425 281.743 66.125 281.777C66.2071 281.814 66.2711 281.882 66.303 281.966C66.3349 282.051 66.332 282.144 66.2951 282.226L63.2712 288.699C63.2442 288.741 63.2086 288.777 63.1667 288.804C63.1249 288.831 63.0777 288.849 63.0283 288.857V288.857Z" fill="white"/>
<path d="M140.798 253.542C140.798 253.639 126.226 258.837 108.131 265.176C90.0366 271.515 75.3423 276.555 75.3423 276.47C75.3423 276.385 89.9151 271.163 108.01 264.836C126.104 258.509 140.774 253.457 140.798 253.542Z" fill="#E0E0E0"/>
<path d="M106.455 276.883C106.455 276.883 106.079 277.053 105.387 277.32L102.46 278.413C100.031 279.312 96.5336 280.538 92.7446 281.874C88.9557 283.21 85.4582 284.4 83.0294 285.238L80.0542 286.222C79.694 286.354 79.3247 286.459 78.9491 286.537C79.2872 286.356 79.6408 286.206 80.0056 286.088L82.9444 285.007C85.3732 284.096 88.8707 282.87 92.6596 281.534C96.4486 280.198 99.946 279.02 102.375 278.17L105.35 277.186C105.709 277.054 106.079 276.952 106.455 276.883Z" fill="#E0E0E0"/>
<path d="M142.377 258.035C142.377 258.12 127.804 263.33 109.71 269.657C91.6153 275.984 76.921 281.048 76.921 280.951C76.921 280.854 91.4938 275.656 109.588 269.329C127.683 263.002 142.377 257.914 142.377 258.035Z" fill="#E0E0E0"/>
<path d="M72.2158 302.811L66.2902 304.886C64.1254 305.644 62.985 308.014 63.7431 310.179L65.8182 316.104C66.5763 318.269 68.9459 319.409 71.1107 318.651L77.0363 316.576C79.2012 315.818 80.3416 313.449 79.5835 311.284L77.5084 305.358C76.7502 303.193 74.3807 302.053 72.2158 302.811Z" fill="#EBEBEB"/>
<path d="M71.4927 313.023C71.4493 313.045 71.4015 313.056 71.353 313.056C71.3046 313.056 71.2568 313.045 71.2134 313.023L68.4931 311.469C68.4488 311.45 68.409 311.422 68.3764 311.386C68.3438 311.351 68.3191 311.309 68.304 311.263C68.2888 311.217 68.2836 311.169 68.2886 311.121C68.2936 311.073 68.3088 311.027 68.3331 310.985C68.3574 310.943 68.3902 310.907 68.4295 310.879C68.4688 310.851 68.5135 310.832 68.5608 310.823C68.6081 310.813 68.6568 310.814 68.7038 310.825C68.7507 310.836 68.7948 310.857 68.8332 310.886L71.262 312.27L74.1279 306.138C74.145 306.095 74.1704 306.056 74.2028 306.024C74.2352 305.991 74.2739 305.966 74.3165 305.949C74.359 305.931 74.4046 305.923 74.4505 305.924C74.4964 305.925 74.5417 305.935 74.5835 305.954C74.6254 305.973 74.663 306 74.694 306.034C74.7251 306.067 74.749 306.107 74.7643 306.15C74.7796 306.194 74.786 306.24 74.7831 306.286C74.7801 306.331 74.768 306.376 74.7473 306.417L71.7234 312.89C71.664 312.959 71.5826 313.007 71.4927 313.023V313.023Z" fill="white"/>
<path d="M149.263 277.709C149.263 277.806 134.69 283.003 116.595 289.343C98.5009 295.682 83.8067 300.721 83.8067 300.624C83.8067 300.527 98.3795 295.33 116.486 289.002C134.593 282.675 149.226 277.624 149.263 277.709Z" fill="#E0E0E0"/>
<path d="M114.92 301.037C114.575 301.213 114.218 301.363 113.851 301.486L110.912 302.579C108.483 303.478 104.998 304.705 101.197 306.04C97.3958 307.376 93.9105 308.554 91.4817 309.404L88.5064 310.388C88.1457 310.518 87.7765 310.624 87.4013 310.704C87.7395 310.523 88.093 310.373 88.4579 310.254L91.3967 309.161C93.8255 308.263 97.323 307.036 101.112 305.7C104.901 304.365 108.398 303.187 110.827 302.337L113.79 301.353C114.16 301.226 114.537 301.121 114.92 301.037V301.037Z" fill="#E0E0E0"/>
<path d="M150.878 282.177C150.878 282.262 136.305 287.472 118.211 293.799C100.116 300.126 85.4218 305.19 85.4218 305.093C85.4218 304.996 99.9946 299.798 118.089 293.459C136.184 287.12 150.793 282.08 150.878 282.177Z" fill="#E0E0E0"/>
<path d="M80.6747 326.975L74.7491 329.05C72.5843 329.808 71.4439 332.177 72.202 334.342L74.2771 340.268C75.0352 342.433 77.4048 343.573 79.5696 342.815L85.4952 340.74C87.6601 339.982 88.8005 337.612 88.0424 335.447L85.9672 329.522C85.2091 327.357 82.8396 326.216 80.6747 326.975Z" fill="#EBEBEB"/>
<path d="M79.9449 337.19C79.9027 337.208 79.8572 337.217 79.8113 337.217C79.7654 337.217 79.7199 337.208 79.6777 337.19L76.9575 335.611C76.8802 335.564 76.8246 335.489 76.8029 335.401C76.7813 335.314 76.7954 335.221 76.8421 335.144C76.8888 335.066 76.9643 335.011 77.052 334.989C77.1397 334.967 77.2323 334.981 77.3096 335.028L79.7384 336.413L82.6044 330.341C82.6415 330.259 82.7097 330.195 82.7939 330.163C82.8782 330.131 82.9716 330.134 83.0537 330.171C83.1337 330.21 83.1957 330.278 83.2273 330.362C83.2588 330.445 83.2576 330.537 83.2238 330.62L80.1878 337.093C80.1223 337.155 80.0353 337.19 79.9449 337.19Z" fill="white"/>
<path d="M157.727 301.875C157.727 301.972 143.154 307.17 125.06 313.497C106.965 319.824 92.2711 324.888 92.2711 324.791C92.2711 324.694 106.844 319.496 124.938 313.169C143.033 306.842 157.691 301.754 157.727 301.875Z" fill="#E0E0E0"/>
<path d="M123.372 325.204C123.034 325.385 122.68 325.535 122.315 325.653L119.376 326.746C116.948 327.645 113.45 328.872 109.661 330.207C105.872 331.543 102.375 332.721 99.946 333.571L96.9708 334.555C96.2664 334.774 95.8657 334.883 95.8657 334.871C96.2038 334.69 96.5574 334.54 96.9222 334.421L99.861 333.328C102.29 332.43 105.787 331.203 109.576 329.867C113.365 328.532 116.863 327.354 119.291 326.504L122.267 325.52C122.627 325.39 122.997 325.284 123.372 325.204Z" fill="#E0E0E0"/>
<path d="M159.294 306.344C159.294 306.429 144.721 311.639 126.626 317.966C108.532 324.293 93.8376 329.345 93.8376 329.26C93.8376 329.175 108.41 323.965 126.505 317.626C144.599 311.287 159.257 306.247 159.294 306.344Z" fill="#E0E0E0"/>
<path d="M29.5473 202.537L32.5104 211.038C33.3392 213.405 35.0735 215.345 37.3324 216.434C39.5913 217.522 42.1899 217.669 44.5573 216.843L106.856 194.984C108.027 194.575 109.106 193.939 110.031 193.113C110.957 192.286 111.71 191.285 112.248 190.168C112.786 189.05 113.098 187.837 113.167 186.598C113.236 185.36 113.06 184.12 112.649 182.949L109.685 174.448L29.5473 202.537Z" fill="#E0E0E0"/>
<path d="M70.4483 191.025C68.7933 191.607 67.0028 191.685 65.3034 191.249C63.6041 190.813 62.0722 189.883 60.9018 188.576C59.7314 187.269 58.9752 185.644 58.7287 183.907C58.4823 182.17 58.7568 180.399 59.5175 178.818C60.2782 177.237 61.4908 175.918 63.0019 175.026C64.513 174.135 66.2546 173.712 68.0062 173.811C69.7578 173.91 71.4406 174.526 72.8417 175.582C74.2427 176.638 75.299 178.086 75.8767 179.743C76.6495 181.959 76.512 184.391 75.4944 186.506C74.4768 188.621 72.6622 190.246 70.4483 191.025ZM65.7121 177.508C64.6914 177.865 63.7994 178.516 63.1488 179.379C62.4983 180.243 62.1184 181.28 62.0574 182.359C61.9964 183.439 62.2569 184.512 62.8059 185.443C63.355 186.374 64.168 187.122 65.142 187.591C66.116 188.06 67.2073 188.23 68.2778 188.079C69.3483 187.928 70.3499 187.462 71.1558 186.742C71.9618 186.021 72.5359 185.078 72.8056 184.031C73.0752 182.984 73.0283 181.88 72.6706 180.86C72.1916 179.493 71.1897 178.373 69.885 177.744C68.5802 177.116 67.0794 177.031 65.7121 177.508V177.508Z" fill="#E0E0E0"/>
<path d="M120.239 213.102C120.239 213.26 103.869 219.174 83.5516 226.278C63.2347 233.383 46.7189 239.03 46.6582 238.872C46.5975 238.714 63.0283 232.8 83.3452 225.695C103.662 218.591 120.178 212.896 120.239 213.102Z" fill="#E0E0E0"/>
<path d="M99.1931 216.078C99.1931 216.236 92.0281 218.919 83.0537 222.065C74.0793 225.21 66.7565 227.675 66.6958 227.457C66.635 227.238 73.8729 224.615 82.8473 221.47C91.8217 218.324 99.1445 215.92 99.1931 216.078Z" fill="#E0E0E0"/>
<path d="M422.903 462.152C427.375 460.053 432.402 459.444 437.245 460.415C439.844 460.84 442.564 461.63 444.325 463.573C446.086 465.516 446.438 468.965 444.398 470.641C443.081 471.536 441.489 471.936 439.905 471.77C436.104 471.77 431.902 471.053 428.878 473.337C427.141 474.636 426 476.798 423.935 477.441C422.896 477.683 421.807 477.577 420.834 477.138C419.862 476.699 419.061 475.952 418.556 475.012C417.574 473.113 417.357 470.91 417.948 468.855C418.203 467.432 418.783 466.087 419.642 464.924C420.501 463.762 421.617 462.813 422.903 462.152Z" fill="#151515"/>
<path d="M412.848 442.867C415.52 446.668 420.705 445.417 423.11 443.086C425.514 440.754 426.522 437.39 427.445 434.184C429.558 426.837 431.695 419.138 430.129 411.657C429.739 409.409 428.744 407.31 427.251 405.585C426.489 404.729 425.517 404.088 424.43 403.726C423.343 403.363 422.18 403.293 421.057 403.521C418.434 404.213 416.819 406.775 415.641 409.204C412.178 416.405 410.365 424.287 410.334 432.278C410.334 435.994 410.759 439.88 412.848 442.952" fill="#151515"/>
<path d="M405.525 448.332C406.897 446.541 407.811 444.443 408.188 442.218C408.565 439.994 408.393 437.712 407.687 435.569C406.219 431.302 403.606 427.521 400.133 424.639C396.185 421.126 391.59 418.416 386.605 416.661C384.679 415.882 382.608 415.53 380.533 415.628C379.495 415.687 378.488 415.999 377.599 416.537C376.71 417.074 375.966 417.821 375.432 418.713C373.999 421.433 375.432 424.724 376.841 427.408C379.441 432.146 382.413 436.67 385.731 440.936C388.39 444.373 391.438 447.761 395.506 449.316C399.575 450.87 403.776 450.676 405.926 447.871" fill="#151515"/>
<path d="M412.678 500.32C412.811 499.755 412.889 499.177 412.909 498.596C413.042 497.381 413.188 495.754 413.37 493.872C413.603 491.543 413.96 489.228 414.439 486.938C415.056 484.15 415.896 481.417 416.953 478.765C417.99 476.115 419.396 473.625 421.13 471.369C422.543 469.53 424.347 468.028 426.413 466.973C427.811 466.278 429.312 465.811 430.858 465.589C431.439 465.568 432.017 465.486 432.582 465.346C431.997 465.283 431.406 465.283 430.821 465.346C429.219 465.475 427.653 465.886 426.194 466.56C424.019 467.582 422.111 469.096 420.62 470.98C418.816 473.272 417.359 475.817 416.297 478.534C415.219 481.224 414.382 484.003 413.795 486.84C413.348 489.16 413.04 491.504 412.872 493.86C412.714 495.863 412.666 497.503 412.642 498.608C412.586 499.178 412.599 499.753 412.678 500.32V500.32Z" fill="#263238"/>
<path d="M412.994 496.689C413.03 496.423 413.03 496.154 412.994 495.888V493.629C412.994 491.637 412.994 488.771 413.091 485.128C413.273 478 413.88 470.337 415.07 459.529C416.188 449.364 417.693 437.536 419.284 429.849C419.624 428.1 419.964 426.521 420.292 425.149C420.62 423.777 420.863 422.574 421.118 421.615C421.373 420.656 421.507 419.963 421.652 419.381C421.719 419.117 421.768 418.849 421.798 418.579C421.676 418.818 421.582 419.071 421.519 419.332C421.337 419.915 421.118 420.644 420.851 421.542C420.584 422.441 420.244 423.68 419.904 425.052C419.564 426.424 419.163 427.991 418.786 429.739C416.84 438.845 415.377 448.046 414.402 457.306C413.188 468.139 412.678 477.951 412.642 485.14C412.642 488.711 412.642 491.601 412.763 493.641C412.763 494.576 412.86 495.341 412.897 495.936C412.907 496.19 412.939 496.442 412.994 496.689Z" fill="#263238"/>
<path d="M413.042 477.672C413.11 476.864 413.11 476.051 413.042 475.243C412.905 473.066 412.657 470.898 412.301 468.746C411.781 465.55 411.075 462.388 410.188 459.274C409.161 455.44 407.837 451.693 406.229 448.065C403.481 441.376 399.544 435.242 394.608 429.958C393.747 429.055 392.831 428.207 391.863 427.42C391.45 427.056 391.074 426.703 390.649 426.424L389.592 425.695C388.956 425.207 388.277 424.776 387.564 424.408C389.896 426.23 392.107 428.201 394.183 430.31C398.97 435.631 402.807 441.735 405.525 448.356C407.1 451.963 408.43 455.671 409.508 459.456C410.422 462.539 411.172 465.668 411.755 468.831C412.253 471.539 412.544 473.689 412.714 475.267C412.765 476.076 412.874 476.879 413.042 477.672V477.672Z" fill="#263238"/>
<path d="M394.656 511.226L396.563 537.335H430.117L432.011 511.226H394.656Z" fill="#263238"/>
<path d="M436.031 500.927H391.426V511.225H436.031V500.927Z" fill="#263238"/>
<path d="M391.426 536.339V539.181H393.515H435.278V536.339H391.426Z" fill="#455A64"/>
<path d="M395.567 544.209L393.515 539.181H433.687L431.283 544.209H395.567Z" fill="#455A64"/>
<path d="M431.404 519.751C431.404 519.751 431.404 519.848 431.246 519.993L430.748 520.661L428.793 523.163L428.708 523.272L428.623 523.151L423.826 516.52H424.118L419.381 523.212L419.236 523.418L419.066 523.224L413.467 516.545H413.783L413.479 516.933L408.464 523.212L408.306 523.43L408.148 523.212C406.448 520.783 404.857 518.548 403.412 516.52H403.691L397.874 523.151L397.765 523.272L397.68 523.139C396.915 521.852 396.308 520.819 395.859 520.078L395.397 519.265C395.336 519.175 395.287 519.077 395.251 518.973C395.251 518.973 395.324 519.046 395.446 519.228L395.968 520.018L397.874 523.017H397.692L403.424 516.302L403.57 516.132L403.704 516.314L408.476 522.981H408.148L413.188 516.702L413.504 516.314L413.662 516.107L413.82 516.302L419.418 522.993H419.102L423.875 516.326L424.008 516.132L424.154 516.326C426.036 519.034 427.652 521.329 428.854 523.042H428.672L430.712 520.613L431.258 519.981L431.404 519.751Z" fill="#E0E0E0"/>
<path d="M432.485 511.043C432.485 511.165 424.081 511.262 413.71 511.262C403.339 511.262 394.936 511.165 394.936 511.043C394.936 510.922 403.339 510.837 413.71 510.837C424.081 510.837 432.485 510.934 432.485 511.043Z" fill="#455A64"/>
<path d="M434.185 539.472C434.185 539.582 425.041 539.679 413.783 539.679C402.526 539.679 393.381 539.582 393.381 539.472C393.381 539.363 402.514 539.254 413.783 539.254C425.053 539.254 434.185 539.351 434.185 539.472Z" fill="#263238"/>
<path d="M103.273 456.164C103.176 456.274 102.411 455.812 101.561 455.132C100.711 454.452 100.092 453.808 100.189 453.687C100.286 453.566 101.039 454.039 101.889 454.719C102.739 455.399 103.358 456.043 103.273 456.164Z" fill="#263238"/>
<path d="M126.59 421.384C126.921 418.145 126.653 414.872 125.801 411.73C124.78 408.633 122.4 405.804 119.219 405.136C115.575 404.383 111.859 406.678 109.819 409.787C107.779 412.896 107.087 416.66 106.479 420.316C102.336 445.573 100.81 471.191 101.925 496.762L116.79 498.851C123.262 472.171 125.376 448.842 126.59 421.384Z" fill="#455A64"/>
<path d="M117.093 404.978L117.02 405.221L116.778 405.889L115.782 408.463C115.575 409.022 115.296 409.678 115.077 410.321L114.361 412.568L113.523 415.155L112.758 418.106C111.51 422.98 110.549 427.923 109.88 432.909C109.078 438.495 108.556 444.689 108.131 451.198C107.378 464.229 107.257 476.057 106.917 484.606C106.759 488.893 106.613 492.354 106.455 494.734C106.37 495.949 106.309 496.811 106.261 497.491C106.261 497.77 106.261 498.013 106.261 498.195C106.261 498.377 106.261 498.438 106.261 498.438C106.261 498.438 106.261 498.365 106.261 498.195C106.261 498.025 106.261 497.77 106.261 497.479C106.261 496.811 106.261 495.888 106.346 494.722C106.443 492.293 106.528 488.881 106.637 484.594C106.88 476.093 106.941 464.216 107.706 451.174C108.119 444.652 108.665 438.447 109.491 432.836C110.188 427.865 111.189 422.942 112.491 418.094L113.292 415.143C113.608 414.236 113.899 413.374 114.167 412.556L114.944 410.309C115.175 409.629 115.466 409.022 115.685 408.463L116.778 405.937C116.891 405.67 116.988 405.452 117.069 405.282C117.06 405.18 117.068 405.077 117.093 404.978V404.978Z" fill="#263238"/>
<path d="M118.466 405.039C119.24 405.954 119.856 406.992 120.287 408.111C121.424 411.183 121.884 414.463 121.635 417.729C121.247 425.951 120.506 437.269 119.534 449.777C118.563 462.285 117.458 473.579 116.583 481.752C116.134 485.833 115.758 489.136 115.478 491.467C115.332 492.572 115.223 493.447 115.138 494.09L115.041 494.771C115.047 494.847 115.047 494.924 115.041 495.001C115.041 495.001 115.041 494.928 115.041 494.771C115.041 494.613 115.041 494.358 115.041 494.078C115.041 493.435 115.175 492.56 115.272 491.443C115.502 489.111 115.818 485.82 116.207 481.728C116.984 473.543 118.016 462.297 119 449.741C119.984 437.184 120.773 425.926 121.259 417.729C121.523 414.501 121.109 411.254 120.044 408.196C119.612 407.099 119.084 406.042 118.466 405.039V405.039Z" fill="#263238"/>
<path d="M128.776 443.523C127.8 443.452 126.846 443.205 125.958 442.794C125.015 442.549 124.123 442.138 123.323 441.58C124.3 441.644 125.256 441.891 126.141 442.309C127.085 442.552 127.978 442.963 128.776 443.523V443.523Z" fill="#263238"/>
<path d="M130.573 428.368C129.768 429.011 128.861 429.516 127.889 429.861C126.987 430.361 126.005 430.702 124.987 430.869C126.69 429.718 128.58 428.871 130.573 428.368V428.368Z" fill="#263238"/>
<path d="M129.638 415.993C128.17 416.258 126.659 416.154 125.242 415.689C125.96 415.483 126.717 415.446 127.452 415.58C128.203 415.546 128.951 415.688 129.638 415.993Z" fill="#263238"/>
<path d="M114.288 408.074C114.167 408.147 113.511 407.333 112.843 406.265C112.357 405.647 112.013 404.93 111.835 404.164C111.956 404.091 112.612 404.892 113.292 405.973C113.972 407.054 114.446 407.989 114.288 408.074Z" fill="#263238"/>
<path d="M109.224 415.555C108.548 415.798 107.823 415.873 107.111 415.774C106.395 415.842 105.674 415.734 105.01 415.458C105.686 415.215 106.412 415.14 107.123 415.239C107.839 415.171 108.56 415.279 109.224 415.555V415.555Z" fill="#263238"/>
<path d="M105.581 430.48C104.804 430.449 104.044 430.242 103.359 429.873C102.609 429.66 101.916 429.283 101.33 428.768C102.108 428.799 102.868 429.007 103.553 429.375C104.303 429.588 104.995 429.966 105.581 430.48V430.48Z" fill="#263238"/>
<path d="M105.192 443.098C105.192 443.244 104.379 443.547 103.298 443.766C102.217 443.984 101.33 444.069 101.294 443.924C101.258 443.778 102.12 443.474 103.188 443.256C103.833 443.038 104.522 442.984 105.192 443.098Z" fill="#263238"/>
<path d="M103.516 463.694C103.516 463.84 102.642 464.119 101.5 464.325C100.819 464.528 100.097 464.562 99.3996 464.422C100.012 464.057 100.704 463.845 101.415 463.803C102.096 463.593 102.818 463.555 103.516 463.694Z" fill="#263238"/>
<path d="M102.302 475.061C102.375 475.182 101.622 475.717 100.626 476.275C99.6303 476.834 98.7681 477.125 98.7073 476.992C98.6466 476.858 99.3874 476.336 100.383 475.777C101.379 475.219 102.302 474.927 102.302 475.061Z" fill="#263238"/>
<path d="M111.616 487.958C111.495 488.031 110.839 487.132 110.159 485.942C109.667 485.261 109.328 484.483 109.163 483.659C109.285 483.586 109.941 484.485 110.621 485.675C111.113 486.356 111.452 487.134 111.616 487.958V487.958Z" fill="#263238"/>
<path d="M114.3 466.523C114.397 466.621 113.669 467.507 112.673 468.491C111.677 469.474 110.778 470.179 110.669 470.069C110.56 469.96 111.301 469.086 112.296 468.102C113.292 467.118 114.191 466.414 114.3 466.523Z" fill="#263238"/>
<path d="M113.705 455.266C113.596 455.375 112.928 454.817 112.199 454.052C111.471 453.287 110.985 452.546 111.082 452.449C111.179 452.352 111.859 452.898 112.588 453.663C113.317 454.428 113.814 455.169 113.705 455.266Z" fill="#263238"/>
<path d="M115.551 440.9C115.66 440.997 115.053 441.86 114.191 442.807C113.329 443.754 112.552 444.471 112.442 444.373C112.333 444.276 112.94 443.414 113.79 442.455C114.64 441.495 115.442 440.803 115.551 440.9Z" fill="#263238"/>
<path d="M116.583 430.48C116.474 430.589 115.636 429.922 114.689 428.999C113.742 428.076 113.074 427.238 113.171 427.128C113.268 427.019 114.118 427.687 115.065 428.622C116.013 429.557 116.68 430.371 116.583 430.48Z" fill="#263238"/>
<path d="M118.624 416.369C118.463 417.135 118.135 417.856 117.664 418.482C117.02 419.575 116.389 420.401 116.268 420.328C116.146 420.255 116.559 419.308 117.215 418.215C117.871 417.122 118.49 416.296 118.624 416.369Z" fill="#263238"/>
<path d="M122.449 403.302C122.582 403.375 122.206 404.322 121.611 405.415C121.016 406.508 120.397 407.346 120.299 407.285C120.415 406.526 120.701 405.804 121.137 405.172C121.732 404.067 122.315 403.241 122.449 403.302Z" fill="#263238"/>
<path d="M126.796 409.241C126.857 409.374 126.262 409.787 125.461 410.176C124.659 410.564 123.967 410.759 123.906 410.625C123.845 410.492 124.44 410.079 125.242 409.69C126.043 409.301 126.736 409.107 126.796 409.241Z" fill="#263238"/>
<path d="M126.894 456.165C124.876 456.017 122.966 455.201 121.465 453.845C122.411 454.131 123.326 454.51 124.198 454.975C125.135 455.278 126.038 455.677 126.894 456.165V456.165Z" fill="#263238"/>
<path d="M125.12 466.098C125.12 466.244 124.258 466.536 123.117 466.754C122.438 466.972 121.716 467.018 121.016 466.888C121.623 466.516 122.31 466.291 123.02 466.232C124.161 466.013 125.096 465.953 125.12 466.098Z" fill="#263238"/>
<path d="M122.947 483.137C122.862 483.258 121.732 482.469 120.688 481.157C119.992 480.408 119.503 479.492 119.267 478.498C119.946 479.219 120.559 480 121.101 480.829C121.786 481.54 122.404 482.312 122.947 483.137V483.137Z" fill="#263238"/>
<path d="M99.0352 490.933C98.938 490.824 99.5452 490.144 100.383 489.427C101.221 488.711 101.986 488.213 102.083 488.334C102.18 488.456 101.573 489.111 100.735 489.84C99.8974 490.569 99.1323 491.042 99.0352 490.933Z" fill="#263238"/>
<path d="M92.1617 453.748C91.1902 450.724 89.3807 447.202 86.2112 447.154C85.2667 447.205 84.3535 447.509 83.5672 448.035C82.7809 448.561 82.1505 449.288 81.7422 450.141C80.8698 451.827 80.4513 453.71 80.5278 455.606C80.9192 469.066 83.2128 482.403 87.3406 495.22H98.9623C98.8216 481.13 96.5282 467.145 92.1617 453.748V453.748Z" fill="#455A64"/>
<path d="M71.1648 434.719C70.5899 431.886 69.0803 429.329 66.8782 427.457C64.676 425.585 61.9089 424.507 59.0208 424.396C53.8839 425.295 51.8923 430.347 51.2851 435.52C50.6779 440.694 52.2809 445.843 53.8717 450.81C58.956 466.743 64.0484 482.68 69.1489 498.621L83.6002 497.042C79.0826 475.693 76.4595 455.898 71.1648 434.719Z" fill="#455A64"/>
<path d="M86.2112 447.154C85.8356 447.67 85.5064 448.219 85.2275 448.793C84.6285 450.435 84.4409 452.199 84.681 453.93C84.8996 456.14 85.1547 458.788 85.5311 461.702C85.9076 464.617 86.4298 467.774 87.0855 471.15C88.3971 477.83 89.8787 483.804 90.8138 488.152C91.2874 490.326 91.6517 492.099 91.8703 493.325C91.9674 493.896 92.0524 494.357 92.1132 494.746C92.1739 495.135 92.186 495.244 92.1132 495.244C92.0501 495.091 92.0013 494.932 91.9674 494.77L91.6274 493.374C91.3117 492.074 90.8988 490.338 90.413 488.237C89.3808 483.889 87.8385 477.927 86.5269 471.235C85.8711 467.884 85.3125 464.678 85.0089 461.739C84.8146 460.281 84.6932 458.873 84.5717 457.573C84.4503 456.274 84.3289 455.047 84.2681 453.93C84.0606 452.148 84.3114 450.342 84.9968 448.684C85.2858 448.092 85.7002 447.57 86.2112 447.154V447.154Z" fill="#263238"/>
<path d="M59.288 423.983C58.6441 424.717 58.0593 425.5 57.5392 426.327C56.2092 428.635 55.4552 431.231 55.3412 433.892C55.2808 437.839 55.8842 441.768 57.1264 445.514C58.3408 449.813 59.7859 454.537 61.2553 459.48C64.1334 469.389 66.7322 478.352 68.6389 484.897L70.8248 492.621C71.0677 493.495 71.2498 494.187 71.3955 494.722C71.4749 494.962 71.5279 495.211 71.5534 495.462C71.442 495.237 71.3526 495.001 71.2862 494.758C71.1284 494.224 70.8976 493.544 70.6305 492.669C70.0597 490.811 69.2582 488.2 68.2867 485.006L60.7453 459.626C59.288 454.659 57.9157 449.91 56.6527 445.636C55.4156 441.836 54.8445 437.85 54.9647 433.856C55.1212 431.143 55.9564 428.512 57.3935 426.205C57.898 425.365 58.5382 424.614 59.288 423.983Z" fill="#263238"/>
<path d="M80.5035 495.499C80.3813 495.275 80.2718 495.043 80.1756 494.807C79.9935 494.333 79.6899 493.665 79.362 492.767C78.6698 490.993 77.7833 488.383 76.9332 485.104C76.0831 481.825 75.1116 477.817 74.2372 473.445C73.3628 469.074 72.4885 464.18 71.517 459.079C70.5454 453.979 69.4039 449.182 68.1045 444.895C66.9772 441.084 65.5686 437.362 63.8905 433.759C62.7497 431.335 61.4474 428.99 59.9923 426.74C59.4944 425.938 59.0451 425.343 58.7779 424.93C58.6258 424.723 58.4917 424.504 58.3772 424.274C58.5553 424.455 58.7178 424.65 58.8629 424.857C59.1665 425.27 59.6401 425.829 60.1623 426.63C61.6982 428.844 63.0584 431.175 64.2306 433.601C65.9725 437.195 67.4223 440.923 68.566 444.749C69.9375 449.432 71.0644 454.182 71.942 458.982C72.9014 464.07 73.8 468.928 74.6258 473.36C75.4516 477.793 76.326 481.715 77.2004 485.006C78.0747 488.297 78.8884 490.908 79.5198 492.694C79.8113 493.604 80.0906 494.284 80.2485 494.758C80.3611 494.995 80.4466 495.243 80.5035 495.499V495.499Z" fill="#263238"/>
<path d="M54.1875 448.429C54.1875 448.563 53.4346 448.879 52.4266 449.122C51.4187 449.365 50.5807 449.45 50.5565 449.304C50.5322 449.158 51.2972 448.854 52.3052 448.612C53.3131 448.369 54.1511 448.284 54.1875 448.429Z" fill="#263238"/>
<path d="M52.6573 438.568C51.8679 438.79 51.0473 438.88 50.2285 438.835C49.4207 438.949 48.5993 438.924 47.7997 438.762C48.556 438.402 49.3927 438.243 50.2285 438.301C51.0477 438.181 51.8837 438.273 52.6573 438.568Z" fill="#263238"/>
<path d="M54.2846 429.557C54.1875 429.679 53.3981 429.169 52.5359 428.428C51.6737 427.687 51.03 426.995 51.1272 426.886C51.2243 426.776 52.0016 427.274 52.8759 428.015C53.7503 428.756 54.3818 429.448 54.2846 429.557Z" fill="#263238"/>
<path d="M58.6929 421.226C58.8386 421.226 58.79 421.967 58.7779 422.805C58.7658 423.643 58.7779 424.36 58.5957 424.384C58.4136 424.408 58.2193 423.704 58.2436 422.793C58.2679 421.882 58.5836 421.19 58.6929 421.226Z" fill="#263238"/>
<path d="M67.6915 425.149C67.813 425.234 67.4608 425.951 66.9022 426.74C66.3436 427.529 65.7971 428.112 65.6878 428.027C65.5785 427.942 65.9185 427.238 66.465 426.436C67.0115 425.635 67.5701 425.064 67.6915 425.149Z" fill="#263238"/>
<path d="M73.5328 435.338C73.5328 435.484 72.8406 435.909 71.8691 436.309C70.8976 436.71 70.0475 436.917 69.9989 436.783C69.9504 436.649 70.6911 436.212 71.6627 435.824C72.6342 435.435 73.4843 435.168 73.5328 435.338Z" fill="#263238"/>
<path d="M77.0789 445.745C76.4363 446.303 75.6408 446.654 74.7958 446.753C73.9864 447.015 73.1195 447.045 72.2942 446.838C73.0733 446.529 73.8901 446.325 74.723 446.231C75.4856 445.974 76.2768 445.811 77.0789 445.745V445.745Z" fill="#263238"/>
<path d="M60.806 442.782C60.6724 442.782 60.806 442.017 61.0367 441.167C61.2674 440.317 61.6318 439.673 61.7653 439.722C61.8989 439.77 61.7653 440.487 61.5346 441.337C61.3039 442.187 61.0124 442.831 60.806 442.782Z" fill="#263238"/>
<path d="M63.0768 455.898C63.1259 455.133 63.3503 454.389 63.7326 453.724C64.2305 452.583 64.7406 451.708 64.8741 451.769C64.825 452.534 64.6007 453.278 64.2184 453.943C63.7205 455.084 63.2104 455.983 63.0768 455.898Z" fill="#263238"/>
<path d="M57.4664 459.492C56.7507 459.475 56.0453 459.318 55.3898 459.031C54.2847 458.679 53.386 458.363 53.4224 458.217C54.1452 458.125 54.8797 458.23 55.5476 458.521C56.677 458.873 57.5271 459.359 57.4664 459.492Z" fill="#263238"/>
<path d="M60.6966 470.179C60.7816 470.3 60.1623 470.883 59.3243 471.49C58.4864 472.098 57.7092 472.486 57.6242 472.377C57.5392 472.268 58.1585 471.661 59.0086 471.053C59.8587 470.446 60.6116 470.058 60.6966 470.179Z" fill="#263238"/>
<path d="M63.2955 480.841C63.2955 480.975 62.5668 481.291 61.5832 481.521C60.5995 481.752 59.7859 481.837 59.7494 481.704C59.713 481.57 60.4781 481.254 61.4617 481.011C62.4454 480.768 63.259 480.696 63.2955 480.841Z" fill="#263238"/>
<path d="M77.3703 454.659C77.4432 454.78 76.7874 455.303 75.8402 455.655C74.893 456.007 74.0429 456.056 74.0186 455.922C73.9943 455.788 74.7472 455.509 75.6459 455.157C76.5445 454.805 77.2975 454.525 77.3703 454.659Z" fill="#263238"/>
<path d="M79.3741 471.235C79.3134 471.369 78.5361 471.138 77.6375 470.713C76.7388 470.288 76.0588 469.839 76.1195 469.705C76.1802 469.572 76.9696 469.815 77.8682 470.227C78.7669 470.64 79.4469 471.102 79.3741 471.235Z" fill="#263238"/>
<path d="M82.9323 483.112C82.128 483.071 81.3415 482.86 80.6249 482.493C79.4105 482.019 78.4754 481.521 78.524 481.375C79.3243 481.417 80.1068 481.628 80.8192 481.995C82.0336 482.468 82.9808 482.966 82.9323 483.112Z" fill="#263238"/>
<path d="M63.8662 492.415C63.7934 492.281 64.7406 491.65 65.8336 490.788C66.9265 489.925 67.7766 489.148 67.8859 489.257C67.9952 489.367 67.303 490.302 66.1615 491.2C65.5264 491.814 64.7306 492.235 63.8662 492.415V492.415Z" fill="#263238"/>
<path d="M73.2414 486.343C73.0957 486.343 72.8892 485.566 72.5249 484.643C72.1606 483.72 71.7963 482.979 71.9177 482.894C72.0392 482.809 72.6464 483.44 73.0228 484.448C73.3993 485.456 73.3871 486.343 73.2414 486.343Z" fill="#263238"/>
<path d="M70.7276 472.098C70.6426 472.219 70.0354 471.928 69.3674 471.454C68.6995 470.98 68.238 470.495 68.3231 470.373C68.4081 470.252 69.0153 470.543 69.6832 471.017C70.3511 471.491 70.849 471.976 70.7276 472.098Z" fill="#263238"/>
<path d="M92.5868 449.728C92.6718 449.85 92.0767 450.433 91.2631 451.028C90.4494 451.623 89.7208 452.023 89.6358 451.902C89.5508 451.781 90.1337 451.21 90.9473 450.603C91.761 449.995 92.5868 449.607 92.5868 449.728Z" fill="#263238"/>
<path d="M95.9263 458.739C95.9263 458.885 95.0155 459.079 93.874 458.958C92.7325 458.836 91.8703 458.448 91.9067 458.314C91.9431 458.181 92.8418 458.314 93.9347 458.424C95.0277 458.533 95.9142 458.594 95.9263 458.739Z" fill="#263238"/>
<path d="M81.7543 460.768C81.7543 460.901 80.9407 461.205 79.8234 461.278C78.7062 461.351 77.8318 461.168 77.844 461.023C77.8561 460.877 78.7305 460.828 79.7991 460.756C80.8678 460.683 81.73 460.622 81.7543 460.768Z" fill="#263238"/>
<path d="M82.9808 452.242C82.9808 452.388 82.1065 452.412 81.1592 451.963C80.212 451.513 79.6655 450.87 79.7627 450.748C79.8598 450.627 80.5156 451.088 81.3778 451.477C82.2401 451.866 82.993 452.096 82.9808 452.242Z" fill="#263238"/>
<path d="M97.1408 468.418C97.0679 468.539 96.1814 468.126 95.1613 467.483C94.1412 466.839 93.3883 466.268 93.4733 466.098C93.5583 465.928 94.4327 466.402 95.4528 467.033C96.4729 467.665 97.2258 468.296 97.1408 468.418Z" fill="#263238"/>
<path d="M131.715 493.702H56.1184V507.096H131.715V493.702Z" fill="#151515"/>
<path d="M61.7653 504.449L70.9583 544.488H116.013L126.068 504.449H61.7653Z" fill="#151515"/>
<path d="M131.678 507.121C131.678 507.267 114.677 507.388 93.5947 507.388C72.5127 507.388 55.5112 507.267 55.5112 507.121C55.5112 506.975 72.5127 506.854 93.5947 506.854C114.677 506.854 131.678 506.988 131.678 507.121Z" fill="#263238"/>
<path d="M89.6358 461.059C89.5143 461.132 88.9921 460.537 88.4821 459.711C87.9721 458.885 87.6563 458.157 87.7777 458.084C87.8992 458.011 88.4214 458.606 88.9314 459.432C89.4415 460.257 89.7572 460.974 89.6358 461.059Z" fill="#263238"/>
<path d="M89.66 471.831C89.6237 471.132 89.7614 470.435 90.0608 469.803C90.413 468.722 90.8259 467.884 90.9595 467.933C90.9968 468.635 90.8591 469.336 90.5587 469.973C90.158 471.042 89.8058 471.879 89.66 471.831Z" fill="#263238"/>
<path d="M93.3518 483.148C93.2182 483.221 92.6596 482.311 92.1374 481.133C91.7184 480.449 91.4532 479.682 91.3602 478.886C91.4938 478.813 92.0524 479.724 92.5746 480.902C92.9936 481.585 93.2588 482.352 93.3518 483.148V483.148Z" fill="#263238"/>
<path d="M85.3732 492.257C85.2639 492.16 85.7132 491.467 86.3812 490.69C87.0491 489.913 87.6684 489.379 87.7899 489.476C87.9113 489.573 87.4498 490.277 86.7819 491.042C86.114 491.807 85.4825 492.415 85.3732 492.257Z" fill="#263238"/>
<path d="M83.6974 475.729C83.6974 475.875 82.9444 475.863 82.0701 475.729C81.1957 475.595 80.5156 475.34 80.5399 475.195C80.5642 475.049 81.2929 475.061 82.1551 475.195C83.0173 475.328 83.7216 475.583 83.6974 475.729Z" fill="#263238"/>
<path d="M346.7 401.626H167.43V544.585H346.7V401.626Z" fill="#E0E0E0"/>
<g opacity="0.3">
<path opacity="0.3" d="M180.485 401.917C201.591 409.447 224.871 411.062 247.52 411.487C252.219 411.572 256.968 411.56 261.51 412.701C266.051 413.843 270.435 416.429 272.767 420.498C275.305 424.93 275.038 430.48 273.593 435.374C272.148 440.268 269.658 444.798 267.861 449.57C264.679 458.014 263.705 467.131 265.031 476.056C265.44 479.859 266.72 483.516 268.772 486.743C269.811 488.346 271.212 489.684 272.86 490.65C274.509 491.616 276.361 492.183 278.268 492.305C285.081 492.402 289.744 485.711 293.12 479.785C306.977 455.497 321.962 427.93 330.828 401.419L180.485 401.917Z" fill="black"/>
</g>
<path d="M228.514 543.82C228.332 543.82 228.199 512.136 228.199 473.057C228.199 433.978 228.332 402.282 228.514 402.282C228.697 402.282 228.83 433.965 228.83 473.057C228.83 512.148 228.684 543.82 228.514 543.82Z" fill="#455A64"/>
<path d="M301.973 295.973C301.439 292.403 290.777 280.623 290.777 280.623C290.777 280.623 285.458 259.237 283.855 252.935C283.321 251.113 282.541 249.372 281.535 247.761C277.765 241.48 272.403 236.307 265.991 232.764L251.236 224.469L247.714 216.624L212.278 198.408L202.672 215.41C202.672 215.41 179.343 222.818 176.259 228.076C173.174 233.334 177.789 304.34 177.789 304.34C177.789 304.34 168.074 345.29 165.973 353.766C163.872 362.243 166.629 372.347 166.629 372.347L184.007 350.548C189.411 343.772 201.263 340.651 209.776 340.772L282.531 341.1L279.604 320.722L338.466 332.114C338.466 332.114 348.582 312.367 349.396 311.979C350.209 311.59 301.973 295.973 301.973 295.973Z" fill="#151515"/>
<path d="M210.772 222.028C210.262 221.506 214.877 237.111 220.682 253.008C223.804 261.598 225.395 270.669 225.381 279.809V337.372L260.259 335.004L255.049 297.09C255.049 297.09 250.799 272.632 249.609 263.33C248.516 254.829 244.751 231.756 244.751 231.756C244.751 231.756 225.381 236.905 210.772 222.028Z" fill="white"/>
<path d="M288.178 310.254C288.123 309.961 288.123 309.661 288.178 309.368C288.258 308.574 288.412 307.789 288.639 307.024C289.376 304.47 290.746 302.143 292.623 300.26C294.509 298.382 296.834 297.005 299.387 296.252C300.152 296.025 300.937 295.871 301.731 295.791C302.019 295.736 302.316 295.736 302.605 295.791C302.605 295.9 301.39 296.034 299.52 296.677C297.093 297.51 294.889 298.888 293.076 300.704C291.264 302.521 289.891 304.728 289.064 307.158C288.421 309.04 288.287 310.254 288.178 310.254Z" fill="#263238"/>
<path d="M289.975 296.459C291.596 295.507 293.428 294.977 295.306 294.916C297.166 294.659 299.061 294.885 300.808 295.572C300.808 295.766 298.379 295.293 295.355 295.572C292.331 295.851 290.048 296.641 289.975 296.459Z" fill="#263238"/>
<g opacity="0.3">
<path opacity="0.3" d="M174.279 327.875L171.243 331.3C174.409 335.207 178.699 338.048 183.533 339.436C188.405 340.47 193.383 340.918 198.361 340.772C200.378 340.869 202.398 340.677 204.36 340.201C206.339 339.63 208.173 338.513 210.226 338.392C211.602 338.398 212.971 338.594 214.294 338.975C215.625 339.352 217.032 339.373 218.374 339.035C219.039 338.856 219.628 338.467 220.054 337.927C220.48 337.387 220.722 336.724 220.742 336.036C205.603 331.611 190.02 328.874 174.279 327.875V327.875Z" fill="black"/>
</g>
<path d="M273.86 332.272L265.359 323.188L247.69 318.755C247.69 318.755 231.563 323.613 231.174 323.613C230.785 323.613 217.136 319.873 217.136 319.873L212.363 337.384L236.955 339.072L265.031 337.943C265.031 337.943 266.501 336.583 265.626 335.648C264.752 334.713 270.326 337.226 270.982 337.251C271.638 337.275 272.901 337.785 273.775 336.741C274.37 335.963 275.172 333.668 273.86 332.272Z" fill="#FFBE9D"/>
<path d="M265.626 335.587C264.673 335.407 263.738 335.138 262.833 334.785C261.133 334.251 258.765 333.571 256.13 332.842C253.495 332.114 251.066 331.628 249.305 331.324C248.342 331.198 247.393 330.974 246.475 330.656C247.448 330.614 248.422 330.687 249.378 330.875C251.701 331.199 254.004 331.653 256.276 332.235C258.551 332.812 260.79 333.526 262.979 334.372C263.91 334.663 264.799 335.071 265.626 335.587V335.587Z" fill="#EB996E"/>
<path d="M273.86 332.271C272.536 331.936 271.231 331.531 269.95 331.057C267.521 330.255 264.206 329.26 260.477 328.227C256.749 327.195 253.446 326.017 250.932 325.871C249.578 325.802 248.221 325.855 246.876 326.029C247.205 325.849 247.562 325.725 247.933 325.665C248.925 325.45 249.942 325.369 250.957 325.422C253.555 325.422 257.029 326.527 260.672 327.62C264.315 328.713 267.74 329.721 270.12 330.644C271.334 331.093 272.245 331.506 272.901 331.798C273.242 331.907 273.565 332.067 273.86 332.271V332.271Z" fill="#EB996E"/>
<path d="M176.259 228.076C176.259 228.076 163.568 236.905 160.472 249.607C157.375 262.31 144.004 314.226 146.749 321.986C149.494 329.746 202.854 337.372 202.854 337.372L209.181 310.655L182.076 303.235C182.076 303.235 182.428 278.522 182.768 268.285C183.108 258.048 176.259 228.076 176.259 228.076Z" fill="#151515"/>
<path d="M208.841 314.675L217.573 316.824L212.314 336.959L203.741 335.587L208.841 314.675Z" fill="white"/>
<path d="M146.555 319.241C146.555 319.241 146.555 319.69 146.688 320.455C146.983 321.63 147.632 322.685 148.546 323.479C150.866 325.641 155.298 327.438 160.909 328.446C163.471 329.296 166.398 329.964 169.519 330.668C172.64 331.373 176.016 332.089 179.562 332.806C186.666 334.263 194.523 335.793 202.854 337.347L202.49 337.578C203.085 335.149 203.704 332.49 204.372 329.83C205.866 323.758 207.323 317.784 208.695 312.161L208.914 312.525L184.881 305.712C181.563 304.315 177.972 303.684 174.377 303.867C171.644 304.019 168.959 304.652 166.446 305.737C164.849 306.428 163.324 307.274 161.892 308.263L160.787 309.064C160.667 309.162 160.536 309.247 160.399 309.319C160.399 309.319 160.508 309.198 160.739 309.003C160.97 308.809 161.322 308.506 161.807 308.141C163.218 307.095 164.737 306.204 166.337 305.482C168.866 304.335 171.581 303.657 174.352 303.478C178.011 303.245 181.675 303.851 185.063 305.251V305.251L209.169 312.003L209.46 312.076L209.388 312.367C208.015 317.99 206.57 323.916 205.089 330.049C204.433 332.696 203.801 335.319 203.194 337.785L203.121 338.076H202.83C194.499 336.51 186.654 334.955 179.55 333.474C176.004 332.733 172.64 331.992 169.507 331.263C166.374 330.535 163.435 329.843 160.86 328.956C155.177 327.875 150.744 326.005 148.401 323.734C147.471 322.899 146.833 321.788 146.579 320.564C146.491 320.128 146.483 319.68 146.555 319.241Z" fill="#263238"/>
<path d="M183.557 305.045C183.484 305.13 182.574 304.292 180.946 303.211C176.685 300.357 171.647 298.886 166.519 298.997C164.552 298.997 163.35 299.264 163.325 299.155C164.343 298.787 165.413 298.586 166.495 298.56C171.764 298.178 176.995 299.699 181.238 302.847C182.127 303.446 182.911 304.189 183.557 305.045Z" fill="#263238"/>
<path d="M187.116 261.569C187.16 262.11 187.16 262.655 187.116 263.196C187.116 264.253 187.006 265.759 186.861 267.629C186.557 271.357 186.01 276.494 185.027 282.129C184.258 286.949 183.134 291.707 181.663 296.361C181.371 297.248 181.056 298.049 180.801 298.79L180.023 300.539C179.796 301.037 179.515 301.51 179.186 301.948C179.338 301.427 179.541 300.922 179.793 300.442C179.999 299.92 180.218 299.324 180.473 298.669C180.728 298.013 180.971 297.163 181.238 296.24C182.565 291.568 183.623 286.824 184.407 282.031C185.379 276.421 185.998 271.308 186.411 267.592C186.593 265.831 186.751 264.362 186.873 263.196C186.888 262.646 186.97 262.1 187.116 261.569V261.569Z" fill="#263238"/>
<path d="M218.058 247.81C218.058 247.81 217.937 247.482 217.646 246.911C217.214 246.102 216.582 245.417 215.812 244.92C215.242 244.529 214.59 244.273 213.906 244.172C213.222 244.071 212.524 244.127 211.865 244.337C211.03 244.623 210.284 245.121 209.7 245.784C209.117 246.446 208.716 247.249 208.538 248.114L208.368 248.976L207.991 248.174C206.571 245.126 205.334 241.995 204.287 238.799C202.432 233.475 201.503 227.873 201.543 222.235C201.543 221.154 201.688 220.182 201.749 219.32C201.81 218.458 202.004 217.742 202.138 217.159C202.266 216.546 202.445 215.945 202.672 215.361C202.258 217.63 202.026 219.929 201.98 222.235C202.08 227.81 203.059 233.335 204.882 238.605C205.93 241.776 207.146 244.89 208.525 247.931L207.979 248.004C208.188 247.049 208.645 246.166 209.304 245.444C209.963 244.721 210.8 244.184 211.731 243.888C212.454 243.669 213.218 243.623 213.962 243.751C214.707 243.88 215.41 244.18 216.018 244.628C216.807 245.183 217.429 245.943 217.816 246.826C217.922 247.059 217.999 247.304 218.046 247.555C218.071 247.713 218.083 247.81 218.058 247.81Z" fill="#263238"/>
<path d="M247.665 250.542C247.535 250.068 247.442 249.585 247.386 249.097C247.121 247.758 247.035 246.39 247.131 245.029C247.404 242.934 248.448 241.016 250.058 239.649C251.054 238.83 252.302 238.379 253.592 238.374C254.295 238.366 254.991 238.51 255.633 238.798C256.274 239.085 256.846 239.508 257.308 240.038L256.773 240.353L255.62 237.451C253.349 231.731 251.333 226.521 249.9 222.769L248.236 218.288C248.005 217.753 247.83 217.195 247.714 216.624C248.013 217.126 248.265 217.655 248.467 218.203C248.953 219.417 249.572 220.838 250.325 222.611C251.867 226.339 253.968 231.5 256.215 237.184L257.356 240.098L258.097 241.969L256.883 240.402C256.482 239.937 255.983 239.565 255.423 239.314C254.863 239.062 254.254 238.936 253.64 238.945C252.484 238.937 251.361 239.327 250.459 240.05C248.941 241.319 247.928 243.089 247.605 245.041C247.474 246.371 247.498 247.712 247.678 249.036C247.735 249.537 247.731 250.043 247.665 250.542Z" fill="#263238"/>
<path d="M270.193 253.554C270.363 253.554 273.107 271.989 276.325 294.783C279.543 317.577 281.997 336.073 281.827 336.073C281.657 336.073 278.912 317.638 275.694 294.783C272.476 271.928 270.023 253.578 270.193 253.554Z" fill="#263238"/>
<g opacity="0.3">
<path opacity="0.3" d="M204.651 238.993C204.799 243.715 205.825 248.369 207.675 252.716C208.999 251.076 210.468 249.352 212.533 248.866C215.035 248.271 217.573 249.813 219.382 251.708C219.069 249.814 218.32 248.018 217.196 246.462C216.635 245.697 215.904 245.072 215.062 244.636C214.219 244.2 213.287 243.964 212.339 243.948C211.393 243.97 210.482 244.307 209.75 244.905C209.017 245.504 208.505 246.329 208.295 247.251L204.809 239.078" fill="black"/>
</g>
<path d="M184.14 252.34C184.031 252.34 184.067 251.064 183.703 249.085C183.204 246.506 182.201 244.05 180.752 241.859C179.936 240.673 179.005 239.571 177.971 238.568C177.115 237.758 176.184 237.03 175.19 236.395C173.478 235.314 172.276 234.901 172.324 234.792C172.622 234.813 172.914 234.887 173.186 235.01C173.526 235.102 173.856 235.228 174.17 235.387C174.59 235.567 174.996 235.778 175.384 236.018C176.441 236.615 177.43 237.323 178.335 238.131C179.425 239.146 180.398 240.278 181.238 241.507C182.743 243.763 183.723 246.327 184.104 249.012C184.225 249.816 184.265 250.629 184.225 251.441C184.225 252.024 184.189 252.34 184.14 252.34Z" fill="#263238"/>
<path d="M254.636 165.741C253.943 159.238 250.826 153.235 245.907 148.926C240.988 144.616 234.627 142.317 228.089 142.485H226.741C212.229 143.7 205.162 156.706 206.789 171.169L210.772 222.053L212.46 224.117C216.25 228.773 221.473 232.044 227.316 233.421C233.159 234.798 239.293 234.204 244.763 231.731V231.731L243.646 215.361C243.646 215.361 257.563 212.835 257.369 198.87C257.284 192.093 255.972 178.225 254.636 165.741Z" fill="#FFBE9D"/>
<path d="M243.755 215.325C237.276 215.505 230.881 213.819 225.333 210.467C225.333 210.467 229.887 220.413 243.792 218.798L243.755 215.325Z" fill="#EB996E"/>
<path d="M250.216 177.229C250.23 177.748 250.043 178.252 249.695 178.636C249.346 179.021 248.863 179.256 248.346 179.293C248.092 179.318 247.837 179.293 247.594 179.218C247.351 179.144 247.125 179.021 246.929 178.859C246.734 178.696 246.572 178.496 246.455 178.27C246.337 178.045 246.266 177.798 246.245 177.545C246.228 177.025 246.413 176.52 246.762 176.134C247.111 175.749 247.596 175.515 248.115 175.48C248.368 175.454 248.624 175.478 248.868 175.552C249.112 175.626 249.339 175.748 249.535 175.911C249.73 176.074 249.892 176.275 250.009 176.501C250.126 176.727 250.196 176.975 250.216 177.229Z" fill="#263238"/>
<path d="M251.102 169.639C250.944 169.882 249.366 170.052 247.459 171.072C245.552 172.092 244.435 173.367 244.18 173.343C243.925 173.319 244.18 172.991 244.654 172.42C245.38 171.614 246.244 170.944 247.204 170.44C248.121 169.928 249.126 169.594 250.167 169.457C250.884 169.384 251.187 169.517 251.102 169.639Z" fill="#263238"/>
<path d="M230.057 178.286C230.08 178.807 229.896 179.316 229.546 179.703C229.196 180.089 228.707 180.322 228.187 180.35C227.933 180.377 227.677 180.352 227.433 180.279C227.189 180.205 226.963 180.082 226.767 179.919C226.571 179.756 226.41 179.556 226.293 179.329C226.176 179.103 226.105 178.855 226.086 178.601C226.069 178.082 226.254 177.576 226.603 177.191C226.952 176.806 227.437 176.571 227.956 176.537C228.209 176.51 228.465 176.534 228.709 176.608C228.953 176.682 229.18 176.805 229.376 176.968C229.571 177.131 229.733 177.331 229.85 177.558C229.967 177.784 230.037 178.032 230.057 178.286V178.286Z" fill="#263238"/>
<path d="M229.814 172.565C229.534 172.565 228.235 171.752 226.171 171.242C224.106 170.732 222.394 170.841 222.212 170.671C222.03 170.501 222.43 170.428 223.171 170.367C224.253 170.299 225.339 170.401 226.389 170.671C227.406 170.912 228.375 171.323 229.255 171.885C229.741 172.274 229.887 172.541 229.814 172.565Z" fill="#263238"/>
<path d="M238.169 189.24C239.294 188.864 240.46 188.623 241.642 188.523C242.189 188.523 242.699 188.329 242.784 187.952C242.818 187.389 242.678 186.83 242.383 186.349L240.646 182.208C238.217 176.331 236.493 171.485 236.736 171.4C236.979 171.315 239.165 175.99 241.509 181.868C242.091 183.325 242.65 184.71 243.172 186.034C243.531 186.685 243.651 187.441 243.512 188.171C243.437 188.367 243.318 188.543 243.164 188.686C243.011 188.829 242.826 188.935 242.626 188.997C242.327 189.09 242.016 189.144 241.703 189.155C240.533 189.334 239.346 189.363 238.169 189.24Z" fill="#263238"/>
<path d="M229.814 164.283C229.571 164.854 227.446 164.478 224.956 164.648C222.467 164.818 220.354 165.425 220.099 164.879C219.953 164.624 220.342 164.089 221.179 163.567C222.307 162.925 223.566 162.55 224.86 162.47C226.155 162.39 227.45 162.608 228.648 163.106C229.449 163.531 229.887 164.004 229.814 164.283Z" fill="#263238"/>
<path d="M251.054 164.757C250.58 165.255 248.734 164.757 246.524 164.757C244.314 164.757 242.431 165.134 241.994 164.624C241.8 164.381 242.091 163.883 242.905 163.409C244.027 162.821 245.282 162.532 246.548 162.571C247.825 162.563 249.081 162.889 250.191 163.519C250.993 164.016 251.26 164.527 251.054 164.757Z" fill="#263238"/>
<path d="M258.704 153.33C258.581 152.692 258.23 152.122 257.715 151.726C257.201 151.33 256.559 151.136 255.911 151.18C256.609 150.981 257.261 150.647 257.83 150.197C258.113 149.968 258.326 149.665 258.444 149.321C258.562 148.978 258.581 148.607 258.498 148.254C258.134 147.173 256.749 146.942 255.656 146.638C254.222 146.221 252.95 145.374 252.013 144.21C250.689 142.534 250.179 140.348 249.026 138.538C248.281 137.37 247.283 136.384 246.106 135.652C244.93 134.921 243.604 134.462 242.227 134.311C240.849 134.159 239.456 134.319 238.148 134.777C236.841 135.236 235.653 135.981 234.671 136.96C233.6 135.858 232.281 135.028 230.824 134.539C229.368 134.05 227.815 133.916 226.296 134.147C224.777 134.379 223.335 134.97 222.09 135.871C220.846 136.772 219.834 137.957 219.139 139.328C217.276 138.551 215.239 138.289 213.24 138.57C211.241 138.851 209.355 139.664 207.778 140.924C206.201 142.184 204.992 143.845 204.278 145.733C203.563 147.62 203.369 149.665 203.716 151.654L212.412 156.985C212.482 156.324 212.692 155.685 213.028 155.111C213.364 154.537 213.817 154.041 214.359 153.655C214.901 153.269 215.518 153.003 216.171 152.874C216.823 152.744 217.496 152.755 218.143 152.905C220.767 153.67 222.442 156.706 225.163 156.912C227.288 157.07 229.097 155.431 231.15 154.884C233.639 154.216 236.274 155.212 238.521 156.475C240.768 157.738 242.917 159.317 245.419 159.948C248.407 160.547 251.508 160.177 254.272 158.892C255.499 158.461 256.618 157.769 257.551 156.864C258.011 156.409 258.356 155.851 258.556 155.237C258.757 154.622 258.808 153.968 258.704 153.33Z" fill="#263238"/>
<path d="M213.881 152.88L253.713 152.662C252.276 149.985 250.188 147.713 247.641 146.055C242.352 142.19 235.976 140.095 229.425 140.068C222.928 140.068 209.934 148.411 205.356 153.014C201.713 156.657 201.81 159.802 201.81 159.802C201.348 164.976 204.396 170.732 205.696 175.796C206.352 178.395 207.724 186.264 207.724 186.264C209.91 186.203 210.675 184.43 210.286 182.269L209.643 173.768C211.792 171.975 213.298 169.529 213.931 166.803C214.564 164.076 214.291 161.218 213.152 158.661C212.606 157.908 211.294 154.398 213.881 152.88Z" fill="#263238"/>
<path d="M209.072 173.209C207.044 166.166 205.174 158.636 207.335 151.593H206.121L205.635 151.945C204.512 151.568 203.298 151.558 202.169 151.917C201.041 152.276 200.056 152.986 199.357 153.943C198.659 154.899 198.283 156.054 198.286 157.239C198.288 158.423 198.667 159.576 199.369 160.531C198.185 160.52 197.037 160.943 196.143 161.719C195.248 162.495 194.668 163.571 194.511 164.745C194.515 166.38 194.965 167.984 195.811 169.384C196.659 170.788 197.178 172.365 197.329 173.998C197.38 174.812 197.142 175.617 196.658 176.272C196.174 176.927 195.474 177.391 194.681 177.581C195.065 178.409 195.723 179.08 196.543 179.481C197.364 179.881 198.297 179.986 199.187 179.779C198.619 181.163 197.672 182.359 196.454 183.228C199.053 185.001 202.611 184.442 205.429 183.021C207.176 182.318 208.603 180.995 209.436 179.305C210.213 177.35 209.631 175.201 209.072 173.209Z" fill="#263238"/>
<path d="M208.416 181.431C208.173 181.334 198.701 178.844 199.296 188.377C199.891 197.91 209.315 195.397 209.315 195.117C209.315 194.838 208.416 181.431 208.416 181.431Z" fill="#FFBE9D"/>
<path d="M207.032 191.656C207.032 191.656 206.874 191.778 206.595 191.923C206.217 192.111 205.782 192.145 205.38 192.021C204.348 191.705 203.413 190.163 203.267 188.438C203.194 187.614 203.306 186.784 203.595 186.009C203.672 185.703 203.824 185.42 204.035 185.185C204.247 184.95 204.513 184.77 204.809 184.661C204.998 184.603 205.201 184.61 205.384 184.683C205.568 184.756 205.721 184.89 205.817 185.062C205.963 185.317 205.902 185.511 205.963 185.536C206.024 185.56 206.157 185.353 206.06 184.965C205.982 184.738 205.838 184.539 205.647 184.394C205.513 184.3 205.36 184.235 205.2 184.201C205.039 184.168 204.873 184.167 204.712 184.2C204.326 184.301 203.971 184.499 203.682 184.776C203.393 185.052 203.179 185.397 203.061 185.779C202.71 186.632 202.565 187.555 202.636 188.474C202.818 190.393 203.85 192.118 205.307 192.458C205.566 192.515 205.834 192.514 206.092 192.455C206.35 192.396 206.592 192.281 206.801 192.118C207.032 191.887 207.068 191.668 207.032 191.656Z" fill="#EB996E"/>
<path d="M198.519 173.525C198.519 173.525 198.252 173.161 198.337 172.408C198.438 171.897 198.651 171.415 198.959 170.995C199.268 170.575 199.665 170.228 200.122 169.979C201.49 169.327 202.979 168.968 204.494 168.922C205.341 168.922 206.177 168.722 206.932 168.338C207.688 167.954 208.342 167.397 208.841 166.712C209.634 165.168 209.899 163.406 209.594 161.697C209.363 160.094 208.938 158.649 208.732 157.398C208.347 156.058 208.368 154.633 208.793 153.305C208.801 154.645 208.952 155.98 209.242 157.288C209.509 158.503 209.983 159.924 210.274 161.612C210.641 163.479 210.358 165.416 209.473 167.101C208.946 167.972 208.148 168.646 207.202 169.02C206.354 169.334 205.467 169.53 204.566 169.602C203.13 169.611 201.709 169.891 200.377 170.428C199.96 170.643 199.589 170.938 199.287 171.296C198.985 171.655 198.757 172.07 198.616 172.517C198.561 172.85 198.529 173.187 198.519 173.525V173.525Z" fill="#455A64"/>
<path d="M196.211 169.384C196.211 169.384 196.005 169.117 195.92 168.522C195.822 167.683 195.987 166.834 196.394 166.093C196.672 165.567 197.057 165.104 197.523 164.733C198.068 164.324 198.693 164.034 199.357 163.883C200.001 163.745 200.614 163.49 201.166 163.13C201.41 162.912 201.601 162.641 201.726 162.338C201.85 162.035 201.903 161.708 201.883 161.381C201.883 160.665 201.798 159.9 201.822 159.134C201.832 158.404 201.913 157.676 202.065 156.961C202.31 155.753 202.775 154.6 203.437 153.56C203.648 153.179 203.95 152.856 204.317 152.62C204.684 152.385 205.103 152.245 205.538 152.212C206.169 152.212 206.437 152.504 206.412 152.528C206.388 152.552 206.097 152.419 205.562 152.528C205.197 152.606 204.855 152.767 204.562 152.999C204.269 153.231 204.034 153.527 203.874 153.864C203.326 154.883 202.941 155.981 202.733 157.119C202.615 157.792 202.554 158.475 202.551 159.159C202.551 159.863 202.66 160.616 202.623 161.442C202.641 161.874 202.559 162.305 202.385 162.7C202.21 163.096 201.947 163.447 201.615 163.725C200.989 164.145 200.281 164.43 199.539 164.563C198.986 164.657 198.459 164.869 197.994 165.183C197.53 165.497 197.137 165.907 196.843 166.384C196.344 167.301 196.124 168.344 196.211 169.384V169.384Z" fill="#455A64"/>
<path d="M252.025 144.209C252.086 144.209 251.309 144.732 250.058 144.149C249.354 143.767 248.737 143.241 248.248 142.606C247.646 141.817 246.896 141.152 246.038 140.651C244.923 140.024 243.65 139.735 242.373 139.819C241.097 139.904 239.872 140.357 238.849 141.125C237.635 141.975 236.627 143.177 235.206 144.173C234.483 144.709 233.656 145.086 232.777 145.278C231.868 145.437 230.932 145.349 230.069 145.023C228.344 144.404 226.984 143.347 225.503 142.813C224.073 142.264 222.553 141.988 221.022 141.999C218.384 141.996 215.82 142.872 213.735 144.489C212.343 145.576 211.186 146.936 210.335 148.484C209.74 149.589 209.521 150.269 209.46 150.245C209.4 150.221 209.46 150.063 209.558 149.735C209.695 149.262 209.866 148.8 210.068 148.351C210.852 146.697 211.992 145.237 213.407 144.076C215.539 142.334 218.196 141.362 220.949 141.319C222.569 141.277 224.183 141.553 225.697 142.133C227.3 142.716 228.684 143.772 230.251 144.319C230.993 144.605 231.799 144.684 232.583 144.549C233.343 144.375 234.058 144.044 234.684 143.578C235.959 142.667 237.027 141.465 238.327 140.566C239.528 139.666 240.991 139.184 242.492 139.194C243.772 139.203 245.028 139.547 246.135 140.19C247.022 140.755 247.793 141.485 248.406 142.339C248.832 142.963 249.382 143.492 250.021 143.894C250.624 144.252 251.341 144.365 252.025 144.209Z" fill="#455A64"/>
<path d="M232.874 191.741C233.178 191.741 233.518 193.709 235.509 194.862C237.501 196.016 239.626 195.433 239.699 195.712C239.772 195.992 239.274 196.198 238.363 196.368C237.173 196.589 235.943 196.383 234.89 195.785C233.881 195.202 233.134 194.254 232.801 193.138C232.583 192.3 232.728 191.753 232.874 191.741Z" fill="#263238"/>
<path d="M358.54 381.491C354.843 378.314 350.045 376.718 345.182 377.046L336.972 403.119C342.984 403.386 348.983 406.483 354.788 404.892C357.106 404.177 359.171 402.814 360.74 400.964C362.308 399.113 363.315 396.852 363.641 394.448C363.893 392.038 363.562 389.602 362.674 387.346C361.786 385.091 360.368 383.082 358.54 381.491V381.491Z" fill="#151515"/>
<path d="M345.279 376.451C345.279 376.244 346.165 376.074 347.708 376.087C350.002 376.129 352.273 376.56 354.423 377.362C357.709 378.642 360.552 380.848 362.608 383.713C363.865 385.412 364.791 387.332 365.341 389.372C365.935 391.605 366.002 393.946 365.535 396.209C365.083 398.503 364.059 400.646 362.56 402.439C361.123 404.073 359.304 405.324 357.265 406.082C353.952 407.254 350.379 407.485 346.943 406.75C344.731 406.317 342.573 405.645 340.506 404.746C339.061 404.127 338.296 403.666 338.369 403.459C338.442 403.253 339.316 403.313 340.798 403.568C342.279 403.823 344.526 404.297 347.198 404.54C350.228 404.876 353.293 404.459 356.123 403.326C357.675 402.67 359.049 401.654 360.131 400.362C361.266 398.95 362.041 397.283 362.39 395.505C362.723 393.742 362.698 391.931 362.316 390.178C361.935 388.426 361.204 386.768 360.167 385.304C358.494 382.769 356.193 380.711 353.488 379.329C351.571 378.424 349.565 377.724 347.501 377.24C346.105 376.925 345.255 376.669 345.279 376.451Z" fill="#F5F5F5"/>
<path d="M269.221 474.271L251.369 524.292L313.486 546.819C315.283 540.747 287.461 517.188 287.461 517.188L300.213 485.613L269.221 474.271Z" fill="#151515"/>
<g opacity="0.6">
<path opacity="0.6" d="M269.233 507.534C268.569 507.498 267.916 507.709 267.398 508.126C266.88 508.543 266.535 509.136 266.428 509.793C266.368 510.453 266.564 511.11 266.976 511.63C267.387 512.15 267.982 512.492 268.638 512.586C269.346 512.623 270.042 512.395 270.591 511.946C271.139 511.496 271.499 510.858 271.601 510.157C271.601 508.833 270.29 507.315 268.978 507.497" fill="white"/>
</g>
<path d="M251.369 524.292L253.179 519.252L312.174 542.787C312.174 542.787 314.506 544.985 313.486 546.819L251.369 524.292Z" fill="white"/>
<path d="M288.591 517.236C288.469 517.54 286.903 517.127 285.057 517.564C283.211 518.001 281.948 518.985 281.717 518.779C281.487 518.572 282.567 516.969 284.814 516.483C287.061 515.998 288.749 516.981 288.591 517.236Z" fill="#263238"/>
<path d="M294.177 522.301C294.177 522.616 292.635 522.653 291.141 523.515C289.647 524.377 288.858 525.677 288.554 525.555C288.251 525.434 288.688 523.649 290.57 522.544C292.453 521.439 294.177 522.009 294.177 522.301Z" fill="#263238"/>
<path d="M294.991 531.432C294.699 531.432 294.821 529.732 296.205 528.348C297.589 526.963 299.241 526.83 299.277 527.133C299.314 527.437 298.124 527.996 297.007 529.149C295.889 530.303 295.306 531.517 294.991 531.432Z" fill="#263238"/>
<path d="M290.692 509.719C290.461 509.95 289.222 509.027 287.474 508.505C285.725 507.983 284.183 508.055 284.122 507.74C284.061 507.424 285.725 506.805 287.765 507.436C289.805 508.068 290.935 509.537 290.692 509.719Z" fill="#263238"/>
<path d="M291.882 501.813C290.766 501.715 289.697 501.321 288.785 500.672C287.733 500.069 286.761 499.335 285.895 498.486C285.376 497.99 284.894 497.459 284.45 496.895C284.17 496.576 283.94 496.215 283.77 495.826C283.648 495.539 283.626 495.219 283.707 494.917C283.788 494.615 283.969 494.35 284.219 494.163C284.447 494.006 284.709 493.905 284.983 493.867C285.257 493.83 285.536 493.856 285.798 493.944C286.192 494.086 286.564 494.282 286.903 494.527C287.51 494.932 288.079 495.392 288.603 495.899C289.48 496.75 290.218 497.733 290.789 498.814C291.413 499.76 291.731 500.875 291.7 502.008C291.53 502.008 291.165 500.854 290.109 499.215C289.482 498.272 288.739 497.411 287.899 496.652C287.401 496.206 286.869 495.8 286.308 495.438C285.713 495.025 285.154 494.819 284.887 495.049C284.62 495.28 284.753 495.183 284.826 495.426C284.952 495.712 285.12 495.978 285.324 496.215C285.722 496.754 286.156 497.265 286.623 497.745C287.411 498.576 288.278 499.328 289.21 499.992C290.813 501.145 291.955 501.656 291.882 501.813Z" fill="#263238"/>
<path d="M291.335 502.129C291.072 501.028 291.166 499.871 291.602 498.826C291.97 497.656 292.533 496.555 293.266 495.572C293.706 494.994 294.198 494.457 294.736 493.969C295.055 493.621 295.458 493.361 295.907 493.212C296.355 493.063 296.834 493.031 297.298 493.119C297.572 493.228 297.81 493.412 297.984 493.651C298.158 493.889 298.261 494.172 298.282 494.467C298.304 494.874 298.272 495.282 298.184 495.681C297.993 496.667 297.607 497.604 297.048 498.439C296.489 499.273 295.769 499.987 294.93 500.539C293.133 501.753 291.736 501.607 291.748 501.498C291.76 501.389 292.963 501.109 294.468 499.895C295.325 499.198 296.021 498.323 296.509 497.332C296.792 496.756 296.992 496.143 297.104 495.511C297.249 494.819 297.189 494.187 296.922 494.175C296.648 494.165 296.376 494.215 296.124 494.322C295.872 494.429 295.646 494.59 295.464 494.794C294.961 495.221 294.497 495.692 294.08 496.203C293.368 497.073 292.787 498.043 292.355 499.081C291.602 500.915 291.517 502.129 291.335 502.129Z" fill="#263238"/>
<path d="M209.048 340.687C199.624 340.906 190.686 342.229 184.189 349.066C175.579 358.138 164.941 371.047 164.333 379.997C163.435 393.356 171.511 397.363 177.4 400.642C180.006 402.051 182.941 402.735 185.901 402.621L294.808 401.796L298.221 383.349L227.786 365.983L230.712 339.473L209.048 340.687Z" fill="#263238"/>
<path d="M230.773 339.461L265.031 337.882C265.031 337.882 324.221 341.173 336.839 352.747C349.456 364.32 347.89 377.472 343.676 390.089C339.462 402.707 302.386 483.452 302.386 483.452C302.386 483.452 305.398 488.589 303.71 493.714C303.027 495.959 301.772 497.987 300.069 499.601C298.366 501.214 296.273 502.358 293.995 502.919L261.06 490.775C261.06 490.775 256.591 489.196 259.749 484.982C262.906 480.769 265.007 479.991 265.007 479.991V471.576C265.007 471.576 276.58 450.53 277.625 447.64C278.669 444.749 289.769 401.93 289.769 401.93L297.14 389.264C297.14 389.264 279.325 380.884 263.878 374.812L227.81 365.923L230.773 339.461Z" fill="#263238"/>
<path d="M286.344 489.293C285.348 488.714 284.383 488.081 283.454 487.399C278.801 484.384 273.56 482.393 268.08 481.557C266.93 481.446 265.787 481.276 264.655 481.047C265.81 480.914 266.978 480.934 268.128 481.108C273.745 481.708 279.113 483.75 283.709 487.034C284.683 487.668 285.569 488.428 286.344 489.293Z" fill="#455A64"/>
<path d="M302.799 483.513C302.081 482.924 301.44 482.247 300.893 481.497C299.775 480.197 298.294 478.352 296.751 476.239C295.209 474.125 293.873 472.17 292.963 470.725C292.42 469.969 291.963 469.154 291.602 468.296C292.255 468.956 292.833 469.685 293.327 470.47L297.262 475.862C298.731 477.854 300.079 479.651 301.245 481.218C301.845 481.924 302.366 482.693 302.799 483.513Z" fill="#455A64"/>
<path d="M314.822 377.751C314.822 377.848 313.607 378.115 311.701 378.747C306.708 380.394 302.185 383.218 298.512 386.98C297.796 387.807 297.038 388.598 296.241 389.349C296.755 388.368 297.41 387.468 298.184 386.677C299.951 384.682 301.996 382.952 304.256 381.54C306.516 380.118 308.97 379.034 311.543 378.322C312.601 377.967 313.706 377.774 314.822 377.751Z" fill="#455A64"/>
<path d="M281.183 434.925C281.197 434.681 281.242 434.44 281.316 434.208L281.826 432.204L283.794 424.857L290.534 400.678C291.906 395.954 293.072 391.461 294.396 387.381C295.793 383.835 297.905 380.615 300.601 377.921C302.381 376.095 304.351 374.467 306.479 373.063C307.244 372.577 307.839 372.213 308.264 371.994C308.468 371.865 308.683 371.755 308.908 371.667C308.908 371.667 308.082 372.225 306.625 373.257C304.567 374.726 302.656 376.39 300.917 378.224C298.316 380.908 296.284 384.088 294.942 387.575C293.728 391.595 292.513 396.149 291.141 400.849L284.231 424.966C283.332 427.99 282.592 430.456 282.057 432.253C281.802 433.054 281.608 433.71 281.438 434.22C281.385 434.465 281.299 434.702 281.183 434.925V434.925Z" fill="#455A64"/>
<path d="M250.884 373.245C250.702 373.245 249.985 366.857 249.269 358.94C248.552 351.022 248.054 344.585 248.297 344.573C248.54 344.561 249.183 350.961 249.9 358.879C250.616 366.797 251.054 373.233 250.884 373.245Z" fill="#455A64"/>
<path d="M193.855 390.404C193.758 390.404 193.236 389.421 192.155 387.903C190.76 385.928 189.087 384.165 187.188 382.669C185.275 381.191 183.161 379.993 180.91 379.11C179.173 378.43 178.044 378.175 178.068 378.066C179.09 378.114 180.099 378.323 181.056 378.685C185.805 380.251 189.862 383.419 192.532 387.648C193.121 388.488 193.568 389.419 193.855 390.404V390.404Z" fill="#455A64"/>
<path d="M214.84 367.088C214.84 367.185 213.334 366.263 210.821 365.109C204.225 362.113 196.909 361.068 189.739 362.097C187.006 362.486 185.343 362.971 185.318 362.862C185.672 362.663 186.052 362.515 186.448 362.425C187.503 362.099 188.578 361.839 189.666 361.648C196.919 360.375 204.388 361.447 210.991 364.708C211.98 365.197 212.938 365.748 213.857 366.36C214.217 366.556 214.548 366.801 214.84 367.088V367.088Z" fill="#455A64"/>
<path d="M296.885 383.313C296.593 383.298 296.304 383.249 296.023 383.167L293.594 382.645L284.729 380.689C277.236 379.014 266.865 376.755 255.365 374.484C243.864 372.213 233.421 370.331 225.855 369.031L216.881 367.489L214.452 367.064C214.165 367.03 213.883 366.961 213.614 366.857C213.902 366.865 214.19 366.89 214.476 366.93L216.905 367.246C219.03 367.537 222.102 367.999 225.903 368.594C233.493 369.808 243.962 371.581 255.474 373.865C266.987 376.148 277.333 378.467 284.814 380.252C288.542 381.151 291.566 381.904 293.643 382.45L296.071 383.082C296.349 383.134 296.621 383.211 296.885 383.313V383.313Z" fill="#455A64"/>
<path d="M227.847 369.092C227.725 369.092 227.47 367.659 226.341 365.619C225.68 364.441 224.863 363.359 223.912 362.4C222.712 361.219 221.439 360.116 220.099 359.097C217.629 357.273 215.018 355.649 212.29 354.24C211.136 353.691 210.024 353.058 208.963 352.345C210.185 352.732 211.368 353.232 212.497 353.839C215.315 355.146 217.992 356.737 220.487 358.587C221.846 359.623 223.128 360.756 224.325 361.975C225.3 362.985 226.119 364.136 226.754 365.388C227.19 366.235 227.52 367.132 227.737 368.06C227.837 368.394 227.874 368.744 227.847 369.092V369.092Z" fill="#455A64"/>
<path d="M349.153 385.547C349.286 385.693 347.465 387.527 346.044 390.332C344.623 393.137 344.162 395.663 343.979 395.627C343.975 393.664 344.495 391.736 345.485 390.041C346.29 388.246 347.556 386.696 349.153 385.547V385.547Z" fill="#263238"/>
<g opacity="0.3">
<path opacity="0.3" d="M271.2 261.12L278.997 316.035L279.386 316.909C281.214 297.924 278.405 278.779 271.2 261.12Z" fill="black"/>
</g>
<path d="M313.182 292.67L287.838 336.971L225.381 338.331L225.223 341.161L285.7 340.711L287.619 340.639L351.472 340.772L364.381 318.512L380.873 294.88C381.111 294.529 381.25 294.12 381.273 293.697C381.297 293.273 381.204 292.851 381.005 292.477C380.807 292.102 380.51 291.788 380.146 291.57C379.782 291.351 379.366 291.236 378.942 291.237L315.198 291.48C314.787 291.483 314.384 291.594 314.03 291.803C313.676 292.012 313.384 292.311 313.182 292.67V292.67Z" fill="#E0E0E0"/>
<path d="M364.381 318.549C364.381 318.549 367.66 321.561 367.15 324.111C366.64 326.661 366.798 328.568 364.381 328.738C364.426 329.671 364.111 330.586 363.501 331.293C362.891 332 362.032 332.446 361.103 332.539C361.103 332.539 361.843 336.546 357.18 337.238C357.18 337.238 355.747 341.525 352.808 340.481C351.114 339.905 349.486 339.152 347.951 338.234L347.088 336.68C347.088 336.68 342.753 335.053 343.822 332.612C344.477 331.13 346.712 330.741 346.712 330.741C346.455 330.133 346.346 329.472 346.394 328.813C346.443 328.154 346.648 327.517 346.991 326.952C348.023 325.556 351.399 326.71 351.399 326.71C351.33 325.514 351.711 324.335 352.468 323.406C353.683 322.034 359.002 325.738 359.002 325.738L361.928 322.241L364.381 318.549Z" fill="#FFBE9D"/>
<path d="M357.18 337.238C355.287 336.432 353.48 335.435 351.788 334.263C349.986 333.268 348.293 332.088 346.736 330.741C348.628 331.555 350.435 332.556 352.128 333.729C353.926 334.726 355.618 335.901 357.18 337.238V337.238Z" fill="#EB996E"/>
<path d="M361.103 332.539C359.341 331.846 357.663 330.958 356.099 329.891C354.428 329.006 352.86 327.939 351.424 326.709C353.188 327.396 354.867 328.284 356.427 329.357C358.098 330.242 359.666 331.309 361.103 332.539V332.539Z" fill="#EB996E"/>
<path d="M355.759 323.747C355.856 323.564 357.86 324.621 360.192 326.102C361.637 326.937 363.028 327.862 364.357 328.871C364.272 329.078 362.183 328.13 359.852 326.637C358.39 325.82 357.018 324.851 355.759 323.747V323.747Z" fill="#EB996E"/>
<path d="M380.873 292.937C380.772 292.953 380.67 292.953 380.569 292.937H379.671H376.222L363.543 293.034L321.707 293.131H318.659C318.21 293.088 317.758 293.167 317.35 293.36C316.942 293.552 316.593 293.85 316.34 294.224C315.368 295.957 314.421 297.665 313.498 299.349L308.106 309.064L298.962 325.495C296.363 330.134 294.238 333.898 292.744 336.558C292.028 337.772 291.445 338.817 291.032 339.545L290.57 340.31L290.4 340.565C290.4 340.565 290.4 340.456 290.51 340.274L290.922 339.473L292.538 336.437L298.61 325.276L307.645 308.772C309.345 305.676 311.142 302.421 312.988 299.057L315.842 293.896C316.153 293.434 316.581 293.063 317.082 292.82C317.584 292.576 318.14 292.47 318.696 292.512H321.744L363.58 292.597L376.258 292.706L379.707 292.767H380.606C380.704 292.808 380.794 292.866 380.873 292.937Z" fill="#263238"/>
<path d="M335.94 315.221C335.645 315.648 335.48 316.151 335.464 316.669C335.448 317.187 335.581 317.699 335.849 318.144C336.116 318.588 336.506 318.946 336.972 319.174C337.437 319.402 337.959 319.491 338.474 319.431C338.989 319.37 339.476 319.162 339.875 318.832C340.275 318.502 340.571 318.063 340.728 317.569C340.885 317.074 340.896 316.545 340.76 316.045C340.623 315.545 340.346 315.094 339.96 314.748C339.362 314.281 338.605 314.07 337.853 314.158C337.1 314.247 336.413 314.629 335.94 315.221V315.221Z" fill="white"/>
<g opacity="0.3">
<path opacity="0.3" d="M158.638 298.11C158.104 298.329 157.484 298.693 157.484 299.325C157.504 299.559 157.602 299.781 157.763 299.953C157.923 300.124 158.138 300.237 158.371 300.272C159.262 300.146 160.134 299.913 160.97 299.58C167.539 298.134 172.944 299.519 179.186 302.008L179.392 301.802C176.915 296.422 165.706 295.232 158.638 298.11Z" fill="black"/>
</g>
<path d="M496.982 544.634C496.982 544.804 387.139 544.949 251.673 544.949C116.207 544.949 6.36443 544.755 6.36443 544.634C6.36443 544.512 116.183 544.318 251.673 544.318C387.163 544.318 496.982 544.403 496.982 544.634Z" fill="#263238"/>
<path d="M124.671 157.496C124.878 157.702 165.208 143.846 165.208 143.846L149.664 108.264L113.802 122.023L133.548 133.366L124.671 157.496Z" fill="#455A64"/>
<path d="M143.592 118.975V70.5326C143.592 70.5326 199.223 60.3559 239.31 60.9631C279.398 61.5703 320.675 68.1402 320.675 68.1402V114.652C320.675 114.652 195.033 103.431 143.592 118.975Z" fill="#455A64"/>
<path d="M143.3 119.024L165.159 144.052V114.652C165.159 114.652 146.883 116.838 143.3 119.024Z" fill="#263238"/>
<path d="M143.592 70.5205C143.774 70.5205 143.847 81.4501 143.774 94.8085C143.701 108.167 143.482 119.096 143.312 119.096C143.142 119.096 143.057 108.24 143.13 94.8085C143.203 81.3772 143.409 70.5205 143.592 70.5205Z" fill="#263238"/>
<path d="M339.498 153.78C339.292 153.986 298.962 140.13 298.962 140.13L314.47 104.536L350.367 118.271L330.609 129.613L339.498 153.78Z" fill="#455A64"/>
<path d="M320.894 115.308L299.035 140.336V113.061C306.364 113.312 313.667 114.063 320.894 115.308V115.308Z" fill="#263238"/>
<path d="M320.651 68.1401C320.821 68.1401 321.015 78.6933 321.076 91.7238C321.137 104.754 321.076 115.307 320.869 115.307C320.663 115.307 320.505 104.754 320.444 91.7238C320.384 78.6933 320.469 68.1401 320.651 68.1401Z" fill="#263238"/>
<path d="M186.825 94.3C185.442 94.3 184.1 94.1167 182.8 93.75C181.517 93.3667 180.483 92.875 179.7 92.275L181.075 89.225C181.825 89.775 182.717 90.2167 183.75 90.55C184.783 90.8833 185.817 91.05 186.85 91.05C188 91.05 188.85 90.8833 189.4 90.55C189.95 90.2 190.225 89.7417 190.225 89.175C190.225 88.7583 190.058 88.4167 189.725 88.15C189.408 87.8667 188.992 87.6417 188.475 87.475C187.975 87.3083 187.292 87.125 186.425 86.925C185.092 86.6083 184 86.2917 183.15 85.975C182.3 85.6583 181.567 85.15 180.95 84.45C180.35 83.75 180.05 82.8167 180.05 81.65C180.05 80.6333 180.325 79.7167 180.875 78.9C181.425 78.0667 182.25 77.4083 183.35 76.925C184.467 76.4417 185.825 76.2 187.425 76.2C188.542 76.2 189.633 76.3333 190.7 76.6C191.767 76.8667 192.7 77.25 193.5 77.75L192.25 80.825C190.633 79.9083 189.017 79.45 187.4 79.45C186.267 79.45 185.425 79.6333 184.875 80C184.342 80.3667 184.075 80.85 184.075 81.45C184.075 82.05 184.383 82.5 185 82.8C185.633 83.0833 186.592 83.3667 187.875 83.65C189.208 83.9667 190.3 84.2833 191.15 84.6C192 84.9167 192.725 85.4167 193.325 86.1C193.942 86.7833 194.25 87.7083 194.25 88.875C194.25 89.875 193.967 90.7917 193.4 91.625C192.85 92.4417 192.017 93.0917 190.9 93.575C189.783 94.0583 188.425 94.3 186.825 94.3ZM210.292 80.55V94H206.592V92.4C206.076 92.9833 205.459 93.4333 204.742 93.75C204.026 94.05 203.251 94.2 202.417 94.2C200.651 94.2 199.251 93.6917 198.217 92.675C197.184 91.6583 196.667 90.15 196.667 88.15V80.55H200.567V87.575C200.567 89.7417 201.476 90.825 203.292 90.825C204.226 90.825 204.976 90.525 205.542 89.925C206.109 89.3083 206.392 88.4 206.392 87.2V80.55H210.292ZM220.405 94.2C218.972 94.2 217.68 93.9083 216.53 93.325C215.397 92.725 214.505 91.9 213.855 90.85C213.222 89.8 212.905 88.6083 212.905 87.275C212.905 85.9417 213.222 84.75 213.855 83.7C214.505 82.65 215.397 81.8333 216.53 81.25C217.68 80.65 218.972 80.35 220.405 80.35C221.822 80.35 223.055 80.65 224.105 81.25C225.172 81.8333 225.947 82.675 226.43 83.775L223.405 85.4C222.705 84.1667 221.697 83.55 220.38 83.55C219.364 83.55 218.522 83.8833 217.855 84.55C217.189 85.2167 216.855 86.125 216.855 87.275C216.855 88.425 217.189 89.3333 217.855 90C218.522 90.6667 219.364 91 220.38 91C221.714 91 222.722 90.3833 223.405 89.15L226.43 90.8C225.947 91.8667 225.172 92.7 224.105 93.3C223.055 93.9 221.822 94.2 220.405 94.2ZM235.005 94.2C233.572 94.2 232.28 93.9083 231.13 93.325C229.997 92.725 229.105 91.9 228.455 90.85C227.822 89.8 227.505 88.6083 227.505 87.275C227.505 85.9417 227.822 84.75 228.455 83.7C229.105 82.65 229.997 81.8333 231.13 81.25C232.28 80.65 233.572 80.35 235.005 80.35C236.422 80.35 237.655 80.65 238.705 81.25C239.772 81.8333 240.547 82.675 241.03 83.775L238.005 85.4C237.305 84.1667 236.297 83.55 234.98 83.55C233.963 83.55 233.122 83.8833 232.455 84.55C231.788 85.2167 231.455 86.125 231.455 87.275C231.455 88.425 231.788 89.3333 232.455 90C233.122 90.6667 233.963 91 234.98 91C236.313 91 237.322 90.3833 238.005 89.15L241.03 90.8C240.547 91.8667 239.772 92.7 238.705 93.3C237.655 93.9 236.422 94.2 235.005 94.2ZM256.28 87.325C256.28 87.375 256.255 87.725 256.205 88.375H246.03C246.213 89.2083 246.646 89.8667 247.33 90.35C248.013 90.8333 248.863 91.075 249.88 91.075C250.58 91.075 251.196 90.975 251.73 90.775C252.28 90.5583 252.788 90.225 253.255 89.775L255.33 92.025C254.063 93.475 252.213 94.2 249.78 94.2C248.263 94.2 246.921 93.9083 245.755 93.325C244.588 92.725 243.688 91.9 243.055 90.85C242.421 89.8 242.105 88.6083 242.105 87.275C242.105 85.9583 242.413 84.775 243.03 83.725C243.663 82.6583 244.521 81.8333 245.605 81.25C246.705 80.65 247.93 80.35 249.28 80.35C250.596 80.35 251.788 80.6333 252.855 81.2C253.921 81.7667 254.755 82.5833 255.355 83.65C255.971 84.7 256.28 85.925 256.28 87.325ZM249.305 83.3C248.421 83.3 247.68 83.55 247.08 84.05C246.48 84.55 246.113 85.2333 245.98 86.1H252.605C252.471 85.25 252.105 84.575 251.505 84.075C250.905 83.5583 250.171 83.3 249.305 83.3ZM263.401 94.2C262.285 94.2 261.193 94.0667 260.126 93.8C259.06 93.5167 258.21 93.1667 257.576 92.75L258.876 89.95C259.476 90.3333 260.201 90.65 261.051 90.9C261.901 91.1333 262.735 91.25 263.551 91.25C265.201 91.25 266.026 90.8417 266.026 90.025C266.026 89.6417 265.801 89.3667 265.351 89.2C264.901 89.0333 264.21 88.8917 263.276 88.775C262.176 88.6083 261.268 88.4167 260.551 88.2C259.835 87.9833 259.21 87.6 258.676 87.05C258.16 86.5 257.901 85.7167 257.901 84.7C257.901 83.85 258.143 83.1 258.626 82.45C259.126 81.7833 259.843 81.2667 260.776 80.9C261.726 80.5333 262.843 80.35 264.126 80.35C265.076 80.35 266.018 80.4583 266.951 80.675C267.901 80.875 268.685 81.1583 269.301 81.525L268.001 84.3C266.818 83.6333 265.526 83.3 264.126 83.3C263.293 83.3 262.668 83.4167 262.251 83.65C261.835 83.8833 261.626 84.1833 261.626 84.55C261.626 84.9667 261.851 85.2583 262.301 85.425C262.751 85.5917 263.468 85.75 264.451 85.9C265.551 86.0833 266.451 86.2833 267.151 86.5C267.851 86.7 268.46 87.075 268.976 87.625C269.493 88.175 269.751 88.9417 269.751 89.925C269.751 90.7583 269.501 91.5 269.001 92.15C268.501 92.8 267.768 93.3083 266.801 93.675C265.851 94.025 264.718 94.2 263.401 94.2ZM276.682 94.2C275.566 94.2 274.474 94.0667 273.407 93.8C272.341 93.5167 271.491 93.1667 270.857 92.75L272.157 89.95C272.757 90.3333 273.482 90.65 274.332 90.9C275.182 91.1333 276.016 91.25 276.832 91.25C278.482 91.25 279.307 90.8417 279.307 90.025C279.307 89.6417 279.082 89.3667 278.632 89.2C278.182 89.0333 277.491 88.8917 276.557 88.775C275.457 88.6083 274.549 88.4167 273.832 88.2C273.116 87.9833 272.491 87.6 271.957 87.05C271.441 86.5 271.182 85.7167 271.182 84.7C271.182 83.85 271.424 83.1 271.907 82.45C272.407 81.7833 273.124 81.2667 274.057 80.9C275.007 80.5333 276.124 80.35 277.407 80.35C278.357 80.35 279.299 80.4583 280.232 80.675C281.182 80.875 281.966 81.1583 282.582 81.525L281.282 84.3C280.099 83.6333 278.807 83.3 277.407 83.3C276.574 83.3 275.949 83.4167 275.532 83.65C275.116 83.8833 274.907 84.1833 274.907 84.55C274.907 84.9667 275.132 85.2583 275.582 85.425C276.032 85.5917 276.749 85.75 277.732 85.9C278.832 86.0833 279.732 86.2833 280.432 86.5C281.132 86.7 281.741 87.075 282.257 87.625C282.774 88.175 283.032 88.9417 283.032 89.925C283.032 90.7583 282.782 91.5 282.282 92.15C281.782 92.8 281.049 93.3083 280.082 93.675C279.132 94.025 277.999 94.2 276.682 94.2Z" fill="white"/>
<path d="M345.534 72.5485L348.716 76.2767L357.678 72.5485L355.055 68.626L345.534 72.5485Z" fill="#455A64"/>
<path d="M341.429 54.8059C341.429 55.7282 341.156 56.6298 340.643 57.3967C340.131 58.1635 339.403 58.7612 338.55 59.1142C337.698 59.4672 336.761 59.5595 335.856 59.3796C334.952 59.1996 334.121 58.7555 333.468 58.1033C332.816 57.4511 332.372 56.6202 332.192 55.7156C332.012 54.811 332.105 53.8734 332.458 53.0213C332.811 52.1692 333.408 51.4409 334.175 50.9285C334.942 50.4161 335.844 50.1426 336.766 50.1426C338.002 50.1458 339.186 50.6381 340.06 51.512C340.934 52.3858 341.426 53.5701 341.429 54.8059V54.8059Z" fill="#151515"/>
<path d="M236.967 124.367C236.964 124.829 236.824 125.28 236.565 125.662C236.306 126.045 235.939 126.342 235.51 126.515C235.082 126.689 234.612 126.731 234.159 126.637C233.707 126.542 233.292 126.316 232.969 125.985C232.646 125.655 232.428 125.236 232.343 124.782C232.258 124.328 232.31 123.858 232.493 123.434C232.675 123.009 232.98 122.648 233.368 122.397C233.755 122.146 234.209 122.016 234.671 122.023C235.286 122.032 235.871 122.284 236.301 122.723C236.731 123.162 236.97 123.752 236.967 124.367V124.367Z" fill="#151515"/>
<path d="M128.339 89.3191C128.339 89.6708 128.234 90.0145 128.038 90.3066C127.842 90.5987 127.564 90.8259 127.238 90.9593C126.913 91.0928 126.555 91.1265 126.211 91.0561C125.866 90.9857 125.55 90.8144 125.303 90.564C125.056 90.3136 124.889 89.9954 124.824 89.6499C124.758 89.3043 124.797 88.9471 124.935 88.6236C125.073 88.3001 125.304 88.0249 125.598 87.833C125.893 87.6411 126.238 87.5412 126.59 87.5461C127.056 87.5524 127.501 87.7421 127.828 88.0739C128.155 88.4057 128.339 88.853 128.339 89.3191V89.3191Z" fill="#151515"/>
<path d="M121.757 69.8038L126.979 70.1195L129.456 59.8457L124.574 60.0521L121.757 69.8038Z" fill="#455A64"/>
<path d="M284.972 151.812L286.733 156.742L297.152 154.994L295.051 150.585L284.972 151.812Z" fill="#151515"/>
<path d="M179.586 123.359L176.368 127.488L183.424 135.345L186.023 131.204L179.586 123.359Z" fill="#455A64"/>
<path d="M167.114 26.3643L179.441 38.9333L196.794 32.3755L197.487 36.6866L189.969 52.0731L196.904 63.5613L196.321 66.998L179.526 64.1685L169.592 75.0617L167.26 73.3008L165.208 59.4445L149.542 51.2837L148.85 48.1141L164.625 43.803L167.114 26.3643Z" fill="#151515"/>
<g opacity="0.3">
<path opacity="0.3" d="M167.114 26.3643L179.441 38.9333L196.794 32.3755L197.487 36.6866L189.969 52.0731L196.904 63.5613L196.321 66.998L179.526 64.1685L169.592 75.0617L167.26 73.3008L165.208 59.4445L149.542 51.2837L148.85 48.1141L164.625 43.803L167.114 26.3643Z" fill="black"/>
</g>
<path d="M167.114 22.8311L179.441 35.4122L196.794 32.3762L188.646 47.9934L196.904 63.562L179.526 60.6474L167.26 73.3015L164.673 55.8748L148.85 48.1148L164.625 40.2698L167.114 22.8311Z" fill="#151515"/>
<path d="M294.93 26.3643L282.592 38.9333L265.238 32.3755L264.546 36.6866L272.063 52.0731L265.129 63.5613L265.711 66.998L282.507 64.1685L292.44 75.0617L294.772 73.3008L296.824 59.4445L312.49 51.2837L313.182 48.1141L297.407 43.803L294.93 26.3643Z" fill="#151515"/>
<g opacity="0.3">
<path opacity="0.3" d="M294.93 26.3643L282.592 38.9333L265.238 32.3755L264.546 36.6866L272.063 52.0731L265.129 63.5613L265.711 66.998L282.507 64.1685L292.44 75.0617L294.772 73.3008L296.824 59.4445L312.49 51.2837L313.182 48.1141L297.407 43.803L294.93 26.3643Z" fill="black"/>
</g>
<path d="M294.93 22.8311L282.592 35.4122L265.238 32.3762L273.386 47.9934L265.129 63.562L282.507 60.6474L294.772 73.3015L297.359 55.8748L313.182 48.1148L297.407 40.2698L294.93 22.8311Z" fill="#151515"/>
<path d="M230.615 4.29883L240.877 24.3486L264.546 22.952L263.744 28.4654L248.71 44.3861L252.778 61.0355L250.774 65.0066L231.356 55.1579L215.095 64.6787L212.922 61.6306L215.69 43.9368L199.685 28.016L200.049 23.8992L220.937 24.64L230.615 4.29883Z" fill="#151515"/>
<g opacity="0.3">
<path opacity="0.3" d="M230.615 4.29883L240.877 24.3486L264.546 22.952L263.744 28.4654L248.71 44.3861L252.778 61.0355L250.774 65.0066L231.356 55.1579L215.095 64.6787L212.922 61.6306L215.69 43.9368L199.685 28.016L200.049 23.8992L220.937 24.64L230.615 4.29883Z" fill="black"/>
</g>
<path d="M231.951 0L242.213 20.0376L264.546 22.9521L248.649 38.9093L252.778 61.0357L232.704 50.859L212.922 61.6307L216.407 39.383L200.049 23.8994L222.285 20.329L231.951 0Z" fill="#151515"/>
<path d="M272.84 179.865L289.987 181.76C295.776 173.564 304.422 167.83 314.224 165.684C324.026 163.539 334.276 165.137 342.96 170.164C351.644 175.192 358.133 183.286 361.153 192.855C364.172 202.424 363.504 212.776 359.278 221.877C355.053 230.979 347.577 238.17 338.318 242.039C329.06 245.908 318.69 246.175 309.245 242.786C299.8 239.398 291.964 232.599 287.277 223.727C282.59 214.855 281.391 204.55 283.915 194.839V194.839L272.84 179.865Z" fill="#FAFAFA"/>
<path d="M272.841 179.865C273.509 180.763 276.982 185.354 284.074 194.765H283.819C283.828 194.745 283.841 194.728 283.857 194.713C283.873 194.699 283.893 194.689 283.914 194.683C283.935 194.677 283.957 194.676 283.978 194.68C284 194.683 284.02 194.692 284.037 194.705C284.066 194.722 284.088 194.747 284.101 194.778C284.115 194.808 284.118 194.842 284.11 194.875C282.372 201.687 282.464 208.839 284.378 215.604C284.939 217.635 285.683 219.61 286.6 221.506C287.086 222.478 287.547 223.474 288.069 224.457L289.879 227.335C295.657 235.712 304.398 241.584 314.337 243.766C319.839 244.976 325.535 245 331.047 243.839C336.858 242.575 342.318 240.046 347.041 236.431C351.987 232.675 355.963 227.791 358.638 222.186C361.408 216.487 362.774 210.208 362.621 203.873C362.444 197.813 360.909 191.87 358.128 186.483C355.513 181.376 351.806 176.907 347.271 173.392C339.102 167.078 328.822 164.14 318.551 165.183C314.211 165.703 309.973 166.874 305.982 168.656C299.63 171.591 294.158 176.138 290.109 181.844C290.097 181.867 290.077 181.886 290.053 181.897C290.029 181.908 290.002 181.911 289.976 181.905L272.841 179.865L290.012 181.601L289.867 181.674C293.903 175.89 299.401 171.281 305.8 168.316C309.811 166.467 314.083 165.247 318.466 164.697C328.878 163.594 339.315 166.543 347.611 172.93C352.225 176.487 355.994 181.02 358.65 186.204C361.49 191.669 363.055 197.705 363.228 203.861C363.388 210.296 362.006 216.675 359.197 222.466C356.474 228.157 352.431 233.116 347.405 236.929C342.605 240.593 337.058 243.156 331.156 244.434C325.546 245.614 319.749 245.577 314.155 244.325C304.11 242.111 295.283 236.158 289.466 227.676L287.644 224.761C287.122 223.765 286.661 222.745 286.163 221.761C285.249 219.84 284.509 217.84 283.952 215.787C282.048 208.948 281.997 201.726 283.807 194.862L284.098 194.972C284.076 195.007 284.041 195.033 284.001 195.044C283.96 195.055 283.917 195.051 283.88 195.032L272.841 179.865Z" fill="#263238"/>
<path d="M308.021 190.564C308.035 190.749 308.035 190.936 308.021 191.122C308.021 191.523 308.021 192.033 308.021 192.677C308.021 194.085 308.021 196.04 308.094 198.518C308.094 203.558 308.179 210.662 308.24 219.163L307.96 218.883H336.535C336.608 218.81 335.94 219.478 336.22 219.187V215.301C336.22 214.026 336.22 212.751 336.22 211.488V204.092C336.22 199.307 336.22 194.777 336.22 190.612L336.487 190.891L315.842 190.746L310.001 190.685H308.446H307.888H308.386H309.891L315.66 190.612L336.462 190.479H336.742V190.746C336.742 194.911 336.742 199.441 336.742 204.226V219.175C337.033 218.895 336.365 219.576 336.426 219.503H307.851H307.572V219.175C307.572 210.601 307.669 203.448 307.705 198.372C307.705 195.943 307.705 193.976 307.778 192.592C307.778 191.972 307.778 191.474 307.778 191.086C307.835 190.902 307.917 190.726 308.021 190.564Z" fill="#263238"/>
<path d="M333.511 195.288C333.924 195.615 330.087 201.153 324.926 207.662C323.905 208.962 322.898 210.2 321.962 211.306L321.355 212.046L320.675 211.427C316.206 207.407 313.182 204.323 313.45 204.007C313.717 203.691 317.226 206.241 321.853 210.079L320.554 210.2C321.44 208.986 322.412 207.772 323.444 206.484C328.593 199.975 333.111 194.972 333.511 195.288Z" fill="#151515"/>
</svg>
