<svg width="744" height="554" viewBox="0 0 744 554" fill="none" xmlns="http://www.w3.org/2000/svg">
<path d="M371.644 553.839C530.83 553.839 659.876 546.304 659.876 537.011C659.876 527.717 530.83 520.183 371.644 520.183C212.458 520.183 83.4119 527.717 83.4119 537.011C83.4119 546.304 212.458 553.839 371.644 553.839Z" fill="#F5F5F5"/>
<path d="M452.127 324.266C457.271 348.482 429.68 358.725 418.218 348.051C406.757 337.378 407.322 304.747 391.861 303.885C414.175 286.611 447.117 300.704 452.127 324.266Z" fill="#263238"/>
<path d="M429.62 475.347C428.989 475.348 428.38 475.116 427.909 474.697C427.437 474.277 427.136 473.699 427.064 473.072C421.355 425.041 428.55 310.307 487.389 262.202C487.648 261.965 487.954 261.784 488.286 261.669C488.618 261.554 488.97 261.509 489.32 261.534C489.67 261.56 490.012 261.657 490.323 261.819C490.635 261.981 490.91 262.205 491.133 262.476C491.355 262.748 491.52 263.063 491.617 263.4C491.714 263.738 491.741 264.092 491.697 264.44C491.652 264.789 491.537 265.125 491.359 265.427C491.181 265.73 490.943 265.993 490.659 266.201C433.515 312.939 426.588 425.353 432.192 472.463C432.268 473.142 432.073 473.824 431.65 474.361C431.228 474.898 430.611 475.246 429.933 475.332L429.62 475.347Z" fill="#151515"/>
<path d="M408.66 537.01H450.551C451.957 537.01 453.32 536.532 454.417 535.654C455.514 534.776 456.279 533.55 456.587 532.179L474.069 454.684C474.272 453.777 474.268 452.836 474.058 451.931C473.849 451.026 473.438 450.18 472.857 449.455C472.276 448.73 471.54 448.145 470.702 447.743C469.865 447.34 468.948 447.132 468.019 447.132H391.192C390.264 447.131 389.347 447.34 388.51 447.742C387.673 448.144 386.937 448.73 386.357 449.455C385.777 450.181 385.368 451.027 385.161 451.932C384.953 452.838 384.952 453.778 385.157 454.684L402.624 532.194C402.937 533.561 403.704 534.782 404.8 535.656C405.897 536.531 407.257 537.009 408.66 537.01Z" fill="#151515"/>
<path opacity="0.6" d="M408.66 537.01H450.551C451.957 537.01 453.32 536.532 454.417 535.654C455.514 534.776 456.279 533.55 456.587 532.179L474.069 454.684C474.272 453.777 474.268 452.836 474.058 451.931C473.849 451.026 473.438 450.18 472.857 449.455C472.276 448.73 471.54 448.145 470.702 447.743C469.865 447.34 468.948 447.132 468.019 447.132H391.192C390.264 447.131 389.347 447.34 388.51 447.742C387.673 448.144 386.937 448.73 386.357 449.455C385.777 450.181 385.368 451.027 385.161 451.932C384.953 452.838 384.952 453.778 385.157 454.684L402.624 532.194C402.937 533.561 403.704 534.782 404.8 535.656C405.897 536.531 407.257 537.009 408.66 537.01Z" fill="white"/>
<path d="M447.459 329.097C447.259 329.094 447.06 329.069 446.865 329.023C446.536 328.946 446.225 328.805 445.951 328.608C445.676 328.411 445.443 328.161 445.265 327.874C445.087 327.587 444.967 327.268 444.913 326.934C444.858 326.601 444.87 326.26 444.947 325.931C444.947 325.559 453.346 289.004 440.576 267.523C440.228 266.932 440.128 266.226 440.299 265.561C440.471 264.896 440.899 264.327 441.491 263.978C442.082 263.629 442.788 263.529 443.453 263.701C444.118 263.872 444.687 264.301 445.036 264.892C458.921 288.157 450.432 325.559 450.031 327.046C449.907 327.633 449.583 328.159 449.113 328.533C448.644 328.907 448.059 329.107 447.459 329.097V329.097Z" fill="#151515"/>
<path d="M469.193 253.252C468.152 276.592 518.815 287.726 535.048 277.855C551.282 267.984 539.82 236.231 566.058 235.993C522.189 218.229 470.204 230.538 469.193 253.252Z" fill="#151515"/>
<path d="M456.929 256.657C466.562 275.67 440.026 286.909 426.424 279.476C412.822 272.043 407.426 245.612 391.43 246.578C411.217 230.27 447.549 238.149 456.929 256.657Z" fill="#151515"/>
<path d="M428.134 436.086H428.03C427.348 436.055 426.705 435.758 426.24 435.257C425.776 434.756 425.527 434.093 425.547 433.411C425.547 433.024 426.692 394.522 405.062 389.869C404.394 389.725 403.81 389.321 403.439 388.747C403.069 388.173 402.941 387.475 403.085 386.806C403.229 386.138 403.632 385.554 404.207 385.184C404.781 384.813 405.479 384.685 406.147 384.829C431.999 390.374 430.78 431.835 430.706 433.604C430.682 434.27 430.401 434.902 429.922 435.365C429.442 435.828 428.801 436.087 428.134 436.086V436.086Z" fill="#151515"/>
<path d="M420.85 381.009C427.569 393.466 406.965 408.644 396.782 406.281C386.599 403.917 383.403 384.547 371.168 389.215C386.837 371.643 414.309 368.893 420.85 381.009Z" fill="#151515"/>
<path d="M430.795 399.665C430.607 399.687 430.418 399.687 430.23 399.665C429.564 399.512 428.986 399.104 428.619 398.528C428.251 397.953 428.125 397.256 428.268 396.588C428.654 394.834 438.079 353.552 466.235 342.566C466.554 342.424 466.9 342.349 467.249 342.345C467.599 342.341 467.946 342.407 468.269 342.541C468.592 342.674 468.885 342.872 469.129 343.121C469.374 343.371 469.565 343.668 469.692 343.994C469.819 344.32 469.878 344.668 469.867 345.017C469.855 345.367 469.773 345.71 469.624 346.027C469.476 346.344 469.266 346.627 469.005 346.86C468.744 347.093 468.439 347.271 468.108 347.382C442.494 357.372 433.396 397.302 433.307 397.703C433.17 398.265 432.848 398.764 432.392 399.12C431.936 399.476 431.373 399.668 430.795 399.665V399.665Z" fill="#151515"/>
<path d="M461.716 329.008C441.424 339.622 455.115 362.307 470.932 363.199C486.75 364.091 508.543 345.227 520.688 354.176C515.723 330.792 481.487 318.676 461.716 329.008Z" fill="#151515"/>
<path d="M294 239.473C293.353 238.993 292.923 238.276 292.803 237.479C292.683 236.682 292.884 235.87 293.361 235.221L421.296 61.1729C421.776 60.526 422.493 60.0956 423.289 59.9758C424.086 59.856 424.898 60.0566 425.547 60.5337V60.5337C426.194 61.0139 426.625 61.7308 426.744 62.5276C426.864 63.3243 426.664 64.1361 426.186 64.7853L298.252 238.819C298.022 239.148 297.727 239.428 297.386 239.641C297.044 239.853 296.663 239.994 296.266 240.056C295.868 240.117 295.463 240.097 295.073 239.996C294.684 239.896 294.319 239.718 294 239.473Z" fill="#151515"/>
<path d="M488.081 138.22L483.336 144.734L484.565 145.629L489.31 139.114L488.081 138.22Z" fill="#151515"/>
<path d="M494.391 135.279L493.157 134.387C494.669 132.323 495.301 129.744 494.917 127.215C494.533 124.685 493.162 122.411 491.105 120.889L458.52 96.9402L459.411 95.7212L492.057 119.625C493.239 120.499 494.238 121.597 494.995 122.857C495.752 124.117 496.254 125.514 496.471 126.968C496.687 128.422 496.615 129.905 496.258 131.331C495.901 132.757 495.267 134.098 494.391 135.279V135.279Z" fill="#151515"/>
<path d="M440.027 190.416L297.315 85.5378C296.695 85.0821 296.171 84.5088 295.773 83.8504C295.374 83.1921 295.11 82.4617 294.994 81.701C294.878 80.9404 294.913 80.1643 295.097 79.4172C295.281 78.6701 295.611 77.9665 296.067 77.3468L338.018 20.2772C338.472 19.6555 339.045 19.1299 339.703 18.7304C340.362 18.331 341.092 18.0656 341.854 17.9495C342.615 17.8335 343.391 17.8691 344.139 18.0542C344.886 18.2394 345.59 18.5705 346.209 19.0284L488.92 123.906C489.54 124.361 490.063 124.933 490.462 125.59C490.86 126.247 491.124 126.976 491.24 127.735C491.356 128.495 491.321 129.27 491.137 130.016C490.954 130.762 490.624 131.464 490.169 132.083L448.218 189.167C447.763 189.789 447.19 190.314 446.532 190.714C445.874 191.113 445.143 191.379 444.382 191.495C443.62 191.611 442.844 191.575 442.096 191.39C441.349 191.205 440.646 190.874 440.027 190.416Z" fill="white"/>
<path d="M443.416 192.319C442.01 192.317 440.641 191.869 439.506 191.04L296.795 86.1473C296.092 85.6353 295.497 84.9892 295.046 84.2462C294.594 83.5032 294.293 82.678 294.162 81.8184C294.031 80.9587 294.071 80.0815 294.281 79.2375C294.49 78.3935 294.865 77.5993 295.383 76.9008L337.334 19.8163C338.364 18.3948 339.916 17.4399 341.65 17.1612C343.383 16.8826 345.156 17.3028 346.58 18.3297L489.292 123.223C490.7 124.263 491.64 125.818 491.908 127.548C492.042 128.408 492.004 129.287 491.795 130.132C491.585 130.977 491.209 131.771 490.689 132.469L448.738 189.554C447.697 190.962 446.142 191.902 444.412 192.17C444.083 192.241 443.751 192.29 443.416 192.319V192.319ZM440.443 189.806C441.512 190.588 442.846 190.92 444.157 190.731C445.469 190.542 446.654 189.847 447.459 188.795L489.425 131.711C490.224 130.625 490.557 129.266 490.354 127.933C490.15 126.601 489.426 125.404 488.34 124.605L345.629 19.7123C345.092 19.3152 344.481 19.0282 343.833 18.8678C343.185 18.7074 342.511 18.6767 341.85 18.7776C341.19 18.8784 340.556 19.1088 339.985 19.4554C339.414 19.8021 338.917 20.2581 338.523 20.7974L296.557 77.882C295.758 78.9674 295.421 80.3249 295.621 81.6579C295.719 82.3195 295.948 82.9549 296.296 83.5267C296.643 84.0985 297.101 84.5953 297.642 84.9878L440.443 189.806Z" fill="#151515"/>
<path d="M324.624 61.5894L331.64 66.0491C331.051 66.9922 330.723 68.0745 330.689 69.1858C330.72 69.9207 330.926 70.6375 331.291 71.2763C331.656 71.9151 332.168 72.4573 332.785 72.8577C333.58 73.5223 334.588 73.8762 335.624 73.8537C336.018 73.8424 336.403 73.7431 336.753 73.563C337.103 73.3829 337.408 73.1267 337.646 72.8131C337.863 72.5035 338.01 72.1502 338.077 71.778C338.144 71.4057 338.129 71.0233 338.032 70.6575C337.455 69.1587 336.557 67.8041 335.401 66.6884C333.303 64.5369 331.735 61.9257 330.823 59.0622C330.567 58.0412 330.547 56.9756 330.764 55.9456C330.98 54.9156 331.427 53.9481 332.071 53.1159C332.948 51.9406 334.154 51.051 335.535 50.559C337.126 50.0571 338.832 50.0519 340.426 50.5442C342.71 51.1827 344.839 52.2804 346.684 53.77C349.13 55.3312 351.039 57.6033 352.155 60.2812C352.505 61.4844 352.591 62.7491 352.406 63.9886C352.222 65.228 351.771 66.4127 351.085 67.4614L344.157 63.0017C344.449 62.5636 344.648 62.0702 344.742 61.5521C344.836 61.034 344.823 60.5022 344.703 59.9894C344.583 59.4767 344.359 58.994 344.046 58.5711C343.732 58.1483 343.335 57.7943 342.879 57.5311C342.253 56.9947 341.458 56.6948 340.634 56.6837C340.341 56.699 340.054 56.7805 339.797 56.9221C339.54 57.0637 339.317 57.2617 339.147 57.5013C339.007 57.6937 338.915 57.9169 338.878 58.1523C338.842 58.3878 338.863 58.6284 338.939 58.8541C339.318 59.8314 339.913 60.7106 340.679 61.4259C342.661 63.5076 344.387 65.8182 345.822 68.3087C346.602 69.7302 346.963 71.3436 346.863 72.9617C346.726 74.4279 346.186 75.8275 345.302 77.0052C344.252 78.4521 342.791 79.5501 341.11 80.1568C339.367 80.7979 337.473 80.9065 335.669 80.4689C333.409 79.8904 331.297 78.8418 329.47 77.3917C325.59 74.5524 323.524 71.8319 323.063 69.2453C322.631 66.5884 323.187 63.8654 324.624 61.5894V61.5894Z" fill="#263238"/>
<path d="M350.832 74.894C351.839 73.1918 353.212 71.7342 354.85 70.626C356.488 69.5178 358.352 68.7868 360.307 68.4853C362.262 68.1839 364.259 68.3197 366.155 68.8829C368.051 69.4461 369.799 70.4227 371.272 71.7424C375.068 74.5372 377.243 77.7036 377.798 81.2417C378.025 83.1701 377.856 85.1246 377.302 86.9854C376.747 88.8463 375.818 90.5744 374.573 92.0639C373.001 94.3918 370.89 96.3045 368.418 97.6386C366.309 98.6748 363.939 99.0628 361.61 98.7535C358.895 98.3372 356.335 97.226 354.177 95.5276C351.926 93.9865 350.055 91.953 348.706 89.5813C347.606 87.4598 347.171 85.0561 347.457 82.6836C347.858 79.8299 349.024 77.138 350.832 74.894V74.894ZM357.849 80.097C356.396 81.7454 355.56 83.8472 355.485 86.0433C355.576 86.8532 355.832 87.6357 356.238 88.3424C356.644 89.0491 357.191 89.6648 357.844 90.1513C358.498 90.6378 359.245 90.9848 360.038 91.1706C360.832 91.3564 361.655 91.3771 362.457 91.2314C364.018 90.8598 365.727 89.3881 367.601 86.7717C368.975 85.2033 369.74 83.1932 369.756 81.1079C369.681 80.2912 369.425 79.5016 369.006 78.7969C368.587 78.0921 368.015 77.49 367.333 77.0346C366.71 76.5488 365.986 76.2074 365.215 76.0352C364.444 75.8629 363.644 75.8641 362.873 76.0386C360.76 76.7551 358.966 78.1916 357.804 80.097H357.849Z" fill="#263238"/>
<path d="M369.92 106.498L386.673 83.6943L398.402 92.3313C400.132 93.501 401.675 94.9242 402.981 96.5532C403.853 97.7448 404.298 99.1954 404.245 100.671C404.133 102.186 403.623 103.646 402.767 104.901C401.911 106.157 400.739 107.164 399.369 107.821C398.153 108.348 396.822 108.553 395.504 108.416C394.418 108.274 393.361 107.968 392.367 107.509C392.88 108.173 393.291 108.91 393.586 109.695C393.747 110.357 393.832 111.035 393.839 111.716C393.9 112.429 393.9 113.145 393.839 113.857L392.352 122.97L384.399 117.127L385.752 107.39C385.935 106.503 385.935 105.587 385.752 104.7C385.502 103.977 385.034 103.348 384.414 102.901L383.789 102.44L376.996 111.687L369.92 106.498ZM386.956 98.1141L389.929 100.299C390.592 100.722 391.294 101.08 392.025 101.37C392.547 101.609 393.139 101.651 393.69 101.489C394.349 101.28 394.911 100.84 395.271 100.25C395.632 99.6598 395.767 98.9595 395.652 98.2776C395.213 97.2224 394.44 96.34 393.452 95.7653L390.36 93.4909L386.956 98.1141Z" fill="#263238"/>
<path d="M394.686 124.694L411.44 101.905L423.169 110.527C424.896 111.705 426.439 113.133 427.747 114.764C428.615 115.958 429.06 117.407 429.011 118.882C428.93 120.505 428.348 122.063 427.346 123.342C426.54 124.51 425.429 125.435 424.135 126.018C422.917 126.537 421.588 126.742 420.27 126.612C419.183 126.471 418.124 126.16 417.133 125.69C417.64 126.358 418.051 127.094 418.352 127.876C418.513 128.543 418.597 129.226 418.605 129.912C418.666 130.625 418.666 131.341 418.605 132.053L417.118 141.166L409.15 135.279L410.503 125.557C410.687 124.664 410.687 123.744 410.503 122.851C410.249 122.13 409.782 121.503 409.165 121.052L408.541 120.606L401.747 129.853L394.686 124.694ZM411.782 116.34L414.755 118.525C415.416 118.947 416.118 119.301 416.851 119.581C417.369 119.832 417.964 119.88 418.516 119.714C419.082 119.545 419.578 119.195 419.928 118.718C420.18 118.414 420.36 118.057 420.456 117.674C420.551 117.29 420.559 116.89 420.478 116.503C420.041 115.443 419.268 114.556 418.278 113.976L415.186 111.702L411.782 116.34Z" fill="#263238"/>
<path d="M432.445 117.351L440.264 123.089L439.194 134.164L449.451 129.853L457.241 135.576L438.644 142.31L431.627 151.854L424.566 146.666L431.583 137.122L432.445 117.351Z" fill="#263238"/>
<path d="M459.099 136.943L465.863 141.909L462.043 147.112L453.123 156.581L448.946 153.504L455.338 142.132L459.099 136.943ZM446.686 154.321L452.989 158.96L448.946 164.549L442.643 159.911L446.686 154.321Z" fill="#263238"/>
<path d="M332.175 135.784C332.755 137.033 333.142 137.925 333.573 138.965C334.004 140.006 334.376 140.972 334.762 141.938C335.535 143.93 336.249 145.952 336.843 147.974C338.113 152.028 339.165 156.146 339.995 160.312C340.441 162.394 340.783 164.505 341.125 166.616C341.467 168.726 341.69 170.882 341.853 173.038C342.238 177.387 342.332 181.757 342.135 186.119V186.863C342.12 187.34 342.051 187.814 341.927 188.275C341.158 191.219 339.88 194.006 338.151 196.511C336.806 198.487 335.316 200.36 333.692 202.115C330.803 205.272 327.677 208.204 324.341 210.886C321.13 213.487 317.845 215.895 314.485 218.14C311.123 220.394 307.65 222.478 304.079 224.384C302.888 225.023 301.509 225.218 300.188 224.933C298.867 224.649 297.69 223.904 296.868 222.832C296.046 221.759 295.632 220.429 295.7 219.079C295.768 217.73 296.314 216.448 297.241 215.464L297.36 215.331L305.06 207.021C307.602 204.226 310.1 201.446 312.493 198.636C314.772 195.963 316.906 193.169 318.885 190.267C319.739 189.025 320.495 187.717 321.145 186.357C321.566 185.611 321.829 184.786 321.918 183.934L321.695 186.105C321.398 182.656 321.041 179.207 320.402 175.698C319.763 172.19 319.049 168.741 318.127 165.292C317.206 161.844 316.224 158.35 315.154 154.886C314.589 153.177 313.98 151.482 313.4 149.802L312.478 147.32L311.616 145.06L311.393 144.48C310.381 141.737 310.465 138.709 311.63 136.026C312.794 133.344 314.948 131.214 317.643 130.08C320.339 128.946 323.368 128.895 326.1 129.938C328.831 130.981 331.056 133.038 332.309 135.68L332.175 135.784Z" fill="#B55B52"/>
<path d="M258.278 50.8409C248.66 60.0576 249.864 105.116 253.818 147.989C257.772 190.861 294.089 183.77 307.573 165.188C325.411 140.481 305.343 103.495 308.227 88.9269C311.363 73.0949 313.712 55.1817 294.714 44.3297C274.08 32.5114 256.197 41.4308 258.278 50.8409Z" fill="#263238"/>
<path d="M251.499 152.062H251.425C251.21 152.039 251.013 151.933 250.877 151.766C250.74 151.599 250.675 151.385 250.696 151.17C251.9 139.277 250.8 123.802 249.745 108.847C247.753 80.7509 245.865 54.2007 258.486 50.068C258.587 50.0333 258.695 50.0194 258.802 50.0269C258.909 50.0344 259.013 50.0632 259.109 50.1117C259.204 50.1602 259.289 50.2274 259.358 50.3092C259.428 50.3911 259.48 50.486 259.512 50.5883C259.578 50.7933 259.56 51.0161 259.462 51.2081C259.365 51.4002 259.196 51.546 258.991 51.614C247.589 55.3453 249.507 82.4902 251.365 108.743C252.436 123.758 253.536 139.277 252.317 151.334C252.295 151.535 252.199 151.72 252.048 151.855C251.897 151.989 251.701 152.063 251.499 152.062V152.062Z" fill="#263238"/>
<path d="M269.308 142.459L265.636 152.865C264.402 156.388 263.243 159.911 262.098 163.419C260.954 166.928 259.913 170.436 258.962 173.825C258.01 177.215 257.207 180.708 256.628 183.979V182.284C256.556 184.126 256.802 185.966 257.356 187.725C257.683 188.721 258.07 189.747 258.53 190.817C258.991 191.887 259.601 192.913 260.225 193.998C261.554 196.239 263.045 198.38 264.685 200.405C265.532 201.461 266.424 202.516 267.361 203.542L270.081 206.515L270.676 207.154C271.536 208.107 272.047 209.323 272.126 210.604C272.204 211.886 271.845 213.155 271.107 214.206C270.37 215.256 269.297 216.025 268.065 216.386C266.834 216.747 265.516 216.679 264.328 216.193C263.347 215.776 262.633 215.494 261.831 215.122C261.028 214.751 260.344 214.394 259.526 213.993C258.03 213.2 256.543 212.338 255.067 211.406C252.113 209.487 249.363 207.27 246.861 204.791C244.153 202.09 241.832 199.029 239.963 195.693C238.979 193.865 238.144 191.961 237.466 189.999C236.759 187.918 236.261 185.772 235.979 183.592C235.957 183.345 235.957 183.096 235.979 182.849V181.897C236.582 173.508 238.006 165.198 240.231 157.086C241.242 153.147 242.446 149.282 243.694 145.447C244.943 141.611 246.296 137.924 247.946 134C249.069 131.249 251.226 129.048 253.953 127.868C256.68 126.689 259.761 126.626 262.535 127.691C265.309 128.757 267.554 130.868 268.79 133.57C270.025 136.272 270.153 139.351 269.145 142.146L269.308 142.459Z" fill="#B55B52"/>
<path d="M264.611 120.085C252.718 122.33 250.235 127.176 241.509 145.179C244.14 157.071 260.701 167.477 260.701 167.477C260.701 167.477 284.114 135.412 264.611 120.085Z" fill="#151515"/>
<path d="M245.761 142.518C245.567 148.836 246.192 156.477 247.604 171.506C248.57 184.246 245.389 208.463 249.403 210.157H313.668C314.961 191.917 314.485 179.356 326.021 138.638C326.701 136.509 326.897 134.255 326.593 132.041C326.289 129.826 325.494 127.708 324.265 125.841C323.036 123.974 321.406 122.405 319.492 121.25C317.579 120.094 315.431 119.382 313.207 119.164C310.65 118.911 307.959 118.688 305.179 118.555C295.469 117.863 285.722 117.863 276.013 118.555C272.846 118.852 269.561 119.253 266.409 119.684C260.853 120.503 255.754 123.229 251.986 127.395C248.219 131.561 246.018 136.907 245.761 142.518V142.518Z" fill="#151515"/>
<path d="M275.017 134.283C274.69 135.487 273.976 136.334 273.53 136.185C273.084 136.037 272.846 134.952 273.188 133.747C273.53 132.543 274.214 131.711 274.749 131.859C275.284 132.008 275.373 133.093 275.017 134.283Z" fill="white"/>
<path d="M272.668 144.198C272.504 145.432 271.939 146.383 271.404 146.309C270.869 146.235 270.542 145.194 270.691 143.96C270.839 142.726 271.404 141.775 271.954 141.849C272.504 141.924 272.816 142.979 272.668 144.198Z" fill="white"/>
<path d="M298.995 86.8013C298.713 96.5086 297.508 112.37 303.574 118.629C303.574 118.629 294.654 117.306 275.804 129.035C270.334 121.186 274.392 118.629 274.392 118.629C279.774 117.648 284.471 112.177 281.528 105.383L298.995 86.8013Z" fill="#B55B52"/>
<path d="M279.774 126.627C285.987 127.504 287.935 136.899 287.935 136.899C287.935 136.899 302.801 126.329 307.602 118.882C305.724 117.824 303.903 116.668 302.147 115.418C302.147 115.418 283.401 123.029 279.774 126.627Z" fill="white"/>
<path d="M273.857 125.616C273.857 125.616 268.922 126.686 266.424 133.554C264.938 119.863 271.493 118.599 271.493 118.599C273.205 117.653 275.204 117.367 277.113 117.797C275.745 118.518 274.672 119.693 274.077 121.121C273.483 122.548 273.405 124.138 273.857 125.616V125.616Z" fill="white"/>
<path opacity="0.2" d="M288.069 99.6006L285.616 101.087L281.528 105.428C282.585 107.643 282.729 110.184 281.929 112.504C286.582 110.69 291.28 107.048 292.528 103.109V103.02C292.724 102.433 292.731 101.8 292.549 101.209C292.368 100.618 292.007 100.098 291.516 99.722C291.026 99.3459 290.43 99.132 289.812 99.1102C289.194 99.0885 288.585 99.2599 288.069 99.6006V99.6006Z" fill="black"/>
<path d="M295.829 64.042C300.288 78.7888 302.518 84.8541 298.207 95.3642C291.741 111.077 273.218 114.229 264.551 101.31C256.761 89.6854 250.726 67.5057 262.262 55.851C273.798 44.1962 291.369 49.2803 295.829 64.042Z" fill="#B55B52"/>
<path d="M275.76 77.3911C276.191 78.6101 275.923 79.8589 275.165 80.1859C274.407 80.513 273.441 79.7845 273.01 78.5655C272.579 77.3466 272.846 76.083 273.604 75.7559C274.362 75.4289 275.329 76.1573 275.76 77.3911Z" fill="#263238"/>
<path d="M261.637 83.7387C262.068 84.9577 261.801 86.2212 261.043 86.5483C260.285 86.8753 259.333 86.1469 258.902 84.9131C258.471 83.6792 258.738 82.4453 259.497 82.1183C260.255 81.7912 261.176 82.5197 261.637 83.7387Z" fill="#263238"/>
<path d="M259.824 82.0444L256.747 82.3863C256.747 82.3863 258.976 84.0662 259.824 82.0444Z" fill="#263238"/>
<path d="M265.77 83.0405C265.716 86.2822 265.251 89.504 264.387 92.6289C266.454 93.4763 268.847 91.6627 268.847 91.6627L265.77 83.0405Z" fill="#A02724"/>
<path d="M275.492 91.8407C276.193 91.7027 276.904 91.628 277.618 91.6177C277.666 91.6176 277.714 91.6273 277.758 91.6462C277.802 91.665 277.842 91.6927 277.876 91.7274C277.909 91.7621 277.935 91.8032 277.952 91.8482C277.969 91.8932 277.977 91.9412 277.975 91.9893C277.968 92.092 277.922 92.1883 277.848 92.2596C277.774 92.331 277.676 92.3724 277.573 92.3758C275.963 92.3967 274.377 92.7788 272.934 93.4941C271.49 94.2093 270.226 95.2395 269.234 96.5085C269.207 96.5476 269.174 96.581 269.134 96.607C269.095 96.633 269.051 96.651 269.005 96.66C268.959 96.6689 268.911 96.6687 268.865 96.6593C268.819 96.6499 268.775 96.6315 268.736 96.6051C268.697 96.5788 268.663 96.545 268.637 96.5057C268.611 96.4664 268.593 96.4224 268.584 96.3762C268.575 96.3299 268.576 96.2824 268.585 96.2362C268.594 96.19 268.613 96.1462 268.639 96.1071C270.314 93.8832 272.757 92.3623 275.492 91.8407V91.8407Z" fill="#263238"/>
<path d="M303.485 73.705C303.572 75.1738 303.353 76.6448 302.841 78.0243C302.329 79.4038 301.536 80.6616 300.511 81.7176C297.85 84.2002 294.565 81.346 293.718 77.2579C292.945 73.5415 293.406 67.7884 296.854 66.9411C300.303 66.0937 303.38 69.7358 303.485 73.705Z" fill="#FFB573"/>
<path d="M283.936 49.5036C272.787 61.4854 287.742 89.8493 286.211 110.245C284.352 135.249 299.679 138.921 309.327 118.897C302.147 99.958 309.565 71.5941 307.632 61.6489C305.387 50.2469 291.86 43.9438 283.936 49.5036Z" fill="#263238"/>
<path d="M269.501 67.4164C269.599 67.4032 269.699 67.4109 269.794 67.4391C269.889 67.4673 269.976 67.5153 270.051 67.58C270.723 68.2033 271.54 68.6494 272.428 68.8778C273.315 69.1062 274.246 69.1097 275.135 68.8881C275.226 68.8588 275.322 68.8483 275.417 68.8573C275.512 68.8663 275.604 68.8947 275.687 68.9406C275.771 68.9866 275.844 69.0492 275.903 69.1245C275.961 69.1999 276.004 69.2864 276.027 69.3787C276.072 69.5774 276.042 69.7854 275.943 69.9634C275.845 70.1414 275.684 70.2772 275.492 70.345C274.37 70.6418 273.191 70.6517 272.063 70.3737C270.936 70.0958 269.896 69.5389 269.04 68.7544C268.936 68.6499 268.864 68.5184 268.831 68.3748C268.798 68.2311 268.806 68.0811 268.854 67.9417C268.902 67.8023 268.988 67.6792 269.102 67.5864C269.217 67.4935 269.355 67.4346 269.501 67.4164Z" fill="#263238"/>
<path d="M254.829 79.6366C254.742 79.673 254.648 79.6917 254.554 79.6917C254.459 79.6917 254.366 79.673 254.279 79.6366C254.097 79.5577 253.952 79.4118 253.874 79.2292C253.797 79.0466 253.793 78.8412 253.862 78.6554C254.245 77.4995 254.887 76.4467 255.74 75.5781C256.593 74.7095 257.634 74.0484 258.783 73.6457C258.876 73.6193 258.974 73.6128 259.069 73.6269C259.165 73.6409 259.256 73.675 259.338 73.727C259.419 73.7789 259.489 73.8476 259.542 73.9284C259.595 74.0092 259.63 74.1003 259.645 74.1957C259.691 74.3946 259.657 74.6033 259.552 74.778C259.446 74.9526 259.277 75.0796 259.08 75.1323C258.178 75.468 257.363 76.0034 256.696 76.6984C256.029 77.3935 255.528 78.2301 255.23 79.146C255.201 79.2511 255.15 79.349 255.081 79.4334C255.012 79.5179 254.926 79.5871 254.829 79.6366V79.6366Z" fill="#263238"/>
<path d="M273.961 75.6821L270.884 76.0389C270.884 76.0389 273.114 77.7187 273.961 75.6821Z" fill="#263238"/>
<path d="M313.786 119.313C324.192 120.933 328.429 124.115 336.977 145.135C333.097 152.969 315.734 172.815 315.734 172.815C315.734 172.815 300.705 134.625 313.786 119.313Z" fill="#151515"/>
<path d="M324.549 526.248C330.763 516.333 331.046 513.598 335.089 508.409C338.538 503.95 338.553 504.292 342.79 500.456C345.599 497.914 343.28 494.272 340.218 492.726C337.824 491.537 335.223 490.481 332.339 488.891L321.309 498.895C323.226 504.589 322.156 516.437 317.964 524.301C314.976 529.905 322.067 530.203 324.549 526.248Z" fill="#263238"/>
<path d="M249.403 210.232C249.403 210.232 247.916 290.373 246.088 345.049C245.744 356.01 248.124 366.884 253.015 376.699C272.341 415.498 320.506 499.832 320.506 499.832C322.438 501.527 331.655 491.596 332.398 488.861C332.398 488.861 306.205 382.288 282.985 358.414C313.846 273.01 305.462 210.232 305.462 210.232H249.403Z" fill="#263238"/>
<g opacity="0.2">
<path opacity="0.2" d="M305.67 212.581L275.388 214.721C275.388 214.721 280.324 302.741 285.14 352.096C310.085 279.476 306.77 224.473 305.67 212.581Z" fill="black"/>
<path opacity="0.2" d="M286.166 362.234C288.872 387.506 291.666 420.478 292.93 450.893C302.86 468.732 311.765 484.445 316.626 492.993C318.99 482.394 321.517 469.743 323.539 456.334C314.589 425.324 300.095 380.712 286.166 362.234Z" fill="black"/>
</g>
<path d="M314.589 495.669C315.674 497.037 317.562 499.475 318.96 501.348C319.189 501.625 319.512 501.809 319.867 501.867C320.223 501.924 320.587 501.851 320.892 501.66C325.572 497.984 329.901 493.884 333.825 489.41C334.015 489.193 334.133 488.921 334.162 488.634C334.192 488.346 334.131 488.057 333.989 487.805L330.837 482.201C330.735 482.023 330.596 481.871 330.428 481.754C330.261 481.636 330.07 481.557 329.869 481.522C329.667 481.486 329.461 481.495 329.264 481.548C329.066 481.602 328.883 481.697 328.727 481.829L314.768 493.721C314.628 493.838 314.513 493.98 314.428 494.141C314.344 494.302 314.291 494.477 314.275 494.658C314.258 494.839 314.278 495.021 314.332 495.195C314.385 495.368 314.473 495.529 314.589 495.669V495.669Z" fill="#151515"/>
<path opacity="0.3" d="M314.589 495.669C315.674 497.037 317.562 499.475 318.96 501.348C319.189 501.625 319.512 501.809 319.867 501.867C320.223 501.924 320.587 501.851 320.892 501.66C325.572 497.984 329.901 493.884 333.825 489.41C334.015 489.193 334.133 488.921 334.162 488.634C334.192 488.346 334.131 488.057 333.989 487.805L330.837 482.201C330.735 482.023 330.596 481.871 330.428 481.754C330.261 481.636 330.07 481.557 329.869 481.522C329.667 481.486 329.461 481.495 329.264 481.548C329.066 481.602 328.883 481.697 328.727 481.829L314.768 493.721C314.628 493.838 314.513 493.98 314.428 494.141C314.344 494.302 314.291 494.477 314.275 494.658C314.258 494.839 314.278 495.021 314.332 495.195C314.385 495.368 314.473 495.529 314.589 495.669V495.669Z" fill="white"/>
<path d="M284.531 536.996C296.423 536.996 300.972 536.803 307.692 536.58C313.43 536.387 314.738 537.1 319.346 536.996C323.197 536.907 323.39 533.235 322.587 528.998C322.186 526.872 321.502 524.271 320.996 520.837H302.92C300.036 525.52 289.451 529.043 282.658 529.935C276.191 530.797 279.789 536.996 284.531 536.996Z" fill="#263238"/>
<path d="M266.201 210.232C266.201 210.232 284.887 313.147 291.741 359.751C298.936 408.808 307.796 488.251 302.92 520.792C305.566 522.412 315.347 522.517 320.996 520.792C320.996 520.792 345.897 413.952 325.709 361.922C339.281 247.277 319.198 241.301 313.653 210.187L266.201 210.232Z" fill="#263238"/>
<path d="M302.176 514.058C301.92 516.314 301.508 518.549 300.942 520.748C300.884 520.922 300.864 521.107 300.885 521.289C300.906 521.471 300.967 521.647 301.064 521.803C301.16 521.959 301.29 522.092 301.444 522.192C301.598 522.293 301.772 522.358 301.953 522.383C308.479 523.453 318.187 521.907 321.279 521.372C321.575 521.325 321.851 521.188 322.068 520.981C322.286 520.775 322.436 520.506 322.498 520.213L324.059 513.969C324.116 513.776 324.126 513.573 324.088 513.376C324.051 513.178 323.967 512.993 323.843 512.834C323.72 512.676 323.56 512.549 323.378 512.465C323.196 512.38 322.996 512.34 322.795 512.349L303.663 512.72C303.293 512.719 302.936 512.855 302.661 513.102C302.386 513.349 302.213 513.69 302.176 514.058V514.058Z" fill="#151515"/>
<path opacity="0.3" d="M302.176 514.058C301.92 516.314 301.508 518.549 300.942 520.748C300.884 520.922 300.864 521.107 300.885 521.289C300.906 521.471 300.967 521.647 301.064 521.803C301.16 521.959 301.29 522.092 301.444 522.192C301.598 522.293 301.772 522.358 301.953 522.383C308.479 523.453 318.187 521.907 321.279 521.372C321.575 521.325 321.851 521.188 322.068 520.981C322.286 520.775 322.436 520.506 322.498 520.213L324.059 513.969C324.116 513.776 324.126 513.573 324.088 513.376C324.051 513.178 323.967 512.993 323.843 512.834C323.72 512.676 323.56 512.549 323.378 512.465C323.196 512.38 322.996 512.34 322.795 512.349L303.663 512.72C303.293 512.719 302.936 512.855 302.661 513.102C302.386 513.349 302.213 513.69 302.176 514.058V514.058Z" fill="white"/>
<path d="M283.698 47.2438C296.349 65.5584 261.4 58.9729 253.788 76.1875C253.818 58.9729 255.245 45.6829 283.698 47.2438Z" fill="#263238"/>
<path d="M313.668 210.232C295.219 214.127 256.761 223.076 249.418 210.232C254.204 206.947 302.994 207.541 313.668 210.232Z" fill="#151515"/>
<path d="M269.576 220.31C268.357 220.31 267.212 220.31 266.171 220.221C254.16 219.597 250.726 215.91 250.592 215.762C250.553 215.725 250.523 215.682 250.501 215.633C250.48 215.584 250.469 215.532 250.469 215.479C250.469 215.426 250.48 215.374 250.501 215.325C250.523 215.277 250.553 215.233 250.592 215.197C250.667 215.122 250.769 215.08 250.875 215.08C250.98 215.08 251.082 215.122 251.157 215.197C251.157 215.197 254.576 218.779 266.186 219.404C277.796 220.028 304.243 216.758 312.27 213.011C312.369 212.969 312.481 212.965 312.583 213.001C312.685 213.037 312.769 213.109 312.82 213.205C312.862 213.306 312.863 213.419 312.824 213.521C312.786 213.623 312.71 213.706 312.612 213.755C305.075 217.308 282.613 220.31 269.576 220.31Z" fill="white"/>
<path d="M265.175 249.358C264.775 249.345 264.39 249.204 264.075 248.957C258.129 244.765 263.763 224.265 266.93 218.675C266.974 218.6 267.04 218.54 267.12 218.505C267.2 218.469 267.29 218.46 267.375 218.478C267.461 218.496 267.538 218.541 267.597 218.606C267.656 218.67 267.693 218.752 267.703 218.839C267.926 221.708 269.828 246.906 265.889 249.165C265.673 249.292 265.426 249.359 265.175 249.358V249.358ZM266.989 220.355C263.867 227.179 259.556 244.839 264.536 248.288C265.042 248.645 265.324 248.556 265.488 248.466C268.015 247.01 267.792 231.386 266.989 220.355V220.355Z" fill="white"/>
<path d="M271.464 244.497C271.152 244.487 270.845 244.422 270.557 244.304C263.689 241.598 265.176 224.726 266.9 218.765C266.926 218.684 266.975 218.613 267.041 218.56C267.107 218.507 267.187 218.475 267.272 218.467C267.357 218.469 267.44 218.495 267.512 218.542C267.583 218.59 267.639 218.656 267.673 218.735C268.491 221.024 275.567 241.123 272.519 244.081C272.236 244.354 271.857 244.503 271.464 244.497ZM267.346 220.266C265.755 227.179 265.146 241.301 270.854 243.546C271.598 243.843 271.865 243.546 271.954 243.546C273.887 241.628 270.408 229.037 267.346 220.266Z" fill="white"/>
<path d="M260.731 234.537C260.634 234.538 260.54 234.504 260.466 234.441C260.392 234.378 260.344 234.291 260.329 234.195C259.616 229.631 264.016 219.508 267.167 218.497C267.217 218.478 267.27 218.47 267.323 218.473C267.376 218.476 267.428 218.49 267.475 218.513C267.522 218.537 267.564 218.57 267.599 218.611C267.633 218.652 267.658 218.699 267.673 218.75C267.706 218.852 267.699 218.964 267.652 219.061C267.605 219.158 267.522 219.233 267.42 219.27C264.655 220.147 260.493 229.973 261.132 234.136C261.145 234.242 261.117 234.349 261.053 234.434C260.989 234.52 260.895 234.578 260.79 234.597L260.731 234.537Z" fill="white"/>
</svg>
