<svg width="801" height="1024" viewBox="0 0 801 1024" fill="none" xmlns="http://www.w3.org/2000/svg">
<path opacity="0.2" d="M80.5258 329.379C62.5043 117.219 130.01 18.683 153.346 -7.34794L251.407 -7.74951L259.473 1044.97L72.5036 1045.74C-82.2309 873.592 112.63 647.454 94.7369 477.627C83.9264 375.026 84.8372 380.136 80.5258 329.379Z" fill="url(#paint0_linear)"/>
<path opacity="0.1" d="M799.246 -9.26221L807.307 1042.73L8.87411 1046C142.166 808.748 -63.4097 770.139 43.5588 453.363C97.9256 292.361 149.333 208.188 91.9012 -6.36556L799.246 -9.26221Z" fill="url(#paint1_linear)"/>
<path opacity="0.2" d="M807.307 1042.73L799.246 -9.26209L155.968 -6.6278C189.715 302.267 -5.67786 284.437 63.7735 588.802C101.301 753.261 4.19239 890.042 74.2479 1045.73L807.307 1042.73Z" fill="url(#paint2_linear)"/>
<path d="M800.99 -9.26953L809.05 1042.72L72.5046 1045.74C205.797 808.488 0.220743 769.879 107.189 453.102C161.556 292.101 212.963 207.927 155.532 -6.62631L800.99 -9.26953Z" fill="url(#paint3_linear)"/>
<defs>
<linearGradient id="paint0_linear" x1="319.197" y1="23.022" x2="47.4294" y2="1244.75" gradientUnits="userSpaceOnUse">
<stop stop-color="#151515"/>
<stop offset="1" stop-color="#008288"/>
</linearGradient>
<linearGradient id="paint1_linear" x1="792.273" y1="-9.23367" x2="15.1456" y2="1476.05" gradientUnits="userSpaceOnUse">
<stop stop-color="#151515"/>
<stop offset="1" stop-color="#008288"/>
</linearGradient>
<linearGradient id="paint2_linear" x1="136.376" y1="52.9942" x2="867.934" y2="1168.05" gradientUnits="userSpaceOnUse">
<stop stop-color="#151515"/>
<stop offset="1" stop-color="#008288"/>
</linearGradient>
<linearGradient id="paint3_linear" x1="855.904" y1="-9.49433" x2="78.7762" y2="1475.79" gradientUnits="userSpaceOnUse">
<stop stop-color="#151515"/>
<stop offset="1" stop-color="#008288"/>
</linearGradient>
</defs>
</svg>
