<svg width="132" height="52" viewBox="0 0 132 52" fill="none" xmlns="http://www.w3.org/2000/svg">
<g clip-path="url(#clip0)">
<path d="M10.284 22.3116C7.31661 22.3116 5.0245 21.6264 3.40775 20.2558C1.81147 18.8651 1.02357 16.7892 1.04403 14.0279H6.04775C6.02729 15.1768 6.37517 16.0535 7.09147 16.6581C7.80777 17.2628 8.81054 17.5651 10.0998 17.5651C11.164 17.5651 12.0031 17.3938 12.6171 17.0512C13.231 16.7085 13.538 16.1845 13.538 15.4791C13.538 14.8946 13.2208 14.4713 12.5864 14.2093C11.9724 13.9473 11.3585 13.7659 10.7445 13.6651C10.1305 13.5442 9.75192 13.4736 9.60868 13.4535C8.03285 13.1512 6.67196 12.7884 5.52589 12.3651C4.37984 11.9217 3.41799 11.2566 2.64031 10.3698C1.86264 9.48294 1.4738 8.31396 1.4738 6.8628C1.4738 5.41164 1.86264 4.18218 2.64031 3.17443C3.41799 2.14652 4.45147 1.38063 5.74078 0.876756C7.05052 0.372879 8.47287 0.120941 10.0078 0.120941C11.8701 0.120941 13.4766 0.463576 14.8273 1.14885C16.1984 1.83412 17.2729 2.8721 18.0505 4.2628C18.4394 4.92792 18.6748 5.57288 18.7566 6.19769C18.8384 6.80234 18.8794 7.39689 18.8794 7.98141H13.8757C13.8757 6.89303 13.5789 6.09689 12.9854 5.59303C12.3919 5.069 11.471 4.80699 10.2226 4.80699C9.21987 4.80699 8.44217 4.9783 7.88961 5.32094C7.33706 5.66358 7.06078 6.12712 7.06078 6.71164C7.06078 7.35662 7.42915 7.83024 8.16589 8.13257C8.90264 8.4349 9.83382 8.70699 10.9594 8.94885C12.8012 9.31164 14.2338 9.66433 15.2571 10.007C16.3008 10.3294 17.2013 10.914 17.9585 11.7605C18.7156 12.607 19.0943 13.7962 19.0943 15.3279C19.0943 16.7791 18.6849 18.0287 17.8664 19.0768C17.0478 20.1248 15.9631 20.931 14.6124 21.4954C13.2822 22.0395 11.8394 22.3116 10.284 22.3116ZM26.0084 0.725593V14.9651L40.4977 0.725593H42.094L33.161 9.49303L42.0633 21.7675H40.7126L32.3628 10.2791L26.0084 16.5372V21.7675H24.8726V0.725593H26.0084ZM62.5149 0.725593V1.8442H56.13V20.6488H62.5149V21.7675H48.6705V20.6488H55.0249V1.8442H48.6705V0.725593H62.5149ZM71.7009 21.7675V0.725593H72.8367V20.6488H87.7251V21.7675H71.7009ZM94.4245 21.7675V0.725593H95.5603V20.6488H110.449V21.7675H94.4245ZM124.209 11.7C122.469 11.3574 121.047 10.9845 119.942 10.5814C118.857 10.1582 117.997 9.59383 117.363 8.88838C116.749 8.1628 116.442 7.23569 116.442 6.10699C116.442 4.938 116.749 3.91009 117.363 3.02327C117.997 2.13644 118.877 1.45117 120.003 0.967453C121.149 0.483732 122.469 0.241871 123.963 0.241871C125.395 0.241871 126.705 0.544197 127.892 1.14885C129.099 1.73334 130.051 2.5597 130.747 3.62792C131.443 4.69613 131.791 5.91551 131.791 7.28606H130.655C130.655 6.09689 130.358 5.04885 129.765 4.14187C129.171 3.2349 128.363 2.53955 127.34 2.05583C126.316 1.55195 125.181 1.30001 123.932 1.30001C122.827 1.30001 121.793 1.47133 120.832 1.81396C119.87 2.1566 119.082 2.68063 118.468 3.38606C117.874 4.09149 117.578 4.9783 117.578 6.04652C117.578 7.01397 117.864 7.78991 118.437 8.37443C119.01 8.93875 119.757 9.3721 120.678 9.67443C121.599 9.97676 122.889 10.2992 124.546 10.6419C126.224 10.9845 127.524 11.3171 128.445 11.6395C129.386 11.9419 130.174 12.4558 130.809 13.1814C131.463 13.907 131.791 14.9248 131.791 16.2349C131.791 17.545 131.432 18.6535 130.717 19.5605C130.02 20.4473 129.09 21.1124 127.923 21.5558C126.757 21.9992 125.487 22.2209 124.117 22.2209C122.418 22.2209 120.924 21.9085 119.635 21.2837C118.345 20.6589 117.353 19.7822 116.657 18.6535C115.982 17.5047 115.644 16.1946 115.644 14.7233H116.78C116.78 16.0132 117.066 17.1419 117.639 18.1093C118.232 19.0768 119.082 19.8326 120.187 20.3768C121.292 20.9008 122.602 21.1628 124.117 21.1628C125.999 21.1628 127.555 20.7194 128.783 19.8326C130.031 18.9457 130.655 17.7364 130.655 16.2047C130.655 15.1566 130.389 14.3504 129.857 13.7861C129.325 13.2217 128.649 12.8186 127.831 12.5768C127.033 12.3148 125.825 12.0225 124.209 11.7ZM20.1994 52H0.0617065L10.1305 30.5047L20.1994 52ZM1.84217 50.8814H18.4189L10.1305 33.1651L1.84217 50.8814ZM26.8987 52H25.7628V30.9582H34.3582C35.7908 30.9582 37.1108 31.2605 38.3182 31.8651C39.5461 32.4698 40.5182 33.3264 41.2345 34.4349C41.9508 35.5434 42.3089 36.8233 42.3089 38.2744C42.3089 39.6651 41.9405 40.945 41.2038 42.114C40.4875 43.2829 39.5052 44.1799 38.2568 44.8047C37.1722 45.3488 35.8726 45.6209 34.3582 45.6209H26.8987V52ZM26.8987 44.5023H34.3582C35.668 44.5023 36.7424 44.3008 37.5815 43.8977C38.6661 43.3938 39.5359 42.638 40.1908 41.6302C40.8457 40.6225 41.1731 39.5039 41.1731 38.2744C41.1731 37.0651 40.8457 35.9566 40.1908 34.9488C39.5359 33.9411 38.6559 33.1853 37.5508 32.6814C36.7117 32.2783 35.6475 32.0768 34.3582 32.0768H26.8987V44.5023ZM49.6221 52H48.4863V30.9582H57.0817C58.5143 30.9582 59.8343 31.2605 61.0417 31.8651C62.2693 32.4698 63.2418 33.3264 63.9577 34.4349C64.6742 35.5434 65.0321 36.8233 65.0321 38.2744C65.0321 39.6651 64.6637 40.945 63.927 42.114C63.2111 43.2829 62.2288 44.1799 60.9803 44.8047C59.8957 45.3488 58.5961 45.6209 57.0817 45.6209H49.6221V52ZM49.6221 44.5023H57.0817C58.3915 44.5023 59.4659 44.3008 60.3049 43.8977C61.3896 43.3938 62.2595 42.638 62.914 41.6302C63.5691 40.6225 63.8963 39.5039 63.8963 38.2744C63.8963 37.0651 63.5691 35.9566 62.914 34.9488C62.2595 33.9411 61.3793 33.1853 60.2742 32.6814C59.4352 32.2783 58.371 32.0768 57.0817 32.0768H49.6221V44.5023ZM71.7009 52V30.9582H72.8367V50.8814H87.7251V52H71.7009ZM93.4729 30.9582L101.055 42.2047L108.576 30.9582H109.927L101.608 43.3837V52H100.472V43.3837L92.1222 30.9582H93.4729Z" fill="white"/>
</g>
<defs>
<clipPath id="clip0">
<rect width="132" height="52" fill="white"/>
</clipPath>
</defs>
</svg>
